<?xml version="1.0" encoding="utf-8"?>
<!-- Generator: Adobe Illustrator 22.1.0, SVG Export Plug-In . SVG Version: 6.00 Build 0)  -->
<svg version="1.1" id="Layer_1" xmlns="http://www.w3.org/2000/svg" xmlns:xlink="http://www.w3.org/1999/xlink" x="0px" y="0px"
	 viewBox="0 0 500 500" style="enable-background:new 0 0 500 500;" xml:space="preserve">
<style type="text/css">
	.st0{fill:#E0E0E0;}
	.st1{fill:#EBEBEB;}
	.st2{fill:#F5F5F5;}
	.st3{display:none;}
	.st4{display:inline;}
	.st5{display:inline;fill:#EBEBEB;stroke:#EBEBEB;stroke-miterlimit:10;}
	.st6{fill:#4A56D6;}
	.st7{opacity:0.8;}
	.st8{fill:#FFFFFF;}
	.st9{opacity:0.3;}
	.st10{fill:#FFBE9D;}
	.st11{fill:#EB996E;}
	.st12{opacity:0.6;}
	.st13{fill:#263238;}
	.st14{fill:#455A64;}
	.st15{fill:#FAFAFA;}
</style>
<g id="Background_Complete">
	<g>
		<g>
			<path class="st0" d="M124.9,359.3c-2-2.1-5-2.9-7.7-3.9c-12-4.4-21.6-14.7-25.2-26.9c-3.6-12.2-1.2-26.1,6.4-36.3l-0.4-2.1
				c-0.9-9.9-12.8-16.9-21.9-13c-9.1,3.9-12.2,17.4-5.7,24.9c-10.7,0.9-17.7,13-16.2,23.7s9.3,19.3,17.9,25.6
				c14.2,10.4,31.7,16.2,49.2,16.3c1.2,0,2.5,0,3.5-0.6C127.2,365.4,126.8,361.4,124.9,359.3z"/>
		</g>
	</g>
	<g>
		<g>
			<path class="st0" d="M422.2,316.2c2.5-4,2.8-9.3,0.3-13.3s-8-6-12.2-4c2.4-4,1-9.7-2.9-12.2s-9.7-1.2-12.2,2.7
				c-2.8,4.4-1.3,10.3,1.1,14.9c2.4,4.6,5.8,9,6.6,14.1c0.8,5.3-1.2,10.7-4.4,15c-3.2,4.3-7.4,7.7-11.5,11l-0.8,0.8
				c7.5,2.6,16,1.9,23-2c3.9-2.2,7.6-5.8,7.8-10.2c0.1-2.5-0.8-5-0.4-7.5C417.1,322,420.3,319.4,422.2,316.2z"/>
		</g>
	</g>
	<g>
		<g>
			<path class="st0" d="M207.1,479.7c-3.9-0.5-7.8-2.2-10.1-5.4c-1.5-2-2.2-4.5-3.4-6.7s-3.5-4.1-6-3.9c-3.9,0.4-6.5,5.7-10.2,4.8
				c-2.3-0.6-3.3-3.2-3.4-5.6c0-2.3,0.7-4.7,0.4-7c-0.8-6.5-9.2-9.7-15.4-7.7s-15.7,9.6-19.8,14.7c4.3,7.1,13,9.9,21.1,11.9
				c13.5,3.4,27.1,6.3,40.9,8.6c3.2,0.6,6.5,1.1,9.7,0.6c3.2-0.5,6.4-2.2,7.9-5.1C215,479.6,211,480.2,207.1,479.7z"/>
		</g>
	</g>
	<g>
		<g>
			<path class="st0" d="M362,429.5c-1-5.6-6.5-10.5-12-9.2c4.6-3.8,4.6-11.3,1-16c-3.6-4.7-9.9-6.7-15.8-6.5
				c-5.9,0.2-11.6,2.3-17.1,4.5c2.7-3.4-1.2-8.8-5.6-9s-8.2,2.5-11.8,5c-3.5,2.6-7.6,5.2-11.9,4.5l4,1.6c9.6,1.5,19.4,3.7,27.7,8.8
				s15.2,13.3,16.7,22.9c1.4,9.6-3.6,20.5-12.8,23.8c12.3,0.8,24.9-4.9,32.5-14.7C360.4,440.8,363,435.1,362,429.5z"/>
		</g>
	</g>
	<g>
		<g>
			<g>
				<g>
					<path class="st0" d="M44.9,285.4c-0.1,0-0.3-4.2-0.3-9.3c0-5.1,0.1-9.3,0.3-9.3s0.3,4.2,0.3,9.3
						C45.2,281.2,45.1,285.4,44.9,285.4z"/>
				</g>
			</g>
		</g>
		<g>
			<g>
				<g>
					<path class="st0" d="M54.6,276c0,0.1-4.3,0.3-9.6,0.3c-5.3,0-9.6-0.1-9.6-0.3s4.3-0.3,9.6-0.3C50.3,275.8,54.6,275.9,54.6,276z
						"/>
				</g>
			</g>
		</g>
	</g>
	<g>
		<g>
			<g>
				<g>
					<path class="st0" d="M416.4,381.1c-0.1,0-0.3-4.2-0.3-9.3c0-5.1,0.1-9.3,0.3-9.3c0.1,0,0.3,4.2,0.3,9.3
						C416.7,376.9,416.6,381.1,416.4,381.1z"/>
				</g>
			</g>
		</g>
		<g>
			<g>
				<g>
					<path class="st0" d="M426,371.8c0,0.1-4.3,0.3-9.6,0.3c-5.3,0-9.6-0.1-9.6-0.3c0-0.1,4.3-0.3,9.6-0.3
						C421.7,371.5,426,371.6,426,371.8z"/>
				</g>
			</g>
		</g>
	</g>
	<g>
		<g>
			<g>
				<g>
					<path class="st0" d="M359.9,61.4c-0.1,0-0.3-4.2-0.3-9.3c0-5.1,0.1-9.3,0.3-9.3s0.3,4.2,0.3,9.3
						C360.2,57.3,360.1,61.4,359.9,61.4z"/>
				</g>
			</g>
		</g>
		<g>
			<g>
				<g>
					<path class="st0" d="M369.5,52.1c0,0.1-4.3,0.3-9.6,0.3c-5.3,0-9.6-0.1-9.6-0.3s4.3-0.3,9.6-0.3
						C365.2,51.9,369.5,52,369.5,52.1z"/>
				</g>
			</g>
		</g>
	</g>
	<g>
		<g>
			<circle class="st0" cx="55.6" cy="197.8" r="5.7"/>
		</g>
	</g>
	<g>
		<g>
			<path class="st0" d="M282.8,440.2c0,3.1-2.5,5.7-5.7,5.7s-5.7-2.5-5.7-5.7c0-3.1,2.5-5.7,5.7-5.7S282.8,437.1,282.8,440.2z"/>
		</g>
	</g>
	<g>
		<g>
			<path class="st0" d="M335.7,332.7c0,3.1-2.5,5.7-5.7,5.7c-3.1,0-5.7-2.5-5.7-5.7c0-3.1,2.5-5.7,5.7-5.7
				C333.2,327,335.7,329.5,335.7,332.7z"/>
		</g>
	</g>
	<g>
		<g>
			<path class="st0" d="M166.6,49.3c0,3.1-2.5,5.7-5.7,5.7c-3.1,0-5.7-2.5-5.7-5.7c0-3.1,2.5-5.7,5.7-5.7
				C164.1,43.6,166.6,46.1,166.6,49.3z"/>
		</g>
	</g>
	<g>
		<g>
			<circle class="st0" cx="190.7" cy="386" r="2.8"/>
		</g>
	</g>
	<g>
		<g>
			<path class="st0" d="M124.9,371.8c0,1.6-1.3,2.8-2.8,2.8s-2.8-1.3-2.8-2.8c0-1.6,1.3-2.8,2.8-2.8S124.9,370.2,124.9,371.8z"/>
		</g>
	</g>
	<g>
		<g>
			<path class="st0" d="M195.1,55c0,1.6-1.3,2.8-2.8,2.8s-2.8-1.3-2.8-2.8c0-1.6,1.3-2.8,2.8-2.8S195.1,53.4,195.1,55z"/>
		</g>
	</g>
	<g>
		<g>
			<path class="st0" d="M320.4,208.9c0,1.6-1.3,2.8-2.8,2.8c-1.6,0-2.8-1.3-2.8-2.8s1.3-2.8,2.8-2.8
				C319.2,206.1,320.4,207.4,320.4,208.9z"/>
		</g>
	</g>
	<g>
		<g>
			<g>
				<g>
					<path class="st1" d="M47.1,46.5c0,0-6.3,3.3,2.5,16.5c8.9,13.3,14.7,19.7,14.7,19.7s1.7,3.1-1,4s-8.9,0.6-9.7,4.1
						c-0.9,3.7,2.1,6.7,7.6,8.9c5.5,2.3,17.4,7.7,18.4,8.2c1.1,0.5,2.2,1.9,0.5,2.8s-15.3,3.9-13.4,10.2c1.8,6.3,18.2,10.2,20,10.6
						c1.8,0.5,2.3,1.1,2.2,2.1c0,1-4.7,1.5-8.5,2.6s-8,2.9-6.7,6.4c1.4,3.6,11.6,10.2,34.4,9.7l10.6-0.9l4.7-9.6
						c8.8-21.1,6.3-33,3.5-35.6c-2.8-2.6-6.1,0.7-8.4,3.9c-2.3,3.2-4.6,7.3-5.5,6.9s-1.3-1-1.1-2.9s2.6-18.5-2.6-22.5
						c-5.2-4-13,7.5-14.4,8.8c-1.4,1.3-2.3-0.3-2.4-1.4C92.4,98,91.7,84.9,91.6,79s-1.8-9.8-5.6-10.3c-3.6-0.5-5.6,5.3-7.4,7.6
						s-4.1-0.5-4.1-0.5s-3.8-7.8-13-20.9S47,46.6,47,46.6"/>
				</g>
			</g>
		</g>
		<g>
			<g>
				<g>
					<g>
						<path class="st0" d="M119.6,153.9c-6.7-9.7-18.2-27-28.2-41.9c-10-14.8-19-28.3-25.7-38c-3.3-4.8-6-8.7-7.8-11.5
							c-0.9-1.3-1.6-2.4-2.1-3.1c-0.2-0.3-0.4-0.6-0.5-0.8c-0.1-0.2-0.2-0.3-0.2-0.3s0.1,0.1,0.2,0.3c0.1,0.2,0.3,0.5,0.6,0.8
							c0.5,0.7,1.2,1.8,2.2,3.1c1.9,2.7,4.6,6.6,7.9,11.4c6.7,9.7,15.7,23.1,25.7,37.9c10,14.9,21.5,32.2,28.1,41.9"/>
					</g>
				</g>
			</g>
		</g>
		<g>
			<g>
				<g>
					<g>
						<path class="st0" d="M62.3,91.5c0,0,0.3,0,0.8,0.1c0.5,0.1,1.2,0.3,2,0.5c1.7,0.4,4.1,1,6.7,1.8c2.5,0.7,4.9,1.4,6.6,1.9
							c0.8,0.2,1.5,0.4,2,0.6c0.5,0.1,0.7,0.2,0.7,0.2s-0.3,0-0.8-0.1c-0.5-0.1-1.2-0.3-2-0.5c-1.7-0.4-4.1-1.1-6.6-1.8
							c-2.6-0.7-4.9-1.4-6.6-1.9c-0.8-0.2-1.5-0.4-2-0.6C62.5,91.6,62.3,91.5,62.3,91.5z"/>
					</g>
				</g>
			</g>
		</g>
		<g>
			<g>
				<g>
					<g>
						<path class="st0" d="M81.7,95.8c-0.1,0,1-4.9,2.4-11c1.4-6,2.6-10.9,2.7-10.9c0.1,0-1,4.9-2.4,11C83,90.9,81.8,95.8,81.7,95.8
							z"/>
					</g>
				</g>
			</g>
		</g>
		<g>
			<g>
				<g>
					<g>
						<path class="st0" d="M96,119.3c0,0,0.1-0.3,0.4-0.7c0.3-0.5,0.6-1.1,1-1.9c0.9-1.6,2.1-3.7,3.3-6.2c1.3-2.4,2.3-4.7,3.1-6.3
							c0.4-0.8,0.7-1.4,0.9-1.9c0.2-0.5,0.3-0.7,0.4-0.7c0,0-0.1,0.3-0.2,0.7c-0.2,0.5-0.4,1.1-0.8,2c-0.7,1.7-1.7,3.9-3,6.4
							c-1.2,2.4-2.5,4.6-3.4,6.1c-0.5,0.8-0.9,1.4-1.1,1.8C96.2,119.1,96,119.3,96,119.3z"/>
					</g>
				</g>
			</g>
		</g>
		<g>
			<g>
				<g>
					<g>
						<path class="st0" d="M77.6,119.3c0,0,0.3,0,0.7-0.1c0.5,0,1.2,0,2-0.1c1.7-0.1,4-0.1,6.5-0.1c2.5,0,4.8,0,6.5,0
							c0.8,0,1.4,0,2,0c0.5,0,0.7,0,0.7,0.1s-0.3,0-0.7,0.1c-0.5,0-1.2,0-2,0.1c-1.7,0.1-4,0.1-6.5,0.1s-4.8,0-6.5,0
							c-0.8,0-1.4,0-2,0C77.8,119.3,77.6,119.3,77.6,119.3z"/>
					</g>
				</g>
			</g>
		</g>
		<g>
			<g>
				<g>
					<g>
						<path class="st0" d="M87.6,141.6c0,0,0.3-0.1,0.9-0.1c0.7,0,1.5-0.1,2.5-0.1c2.1-0.1,5.1-0.2,8.3-0.2c3.3-0.1,6.2-0.1,8.3-0.1
							c1,0,1.9,0,2.5,0c0.6,0,0.9,0,0.9,0c0,0-0.3,0.1-0.9,0.1c-0.7,0-1.5,0.1-2.5,0.1c-2.1,0.1-5.1,0.2-8.3,0.2
							c-3.3,0.1-6.2,0.1-8.3,0.1c-1,0-1.9,0-2.5,0C87.9,141.7,87.6,141.7,87.6,141.6z"/>
					</g>
				</g>
			</g>
		</g>
		<g>
			<g>
				<g>
					<g>
						<path class="st0" d="M110.5,141c0,0,0.1-0.3,0.4-0.9c0.3-0.6,0.7-1.4,1.2-2.4c1-2,2.5-4.8,4-8c1.5-3.1,2.8-6,3.7-8.1
							c0.4-1,0.8-1.8,1.1-2.5c0.3-0.6,0.4-0.9,0.4-0.9c0,0-0.1,0.3-0.3,0.9s-0.6,1.5-1,2.5c-0.9,2.1-2.1,5-3.6,8.2
							c-1.5,3.1-3,5.9-4.1,7.9c-0.6,1-1,1.8-1.3,2.4C110.8,140.7,110.6,141,110.5,141z"/>
					</g>
				</g>
			</g>
		</g>
	</g>
	<g>
		<g>
			<g>
				<g>
					<g>
						<g>
							<g>
								<path class="st2" d="M390.5,237c-11.3-9.8-12.3-25.9-10.3-40.1c0.3-2.4,0.3-4.9,1.7-6.9s4.1-3.1,6.2-1.9c1.7,1,2.2,3.2,3,5
									c1.1,2.4,2.8,4.5,5,5.9c1.4,0.9,3.2,1.6,4.8,1c2.2-0.9,2.7-3.7,3-6.1c0.4-4.4,0.9-8.8,1.3-13.2c0.2-2.4,0.5-4.8,1.5-6.9
									s2.8-4.1,5.1-4.5c2.3-0.4,4.9,1.2,5.2,3.6c0.1,1-0.2,2-0.3,2.9c0,1,0.3,2.1,1.2,2.5c0.9,0.4,1.9-0.2,2.7-0.8
									c2.7-2.1,4.7-5,6.5-7.9c1.9-2.9,3.7-5.8,6.2-8.2s5.8-4.1,9.2-3.9c3.4,0.2,6.8,2.6,7.3,6.1c0.5,3.4-1.8,6.6-4.2,9
									c-3.6,3.7-7.6,6.8-12.1,9.3c-0.8,0.4-1.7,0.9-2,1.8c-0.7,1.5,0.6,3.2,2.1,3.9c1.7,0.8,3.6,0.8,5.4,1.2s3.7,1.4,4.2,3.3
									c0.7,2.5-1.6,4.8-3.7,6.3c-4.3,2.9-9.2,5-14.2,6.3c-1.8,0.4-3.7,0.8-5.2,1.9c-1.5,1.1-2.6,3.1-1.9,4.9
									c0.7,1.8,2.8,2.5,4.6,2.4c1.9-0.1,3.6-1,5.4-1.4c3.4-0.9,7.5-0.2,9.3,2.8c1.2,2,1,4.6,0.1,6.7s-2.5,3.9-4.2,5.4
									c-5.9,5.5-13,9.7-20.8,11.5C404.7,240.6,397.7,240.5,390.5,237"/>
							</g>
						</g>
					</g>
				</g>
			</g>
		</g>
		<g>
			<g>
				<g>
					<g>
						<g>
							<g>
								<g>
									<path class="st0" d="M395.1,228.5c2.9-6.9,6.6-14.3,10.8-21.9c1.1-1.9,2.1-3.7,3.1-5.6c1-1.8,2.1-3.6,3.2-5.4
										c2.2-3.4,4.6-6.6,7-9.5c2.4-2.9,4.7-5.6,6.9-8.1c2.2-2.5,4.3-4.8,6.3-6.7c4-4,7.6-6.8,10.2-8.7c1.3-0.9,2.3-1.6,3-2.1
										c0.3-0.2,0.6-0.4,0.8-0.5c0.2-0.1,0.3-0.2,0.3-0.2c0,0-0.1,0.1-0.3,0.2c-0.2,0.1-0.4,0.3-0.8,0.5c-0.7,0.5-1.7,1.2-2.9,2.1
										c-2.5,1.9-6.1,4.7-10.1,8.8c-2,2-4.1,4.3-6.3,6.8c-2.2,2.5-4.5,5.2-6.9,8.1c-2.3,2.9-4.7,6-6.9,9.5
										c-1.1,1.7-2.1,3.5-3.2,5.3c-1,1.8-2.1,3.7-3.1,5.6c-4.2,7.6-8,14.9-10.9,21.8"/>
								</g>
							</g>
						</g>
					</g>
				</g>
			</g>
		</g>
		<g>
			<g>
				<g>
					<g>
						<g>
							<g>
								<g>
									<path class="st0" d="M412.4,195.7c0,0-0.1-0.4-0.1-1c-0.1-0.7-0.1-1.6-0.1-2.8c-0.1-2.4-0.1-5.7-0.1-9.3
										c0-3.6,0-6.9-0.1-9.3c-0.1-1.2-0.1-2.2-0.2-2.8c0-0.7-0.1-1,0-1c0,0,0.1,0.4,0.2,1c0.1,0.7,0.2,1.6,0.3,2.8
										c0.2,2.4,0.3,5.7,0.3,9.3c0,3.6,0,6.8-0.1,9.3c0,1.1,0,2.1,0,2.8C412.5,195.3,412.4,195.7,412.4,195.7z"/>
								</g>
							</g>
						</g>
					</g>
				</g>
			</g>
		</g>
		<g>
			<g>
				<g>
					<g>
						<g>
							<g>
								<g>
									<path class="st0" d="M443.4,193.3c0,0-0.4,0-1.2,0c-0.8,0-1.9,0-3.3,0c-2.8,0-6.7,0.1-11,0.5c-4.3,0.3-8.1,0.8-10.9,1.3
										c-1.4,0.2-2.5,0.4-3.3,0.5c-0.8,0.1-1.2,0.2-1.2,0.2c0,0,0.4-0.1,1.2-0.3c0.8-0.2,1.9-0.4,3.3-0.7c2.8-0.5,6.6-1,10.9-1.4
										c4.3-0.3,8.2-0.4,11-0.3c1.4,0,2.5,0.1,3.3,0.2C442.9,193.2,443.4,193.2,443.4,193.3z"/>
								</g>
							</g>
						</g>
					</g>
				</g>
			</g>
		</g>
		<g>
			<g>
				<g>
					<g>
						<g>
							<g>
								<g>
									<path class="st0" d="M395.6,228c0,0-0.1-0.1-0.2-0.4c-0.1-0.3-0.2-0.7-0.4-1.2c-0.3-1-0.8-2.5-1.3-4.3
										c-1.1-3.6-2.4-8.7-3.8-14.3c-1.4-5.6-2.7-10.7-3.7-14.3c-0.5-1.8-0.9-3.2-1.2-4.3c-0.1-0.5-0.2-0.9-0.3-1.2
										c-0.1-0.3-0.1-0.4-0.1-0.4c0,0,0.1,0.1,0.2,0.4c0.1,0.3,0.2,0.7,0.4,1.2c0.3,1,0.8,2.5,1.3,4.3c1.1,3.6,2.4,8.7,3.8,14.3
										c1.4,5.6,2.7,10.7,3.7,14.3c0.5,1.8,0.9,3.2,1.2,4.3c0.1,0.5,0.2,0.9,0.3,1.2C395.5,227.8,395.6,227.9,395.6,228z"/>
								</g>
							</g>
						</g>
					</g>
				</g>
			</g>
		</g>
		<g>
			<g>
				<g>
					<g>
						<g>
							<g>
								<g>
									<path class="st0" d="M437.3,219.3c0,0-0.1,0.1-0.4,0.1c-0.3,0.1-0.7,0.2-1.2,0.3c-1.1,0.2-2.6,0.6-4.5,0.9
										c-3.8,0.8-9,1.9-14.7,3.2c-5.7,1.3-11,2.4-14.7,3.1c-1.9,0.4-3.4,0.6-4.5,0.8c-0.5,0.1-0.9,0.1-1.2,0.2c-0.3,0-0.4,0-0.4,0
										s0.1-0.1,0.4-0.1c0.3-0.1,0.7-0.2,1.2-0.3c1.1-0.2,2.6-0.5,4.5-0.9c3.8-0.8,9-1.9,14.7-3.2c5.7-1.3,11-2.4,14.7-3.1
										c1.9-0.4,3.4-0.6,4.5-0.8c0.5-0.1,0.9-0.1,1.2-0.2C437.1,219.3,437.3,219.3,437.3,219.3z"/>
								</g>
							</g>
						</g>
					</g>
				</g>
			</g>
		</g>
	</g>
	<g>
		<g>
			<path class="st0" d="M303.6,68c1.8-10.4,6.8-25.6,12.7-34.4S331.5,18,342,16.5s22,3.5,26.7,12.9c2.5,5.1,3,10.9,4.8,16.3
				c1.8,5.4,5.9,10.7,11.5,11.1c5,0.4,9.8-3.2,14.7-2.3c6.4,1.2,8.9,9.2,8.9,15.7c0,6.5-0.9,13.8,3.1,18.9c3.3,4.2,8.9,5.7,13.4,8.5
				c9.8,6.1,14,18.8,13,30.3s-6.3,22.2-11.9,32.3c-4.7-16.6-11.1-32.6-19.1-47.9c-4.5-8.7-12.9-16.1-20.2-22.7
				c-11.3-10-36.1-14.8-51-16.6C321.1,71.2,318.5,70.8,303.6,68"/>
		</g>
	</g>
</g>
<g id="Background_Simple" class="st3">
	<g class="st4">
		<path class="st1" d="M91.4,276.9c-5.6-2.6-13.4-1.1-16.8-6.1c-1.6-2.3-1.6-5.4-2.4-8.1c-1.7-5.7-7.4-9.9-13.3-9.8
			c-5.9,0-12.9,4.5-14.6,10.2c-2.6,6.2-1.5,15,1.6,20.9s8.1,10.8,13.6,14.7c5.9,4.1,12.8,7.1,20,7s14.5-3.8,17.7-10.2
			C100.2,288.9,97.9,279.9,91.4,276.9z"/>
	</g>
	<g class="st4">
		<path class="st1" d="M414.9,275.5c-1.3-4.1,1.1-8.5,4-11.6c2.9-3.1,6.6-5.6,8.9-9.2c4.8-7.3,2.9-17.1-0.7-25.1
			c-2.8-6.2-6.4-13.3-3.5-19.4c3.2-6.8,12.8-7.9,19.6-4.8c10.4,4.6,16.7,16.4,16.4,27.8c-0.3,11.4-5.1,24.5-13.6,32.1
			C437.6,272.9,419.8,284.1,414.9,275.5"/>
	</g>
	<g class="st4">
		<path class="st1" d="M294,402.9c-3.9-5.7-1.2-14.7,5.2-17.3c4.6-1.8,10-0.5,14.7-2.1c4.5-1.6,7.7-5.6,11.1-9
			c3.4-3.4,7.9-5.3,12.7-5.3c5.1,0,10.2,3.3,10.8,8.1c0.8,7.1-0.6,11.9-4.7,15.9c-3.1,3.1-8.9,5.9-12.7,7.9c-5.8,3.1-14,5-20.5,6
			C304.2,408.2,298.8,407.3,294,402.9"/>
	</g>
	<circle class="st5" cx="55.6" cy="212.3" r="12.8"/>
	<g class="st4">
		<path class="st1" d="M286.2,107.2c15.1,1.7,36,2.8,49.4-4.6c13.4-7.3,21.8-24.6,15.6-38.6c-3-6.8-9.2-12-16.3-14
			s-15.1-0.5-21.1,3.8c-6.3,4.5-10.4,11.9-17.4,15.3c-4.7,2.3-10.1,2.4-15.3,2.7c-5.2,0.3-10.7,0.9-15,3.8s-7,8.9-4.6,13.6
			C261.4,89.4,264.3,104.8,286.2,107.2z"/>
	</g>
</g>
<g id="Back_Screens">
	<g>
		<g>
			<g>
				<g>
					<g>
						<path class="st6" d="M203.7,80.3c-37.1,2.7-77.6,7.6-107.2,19l9.4,63.4c0,0,57.5-20.6,104.3-19.2L203.7,80.3z"/>
					</g>
				</g>
			</g>
			<g class="st7">
				<g>
					<g>
						<path class="st8" d="M203.7,80.3c-37.1,2.7-77.6,7.6-107.2,19l9.4,63.4c0,0,57.5-20.6,104.3-19.2L203.7,80.3z"/>
					</g>
				</g>
			</g>
		</g>
		<g>
			<g>
				<g>
					<path class="st6" d="M201,135.2c0,0-0.1,0-0.4,0.1c-0.3,0-0.6,0.1-1.1,0.1c-1,0.1-2.3,0.3-4,0.5c-1.8,0.2-3.9,0.5-6.4,0.8
						c-2.5,0.4-5.3,0.7-8.5,1.2c-12.5,1.9-29.7,5.1-48.4,10c-6.5,1.7-12.8,3.4-18.5,5.2l-0.3,0.1l0-0.3c-2-14.5-3.9-27.1-5.4-36
						c-0.8-4.4-1.4-7.9-1.8-10.4c-0.2-1.2-0.4-2.1-0.5-2.8c0-0.3-0.1-0.5-0.1-0.7c0-0.2,0-0.2,0-0.2c0,0,0,0.1,0.1,0.2
						c0,0.2,0.1,0.4,0.2,0.7c0.1,0.7,0.3,1.6,0.6,2.8c0.5,2.4,1.1,5.9,1.9,10.4c1.6,8.9,3.6,21.4,5.6,36l-0.3-0.2
						c5.8-1.8,12-3.6,18.5-5.2c18.7-4.8,36-8,48.5-9.8c3.1-0.5,6-0.8,8.5-1.2c2.5-0.3,4.6-0.6,6.4-0.7c1.7-0.2,3.1-0.3,4.1-0.4
						c0.4,0,0.8-0.1,1.1-0.1C200.9,135.2,201,135.2,201,135.2z"/>
				</g>
			</g>
		</g>
		<g>
			<g>
				<g>
					<path class="st6" d="M202.3,119.8c0,0-0.1-0.4-0.4-1.3c-0.3-0.8-0.9-2-1.9-3.3c-1-1.3-2.5-2.7-4.5-3.9
						c-0.5-0.3-1.1-0.6-1.6-0.9c-0.6-0.2-1.2-0.5-1.8-0.7c-1.3-0.4-2.7-0.6-4.1-0.4c-1.4,0.2-2.9,0.7-4.2,1.7
						c-1.3,0.9-2.4,2.2-3.4,3.7c-1.9,2.9-3.2,6.4-4.7,10.1c-0.8,1.8-1.8,3.7-3.5,5c-0.8,0.7-1.8,1.2-2.9,1.4c-1.1,0.2-2.2,0-3.3-0.4
						c-4.2-1.7-6.1-6.5-10.4-8c-2.1-0.7-4.4-0.4-6.3,0.5c-1,0.5-1.8,1.1-2.5,1.9c-0.7,0.8-1.2,1.7-1.7,2.7c-1,1.9-1.7,4-3.3,5.4
						c-0.8,0.7-1.8,1.2-2.9,1.3c-1.1,0.1-2.1-0.2-3-0.6c-1.8-0.9-3.2-2.5-4.1-4.1c-1-1.6-1.5-3.4-2.2-5c-0.6-1.6-1.3-3.2-2.2-4.5
						c-0.9-1.3-2-2.4-3.3-3.1c-2.6-1.4-5.5-1.2-7.6-0.2c-2.2,0.9-3.8,2.2-4.8,3.5c-1.1,1.3-1.6,2.5-1.8,3.3
						c-0.3,0.8-0.3,1.3-0.3,1.3c0,0,0-0.5,0.2-1.3c0.2-0.8,0.7-2.1,1.8-3.4c1-1.3,2.7-2.7,4.9-3.6c2.1-1,5.2-1.3,7.9,0.2
						c1.4,0.7,2.6,1.8,3.5,3.2c0.9,1.4,1.6,3,2.2,4.6c0.7,1.6,1.3,3.3,2.2,4.9c0.9,1.5,2.3,3,4,3.9c0.8,0.4,1.8,0.7,2.7,0.6
						c1-0.1,1.9-0.5,2.6-1.2c1.5-1.3,2.2-3.4,3.2-5.3c0.5-1,1-1.9,1.7-2.8c0.7-0.9,1.6-1.6,2.7-2.1c2-1,4.5-1.3,6.7-0.5
						c2.3,0.7,3.9,2.5,5.4,4.1c1.5,1.6,3,3.2,5,4c1,0.4,2,0.5,3,0.4c1-0.2,1.9-0.7,2.7-1.3c1.6-1.2,2.6-3,3.4-4.8
						c1.5-3.6,2.8-7.2,4.8-10.1c1-1.5,2.1-2.8,3.5-3.7c1.3-1,2.9-1.5,4.4-1.7c1.5-0.2,3,0,4.3,0.4c0.7,0.2,1.3,0.5,1.8,0.7
						c0.6,0.3,1.1,0.5,1.6,0.9c2,1.3,3.5,2.7,4.5,4.1c1,1.3,1.6,2.5,1.8,3.4c0.1,0.4,0.2,0.7,0.3,1
						C202.3,119.7,202.3,119.8,202.3,119.8z"/>
				</g>
			</g>
		</g>
		<g>
			<g>
				<g>
					<path class="st6" d="M104.1,111.5c0,0.1-0.5,0.4-1.1,0.5c-0.6,0.1-1.1,0.1-1.2,0s0.5-0.4,1.1-0.5
						C103.5,111.3,104,111.3,104.1,111.5z"/>
				</g>
			</g>
		</g>
		<g>
			<g>
				<g>
					<path class="st6" d="M105.7,123c0.1,0.1-0.3,0.4-0.8,0.7c-0.5,0.2-1,0.3-1,0.2s0.3-0.4,0.8-0.7
						C105.2,123,105.6,122.9,105.7,123z"/>
				</g>
			</g>
		</g>
		<g>
			<g>
				<g>
					<path class="st6" d="M107.7,135.7c0,0.1-0.3,0.4-0.8,0.6c-0.5,0.2-1,0.2-1,0.1c0-0.1,0.3-0.4,0.8-0.6
						C107.2,135.6,107.7,135.6,107.7,135.7z"/>
				</g>
			</g>
		</g>
		<g>
			<g>
				<g>
					<path class="st6" d="M110.2,148.1c0,0.1-0.4,0.4-0.9,0.6c-0.6,0.2-1.1,0.2-1.1,0.1c0-0.1,0.4-0.4,0.9-0.6
						C109.7,148,110.2,148,110.2,148.1z"/>
				</g>
			</g>
		</g>
		<g>
			<g>
				<g>
					<g>
						<path class="st6" d="M180.1,88.4c0,0,0.4-0.2,1.2-0.3c0.8-0.1,2-0.3,3.4-0.5c3-0.4,7.2-1,12.3-1.6l0.2,0l0,0.2
							c0.4,4.3,0.8,9.2,1.3,14.4l0,0.2l0,0.3l-0.3,0c-6.1,0.7-11.8,1.4-16.6,2l-0.2,0l0-0.2c-0.5-4.3-0.9-8-1.1-10.6
							c-0.1-1.2-0.2-2.2-0.3-2.9C180.1,88.7,180.1,88.3,180.1,88.4s0.1,0.4,0.2,1.1c0.1,0.7,0.2,1.7,0.4,2.9
							c0.3,2.6,0.8,6.2,1.3,10.5l-0.2-0.2c4.8-0.6,10.5-1.3,16.6-2.1l-0.2,0.3l0-0.2c-0.5-5.2-0.9-10.1-1.3-14.4l0.3,0.2
							C187.6,87.5,182,88.1,180.1,88.4z"/>
					</g>
				</g>
			</g>
			<g>
				<g>
					<g>
						<path class="st6" d="M195.5,90.9c0,0.2-2.9,0.2-6.3,0.5c-3.5,0.4-6.3,1-6.3,0.8c0-0.1,2.7-1,6.3-1.3
							C192.6,90.5,195.5,90.7,195.5,90.9z"/>
					</g>
				</g>
			</g>
			<g>
				<g>
					<g>
						<path class="st6" d="M195.7,94.6c0,0.2-2.7,0.3-5.9,0.6c-3.3,0.3-5.9,0.7-5.9,0.6c0-0.1,2.6-0.8,5.9-1.1
							C193,94.3,195.7,94.5,195.7,94.6z"/>
					</g>
				</g>
			</g>
			<g>
				<g>
					<g>
						<path class="st6" d="M191.7,97.8c0,0.1-1.5,0.5-3.4,0.7c-1.9,0.2-3.4,0.3-3.4,0.2c0-0.1,1.5-0.5,3.4-0.7
							C190.2,97.8,191.7,97.7,191.7,97.8z"/>
					</g>
				</g>
			</g>
		</g>
	</g>
	<g>
		<g>
			<g>
				<g>
					<g>
						<path class="st6" d="M384.4,99c-36.3-11.1-66.9-20.5-108-20.2l-6.3,64.6c42.7,3.8,57,6.6,96.4,20.8L384.4,99z"/>
					</g>
				</g>
			</g>
			<g class="st7">
				<g>
					<g>
						<path class="st8" d="M384.4,99c-36.3-11.1-66.9-20.5-108-20.2l-6.3,64.6c42.7,3.8,57,6.6,96.4,20.8L384.4,99z"/>
					</g>
				</g>
			</g>
		</g>
		<g>
			<g>
				<g>
					<g>
						<g>
							<g>
								<g>
									<path class="st6" d="M302.2,110.1l1.6-13.7c-3.8-0.4-7.9,0.7-11.2,3.1c-3.9,2.9-6.8,7.5-6.9,13.6c0,0.7,0,1.3,0.1,2
										c0,0,0,0,0,0h0l16-1.8L302.2,110.1z"/>
								</g>
							</g>
						</g>
					</g>
					<g>
						<g>
							<g>
								<g>
									<path class="st6" d="M318.8,107.8c-1.6-5.1-5.4-9.5-11.4-10.9c-0.2,0-0.3-0.1-0.5-0.1c-0.1,0-0.2,0-0.3-0.1
										c-0.3-0.1-0.6-0.1-0.9-0.1c0,0,0,0,0,0c0,0,0,0,0,0c0,0,0,0,0,0v0l0,0l-1.6,13.7l-0.4,3.2l15.1,5.5l0,0l0,0
										c0.4-1.1,0.6-2.3,0.8-3.5C319.8,113,319.6,110.3,318.8,107.8z"/>
								</g>
							</g>
						</g>
					</g>
					<g class="st9">
						<g>
							<g>
								<g>
									<path d="M318.8,107.8c-1.6-5.1-5.4-9.5-11.4-10.9c-0.2,0-0.3-0.1-0.5-0.1c-0.1,0-0.2,0-0.3-0.1c-0.3-0.1-0.6-0.1-0.9-0.1
										c0,0,0,0,0,0c0,0,0,0,0,0c0,0,0,0,0,0v0l0,0l-1.6,13.7l-0.4,3.2l15.1,5.5l0,0l0,0c0.4-1.1,0.6-2.3,0.8-3.5
										C319.8,113,319.6,110.3,318.8,107.8z"/>
								</g>
							</g>
						</g>
					</g>
				</g>
				<g>
					<g>
						<g>
							<g>
								<path class="st6" d="M302.5,115.1l-16,1.8c0.7,7.8,6.3,14.2,13.9,15.1c7.6,0.9,14.7-4,17.2-11.4L302.5,115.1"/>
							</g>
						</g>
					</g>
				</g>
			</g>
		</g>
		<g>
			<g>
				<g>
					<path class="st6" d="M370.4,111.3c0,0-0.5-0.2-1.4-0.6c-0.9-0.4-2.2-1-3.8-1.6c-3.2-1.4-7.8-3.1-12.9-4.5
						c-5.1-1.5-9.9-2.4-13.3-3c-1.7-0.3-3.1-0.5-4.1-0.6c-1-0.1-1.5-0.2-1.5-0.3c0,0,0.5,0,1.5,0.1c1,0.1,2.4,0.2,4.1,0.4
						c3.5,0.5,8.3,1.3,13.4,2.8c5.2,1.5,9.7,3.2,12.9,4.7c1.6,0.7,2.9,1.3,3.7,1.8C369.9,111,370.4,111.2,370.4,111.3z"/>
				</g>
			</g>
		</g>
		<g>
			<g>
				<g>
					<path class="st6" d="M369.3,118c0,0-0.5-0.2-1.4-0.6c-0.9-0.4-2.2-1-3.8-1.6c-3.2-1.4-7.8-3.1-12.9-4.5
						c-5.1-1.5-9.9-2.4-13.3-3c-1.7-0.3-3.1-0.5-4.1-0.6c-1-0.1-1.5-0.2-1.5-0.3c0,0,0.5,0,1.5,0.1c1,0.1,2.4,0.2,4.1,0.4
						c3.5,0.5,8.3,1.3,13.4,2.8c5.2,1.5,9.7,3.2,12.9,4.7c1.6,0.7,2.9,1.3,3.7,1.8C368.8,117.7,369.3,118,369.3,118z"/>
				</g>
			</g>
		</g>
		<g>
			<g>
				<g>
					<path class="st6" d="M368.2,124.8c0,0-0.5-0.2-1.4-0.6c-0.9-0.4-2.2-1-3.8-1.6c-3.2-1.4-7.8-3.1-12.9-4.5
						c-5.1-1.5-9.9-2.4-13.3-3c-1.7-0.3-3.1-0.5-4.1-0.6c-1-0.1-1.5-0.2-1.5-0.3c0,0,0.5,0,1.5,0.1c1,0.1,2.4,0.2,4.1,0.4
						c3.5,0.5,8.3,1.3,13.4,2.8c5.2,1.5,9.7,3.2,12.9,4.7c1.6,0.7,2.9,1.3,3.7,1.8C367.7,124.5,368.2,124.7,368.2,124.8z"/>
				</g>
			</g>
		</g>
		<g>
			<g>
				<g>
					<path class="st6" d="M366,131.5c0,0-0.5-0.2-1.4-0.6c-0.9-0.4-2.1-1-3.7-1.6c-3.1-1.3-7.5-3.1-12.5-4.5c-5-1.5-9.6-2.4-13-3
						c-1.7-0.3-3-0.5-4-0.6c-0.9-0.1-1.5-0.2-1.5-0.3c0,0,0.5,0,1.5,0.1c1,0.1,2.3,0.2,4,0.4c3.4,0.5,8,1.4,13,2.8
						c5,1.5,9.4,3.2,12.5,4.7c1.5,0.7,2.8,1.3,3.6,1.8C365.6,131.2,366,131.5,366,131.5z"/>
				</g>
			</g>
		</g>
		<g>
			<g>
				<g>
					<path class="st6" d="M361.2,136.9c0,0-0.5-0.1-1.2-0.5c-0.9-0.4-2-0.9-3.3-1.5c-2.8-1.2-6.7-2.8-11.2-4.1
						c-4.5-1.3-8.6-2-11.7-2.4c-1.4-0.2-2.6-0.4-3.6-0.5c-0.8-0.1-1.3-0.2-1.3-0.2c0,0,0.5,0,1.3,0c0.9,0,2.1,0.2,3.6,0.3
						c3,0.4,7.2,1,11.8,2.3c4.5,1.3,8.4,3,11.2,4.3c1.4,0.7,2.5,1.2,3.2,1.6C360.8,136.6,361.2,136.9,361.2,136.9z"/>
				</g>
			</g>
		</g>
		<g>
			<g>
				<g>
					<path class="st6" d="M345.1,137.7c0,0.1-1-0.2-2.6-0.5c-1.6-0.4-3.8-0.8-6.2-1.3c-2.4-0.4-4.7-0.7-6.3-1
						c-1.6-0.2-2.6-0.4-2.6-0.5c0-0.1,1,0,2.6,0.1c1.6,0.1,3.9,0.4,6.3,0.8c2.5,0.4,4.7,1,6.2,1.4
						C344.2,137.2,345.1,137.6,345.1,137.7z"/>
				</g>
			</g>
		</g>
		<g>
			<g>
				<g>
					<path class="st6" d="M282.7,86.4c0,0,0.3,0,0.8,0c0.6,0,1.4,0,2.5-0.1c2.2-0.1,5.4,0,9.5,0.2c8.1,0.5,19.8,1.9,33.3,6l0.2,0.1
						l0,0.2c-2.5,14.3-5.5,31.4-8.7,49.6c-0.1,0.7-0.3,1.5-0.4,2.2l0,0.3l-0.3-0.1c-7.6-2-15.1-3.5-22.2-4.6
						c-7.2-1.1-14-1.9-20.4-2.3l-0.2,0l0-0.2c1.8-15.3,3.2-28.1,4.2-37.1c0.5-4.5,0.9-8,1.2-10.4c0.1-1.2,0.3-2.1,0.3-2.7
						c0-0.3,0.1-0.5,0.1-0.7C282.7,86.4,282.7,86.4,282.7,86.4s0,0.1,0,0.3c0,0.2,0,0.4-0.1,0.7c-0.1,0.7-0.2,1.6-0.3,2.8
						c-0.3,2.4-0.6,6-1.1,10.5c-1,9-2.4,21.8-4,37l-0.2-0.3c6.4,0.4,13.3,1.2,20.4,2.2c7.2,1.1,14.7,2.6,22.3,4.6l-0.3,0.2
						c0.1-0.7,0.3-1.5,0.4-2.2c3.2-18.2,6.2-35.2,8.7-49.6l0.1,0.2c-13.4-4.1-25.1-5.5-33.2-6.1c-4.1-0.3-7.3-0.3-9.4-0.3
						c-1.1,0-1.9,0-2.5,0C283,86.4,282.7,86.4,282.7,86.4z"/>
				</g>
			</g>
		</g>
	</g>
</g>
<g id="Character">
	<g>
		<g>
			<g>
				<polyline class="st6" points="243,218.4 278.4,226.3 283.9,218.4 283,208.3 277.6,203.4 259.1,203.4 241.7,219 				"/>
			</g>
		</g>
		<g class="st9">
			<g>
				<polyline points="243,218.4 278.4,226.3 283.9,218.4 283,208.3 277.6,203.4 259.1,203.4 241.7,219 				"/>
			</g>
		</g>
		<g>
			<g>
				<g>
					<g>
						<g>
							<g>
								<g>
									<g>
										<g>
											<g>
												<g>
													<path class="st10" d="M297,145.5l44.7-6l7-2c0,0,16.1-3.5,17.6-4.1c1.7-0.6,2.5,0.1,2.6,0.7c0.3,1-0.7,2.2-2.2,2.7
														c-0.5,0.2-8.7,3-8.7,3s0.8,0.1,2.8,0.8c2,0.7,3.8,3.2,4.8,6.1c0.9,2.9,0.9,3.8-0.2,4.3c-0.5,0.2-0.9,0-1.3-0.2
														c-0.6-0.4-1.1-1-1.3-1.7c-1.6-4.7-4.5-5.1-4.5-5.1l-0.9,0.3c0,0,3,2.1,3,4.7c0,0.4-0.1,0.8-0.2,1.1
														c0.4,1.2,0.2,2.7-0.6,3.7c-0.9,1.1-2.3,1.6-3.7,1.4c-0.6-0.1-1.3-0.5-1.4-1.1c0-0.3,0.1-0.7,0.2-1
														c0.1-0.2,0.1-0.3,0.2-0.5l-2.7,0.4c0,0-6.1,0.5-8.7,1l-41.8,12.6c-5.8,1.7-11.9-1.6-13.6-7.4l0,0
														C286.3,152.9,290.5,146.4,297,145.5z"/>
												</g>
											</g>
										</g>
									</g>
								</g>
							</g>
						</g>
					</g>
				</g>
				<g>
					<g>
						<g>
							<g>
								<g>
									<g>
										<g>
											<g>
												<g>
													<g>
														<path class="st10" d="M342.7,140.7c0.1,0.9,1,1.6,1.9,1.8c0.9,0.2,1.9,0.1,2.8,0.2c2.8,0.4,4.9,2.9,7.7,3.1
															c0.4,0,0.9,0,1-0.4c0.1-0.3-0.2-0.7-0.5-0.9c-2.3-2.1-4.6-4.1-7-6.2"/>
													</g>
												</g>
											</g>
										</g>
									</g>
								</g>
							</g>
						</g>
					</g>
					<g>
						<g>
							<g>
								<g>
									<g>
										<g>
											<g>
												<g>
													<g>
														<g>
															<path class="st11" d="M348.8,138.3c0,0,0.3,0.2,0.8,0.6c0.5,0.4,1.2,1,2.1,1.8c0.9,0.8,2,1.7,3.1,2.7
																c0.3,0.3,0.6,0.5,0.9,0.8c0.3,0.3,0.7,0.5,0.8,1.1c0,0.3-0.2,0.6-0.5,0.7c-0.3,0.1-0.5,0.1-0.8,0.1
																c-0.5,0-0.9-0.1-1.3-0.3c-1.8-0.6-3.1-1.6-4.5-2.3c-0.7-0.3-1.3-0.6-2-0.7c-0.6-0.1-1.3-0.1-1.9-0.1
																c-1.2,0-2.2-0.5-2.5-1.1c-0.4-0.6-0.3-1-0.3-1c0.1,0,0,0.4,0.5,0.8c0.4,0.5,1.3,0.9,2.4,0.9c0.6,0,1.2,0,1.9,0.1
																c0.7,0.1,1.4,0.3,2.1,0.7c1.4,0.6,2.8,1.7,4.4,2.2c0.4,0.1,0.8,0.2,1.2,0.2c0.4,0,0.7-0.1,0.7-0.3
																c0-0.2-0.3-0.5-0.6-0.8c-0.3-0.3-0.6-0.5-0.9-0.8c-1.1-1-2.1-1.9-3-2.7c-0.9-0.8-1.5-1.4-2-1.9
																C349,138.6,348.8,138.3,348.8,138.3z"/>
														</g>
													</g>
												</g>
											</g>
										</g>
									</g>
								</g>
							</g>
						</g>
					</g>
				</g>
				<g>
					<g>
						<g>
							<g>
								<g>
									<g>
										<g>
											<g>
												<g>
													<g>
														<path class="st11" d="M357.4,144.4c0,0.1,0.7-0.3,1.8,0c0.5,0.1,1.1,0.5,1.5,1.1c0.5,0.6,0.8,1.3,1.1,2.1
															c0.3,0.8,0.6,1.6,1,2.2c0.4,0.6,0.9,1.1,1.5,1.4c0.5,0.3,1.1,0.2,1.4,0c0.3-0.2,0.4-0.3,0.4-0.3c0,0-0.2,0.1-0.4,0.2
															c-0.3,0.1-0.7,0.1-1.2-0.1c-0.5-0.3-0.9-0.7-1.3-1.4c-0.4-0.6-0.7-1.4-1-2.2c-0.3-0.8-0.7-1.6-1.2-2.2
															c-0.5-0.6-1.1-1-1.7-1.1c-0.6-0.1-1.1,0-1.4,0C357.5,144.3,357.3,144.4,357.4,144.4z"/>
													</g>
												</g>
											</g>
										</g>
									</g>
								</g>
							</g>
						</g>
					</g>
				</g>
				<g>
					<g>
						<g>
							<g>
								<g>
									<g>
										<g>
											<g>
												<g>
													<g>
														<path class="st11" d="M367.4,136.7c0,0-0.6,0.2-1.6,0.6c-1.1,0.4-2.4,0.9-3.9,1.4c-1.5,0.5-2.8,1-3.9,1.4
															c-1,0.3-1.6,0.6-1.6,0.6c0,0,0.7-0.1,1.7-0.4c1-0.3,2.4-0.7,3.9-1.3c1.5-0.5,2.9-1.1,3.9-1.5
															C366.8,137,367.4,136.7,367.4,136.7z"/>
													</g>
												</g>
											</g>
										</g>
									</g>
								</g>
							</g>
						</g>
					</g>
				</g>
				<g>
					<g>
						<g>
							<g>
								<g>
									<g>
										<g>
											<g>
												<g>
													<g>
														<path class="st11" d="M356.2,146.9c0,0,0.1,0.2,0.4,0.4c0.2,0.2,0.6,0.7,0.5,1.2c0,0.3-0.2,0.5-0.5,0.7
															c-0.3,0.2-0.7,0.2-1.1,0.3c-0.4,0.1-0.9,0.2-1.2,0.6c-0.3,0.4-0.4,1-0.2,1.5c0.2,0.5,0.6,0.9,1,1.1
															c0.4,0.2,0.9,0.3,1.3,0.2c0.8-0.2,1.5-0.5,2.1-0.8c0.6-0.3,1-0.6,1.2-0.9c0.2-0.3,0.3-0.5,0.3-0.5
															c0,0-0.1,0.1-0.4,0.4c-0.3,0.2-0.7,0.5-1.2,0.8c-0.5,0.3-1.2,0.5-2,0.7c-0.7,0.1-1.7-0.3-2-1.1
															c-0.1-0.4-0.1-0.9,0.1-1.2c0.2-0.3,0.6-0.4,1-0.5c0.4-0.1,0.8-0.2,1.1-0.4c0.4-0.2,0.6-0.5,0.6-0.9
															c0-0.7-0.4-1.1-0.7-1.4C356.3,147,356.2,146.9,356.2,146.9z"/>
													</g>
												</g>
											</g>
										</g>
									</g>
								</g>
							</g>
						</g>
					</g>
				</g>
				<g>
					<g>
						<g>
							<g>
								<g>
									<g>
										<g>
											<g>
												<g>
													<g>
														<path class="st11" d="M355.2,152.5c0,0-0.2,0-0.4,0.2c-0.2,0.2-0.5,0.6-0.5,1.2c0,0.6,0.5,1.3,1.2,1.6
															c0.7,0.3,1.6,0.3,2.4,0c0.8-0.3,1.5-0.8,1.9-1.5c0.4-0.6,0.6-1.3,0.6-1.9c0-0.6-0.1-1-0.1-1.3
															c-0.1-0.3-0.2-0.4-0.2-0.4c-0.1,0,0.2,0.7,0.1,1.7c-0.1,0.5-0.3,1.1-0.7,1.7c-0.4,0.6-1,1.1-1.8,1.3
															c-0.8,0.3-1.6,0.3-2.2,0c-0.6-0.3-1-0.8-1.1-1.3c-0.1-0.5,0.2-0.9,0.4-1.1C355.1,152.5,355.2,152.5,355.2,152.5z"/>
													</g>
												</g>
											</g>
										</g>
									</g>
								</g>
							</g>
						</g>
					</g>
				</g>
				<g>
					<g>
						<g>
							<g>
								<g>
									<g>
										<g>
											<g>
												<g>
													<g>
														<path class="st11" d="M347.8,148.8c0,0,0-0.3-0.3-0.8c-0.3-0.4-0.8-1-1.6-1.3l0,0.3c0.3-0.2,0.7-0.3,1-0.6
															c1.9-1.2,2.9-2.9,2.8-2.9c-0.1-0.1-1.1,1.4-3,2.6c-0.3,0.2-0.7,0.4-1,0.6l-0.3,0.2l0.4,0.1c0.7,0.3,1.3,0.8,1.6,1.1
															C347.6,148.5,347.7,148.8,347.8,148.8z"/>
													</g>
												</g>
											</g>
										</g>
									</g>
								</g>
							</g>
						</g>
					</g>
				</g>
				<g>
					<g>
						<g>
							<g>
								<g>
									<g>
										<g>
											<g>
												<g>
													<g>
														<path class="st11" d="M361.7,144c-0.1-0.1-0.5,0.5-0.6,1.3c-0.1,0.8,0.3,1.4,0.4,1.4c0.1,0-0.1-0.6-0.1-1.3
															C361.5,144.6,361.8,144.1,361.7,144z"/>
													</g>
												</g>
											</g>
										</g>
									</g>
								</g>
							</g>
						</g>
					</g>
				</g>
			</g>
		</g>
		<g>
			<g>
				<g>
					<g>
						<g>
							<path class="st10" d="M153.2,159.6c0,0-6.5-10.6-7.7-11.5c-1.2-0.9-11.5-4.7-12.4-4.4c-0.9,0.3-13.4,2.4-12,3.9
								c1.4,1.5,10.2-0.1,10.2-0.1l1.2,0.6c0,0-7.5,1.2-9.1,2.1c-1.5,0.8-1,2.6,0.4,2.5s7.9-1.4,8.3-1.1s-7.1,1.8-7.9,2.2
								c-1.1,0.6-1.2,2.6,0.2,2.5c0.8-0.1,7.9-1.9,7.9-1.9s-5.6,2.2-6.1,2.7c-0.8,0.8-0.2,2,1,1.8c0.8-0.2,4.8-2.1,5.9-2.3
								c0,0,1,0.3,2,2.4c0.4,1,2.5,7.2,6.2,7.1c3.3-0.1,6.5,2.6,6.5,2.6L153.2,159.6z"/>
						</g>
					</g>
				</g>
				<g>
					<g>
						<g>
							<g>
								<path class="st11" d="M121.2,147.6c0,0.1,0.8,0.4,2.3,0.6c0.7,0.1,1.6,0.2,2.6,0.1c1-0.1,2-0.3,3.1-0.4
									c0.8-0.1,1.6-0.2,2.3-0.3l-0.1,0c3.1,1.1,5.4,1.8,5.4,1.7c0-0.1-2.1-1.1-5.2-2.2l-0.1,0l-0.1,0c-0.7,0.1-1.5,0.2-2.3,0.3
									c-1.1,0.2-2.1,0.3-3.1,0.4c-0.9,0.1-1.8,0.1-2.5,0C122.1,147.7,121.2,147.5,121.2,147.6z"/>
							</g>
						</g>
					</g>
				</g>
			</g>
			<g>
				<g>
					<g>
						<g>
							<g>
								<path class="st10" d="M148.3,158.3c-0.8,0.7-2,0.5-2.9,0s-1.6-1.4-2.4-2c-2.5-1.8-6.2-1.4-8.7-3.3c-0.3-0.3-0.7-0.7-0.5-1.1
									c0.2-0.4,0.7-0.4,1.1-0.4c3.4,0.1,6.9,0.2,10.3,0.2"/>
							</g>
						</g>
					</g>
					<g>
						<g>
							<g>
								<g>
									<path class="st11" d="M145.2,151.8c0,0-0.4-0.1-1.1-0.1c-0.7-0.1-1.8-0.1-3-0.2c-1.3-0.1-2.9-0.1-4.5-0.2
										c-0.4,0-0.9,0-1.3,0c-0.4,0-1-0.1-1.5,0.3c-0.3,0.2-0.3,0.7-0.2,1c0.1,0.3,0.3,0.5,0.5,0.7c0.4,0.3,0.8,0.6,1.3,0.8
										c1.9,0.9,3.8,1,5.3,1.5c0.8,0.2,1.5,0.6,2.1,1c0.6,0.4,1.1,0.9,1.6,1.3c1,0.9,2.2,1.2,2.9,1c0.8-0.1,1-0.6,1-0.6
										c0-0.1-0.3,0.3-1,0.3c-0.7,0.1-1.7-0.2-2.6-1.1c-0.5-0.4-1-0.9-1.6-1.4s-1.4-0.8-2.2-1.1c-1.6-0.6-3.5-0.7-5.3-1.5
										c-0.4-0.2-0.8-0.5-1.2-0.7c-0.3-0.3-0.5-0.6-0.3-0.8c0.2-0.2,0.6-0.2,1.1-0.2c0.4,0,0.9,0,1.3,0c1.7,0,3.2,0,4.5,0
										c1.3,0,2.3,0,3,0C144.8,151.9,145.2,151.9,145.2,151.8z"/>
								</g>
							</g>
						</g>
					</g>
				</g>
			</g>
		</g>
		<g>
			<g>
				<g>
					<g>
						<g>
							<path class="st6" d="M204,393.8l-2.4,26.2l-7.9,20.2c-0.6,1.5,0.2,3.1,1.7,3.6l0,0c0.8,0.3,1.7,0.1,2.4-0.4
								c4.4-3.4,20.7-15.9,20.7-17.8c0.1-2.2,4.4-27.5,4.4-27.5L204,393.8z"/>
						</g>
					</g>
				</g>
			</g>
			<g class="st12">
				<g>
					<g>
						<g>
							<path class="st8" d="M195.5,443.8l23.4-20l-0.1,1.1c-0.1,1-0.6,1.8-1.3,2.5c-1.9,1.8-7.2,6.5-19.5,16
								C197.3,443.9,196.3,444.1,195.5,443.8L195.5,443.8z"/>
						</g>
					</g>
				</g>
			</g>
			<g class="st12">
				<g>
					<g>
						<g>
							<g>
								<path class="st8" d="M214.4,414.7c-0.7,0.4-1,1.3-0.7,2.1s1.3,1.1,2,0.7c0.7-0.4,1.1-1.5,0.7-2.2s-1.6-1-2.2-0.5"/>
							</g>
						</g>
					</g>
				</g>
			</g>
			<g>
				<g>
					<g>
						<g>
							<g>
								<path class="st13" d="M202.8,433c-0.2,0.1-0.6-1.4-2.1-2.3c-1.4-1-2.9-0.8-2.9-0.9c0-0.1,0.3-0.2,1-0.2
									c0.6,0,1.5,0.2,2.3,0.7c0.8,0.5,1.3,1.2,1.6,1.8C202.8,432.6,202.8,433,202.8,433z"/>
							</g>
						</g>
					</g>
				</g>
			</g>
			<g>
				<g>
					<g>
						<g>
							<g>
								<path class="st13" d="M200.5,436.3c-0.1,0.1-0.9-0.8-2.2-1.4c-1.3-0.6-2.5-0.5-2.5-0.6c-0.1-0.1,1.3-0.6,2.7,0.1
									C200,435,200.6,436.3,200.5,436.3z"/>
							</g>
						</g>
					</g>
				</g>
			</g>
			<g>
				<g>
					<g>
						<g>
							<g>
								<path class="st13" d="M206.7,428.9c-0.1,0.1-1.3-1.4-3.2-2.4c-1.9-1.1-3.8-1.2-3.8-1.3c0-0.1,2-0.3,4.1,0.8
									C205.9,427.1,206.9,428.9,206.7,428.9z"/>
							</g>
						</g>
					</g>
				</g>
			</g>
			<g>
				<g>
					<g>
						<g>
							<g>
								<path class="st13" d="M208.1,421c-0.1,0.1-1.5-0.6-3.3-0.9c-1.9-0.3-3.4,0-3.5-0.2c-0.1-0.1,1.5-0.7,3.5-0.4
									C206.9,419.8,208.2,420.9,208.1,421z"/>
							</g>
						</g>
					</g>
				</g>
			</g>
			<g>
				<g>
					<g>
						<g>
							<g>
								<path class="st13" d="M209,413.3c-0.1,0.1-1.5-0.9-3.4-1c-2-0.2-3.5,0.6-3.6,0.5c0-0.1,0.3-0.4,0.9-0.6
									c0.6-0.3,1.6-0.5,2.7-0.4c1.1,0.1,2,0.5,2.6,0.8C208.8,412.9,209.1,413.3,209,413.3z"/>
							</g>
						</g>
					</g>
				</g>
			</g>
			<g>
				<g>
					<g>
						<g>
							<g>
								<path class="st13" d="M205.8,410.8c0,0-0.1-0.4,0.1-1c0.1-0.6,0.4-1.5,1.1-2.5c0.3-0.5,0.7-1,1.5-1.3c0.4-0.1,0.9,0,1.2,0.4
									c0.3,0.4,0.3,0.8,0.3,1.2c-0.2,1.7-1.8,3.1-3.7,3.1c-1.9,0-3.5-1.3-4.1-2.8c-0.1-0.4-0.2-0.9,0.1-1.3
									c0.3-0.4,0.8-0.5,1.2-0.4c0.8,0.2,1.2,0.7,1.6,1.1c0.8,0.8,1.3,1.7,1.6,2.2c0.3,0.6,0.3,0.9,0.3,1c-0.1,0.1-0.5-1.4-2.1-2.9
									c-0.4-0.4-0.9-0.8-1.4-0.9c-0.3-0.1-0.5,0-0.6,0.2c-0.1,0.2-0.1,0.5,0,0.8c0.5,1.2,1.9,2.4,3.5,2.4c1.6,0,3-1.3,3.2-2.6
									c0-0.3,0-0.7-0.2-0.9c-0.1-0.2-0.4-0.3-0.7-0.2c-0.5,0.1-0.9,0.7-1.3,1.1C206,409.4,205.9,410.9,205.8,410.8z"/>
							</g>
						</g>
					</g>
				</g>
			</g>
		</g>
		<g>
			<g>
				<g>
					<path class="st13" d="M228.1,409.2l19.6-155.5l-6.3-36.1l-37,2l-4.6,186.8c0,1.4,0.9,2.6,2.3,2.9l21.6,3.3
						C225.9,412.8,227.9,411.3,228.1,409.2z"/>
				</g>
			</g>
			<g>
				<g>
					<path class="st13" d="M247.2,258.9l35.7,35.3l-51.4,12.5l3.7,25.9l69.5-9.5c5.9-0.8,11.3-4,14.8-8.9l0,0
						c5.4-7.5,5.5-17.5,0.3-25.1l-54.2-79.5l-24.2,7.9L247.2,258.9z"/>
				</g>
			</g>
			<g>
				<g>
					<g>
						<path class="st14" d="M245.2,249.9c0.1,0,0.7,2,1.2,4.4c0.5,2.5,0.9,4.5,0.7,4.6s-0.7-2-1.2-4.4
							C245.4,252,245.1,250,245.2,249.9z"/>
					</g>
				</g>
			</g>
			<g>
				<g>
					<g>
						<path class="st14" d="M240,310c0,0,0.3-0.1,0.8-0.3c0.6-0.2,1.4-0.4,2.5-0.8c2.2-0.7,5.4-1.7,9.6-2.9
							c8.3-2.5,20.3-6.1,34.9-10.5l-0.1,0.3c-12.1-12.9-26.8-28.5-42.9-45.6l0.4-0.1c-0.8,7.2-1.7,14.7-2.6,22.3
							c-4.4,37-8.6,70.5-11.8,94.7c-1.6,12.1-3,21.9-4,28.7c-0.6,3.4-0.9,6-1.3,7.8c-0.2,0.9-0.3,1.5-0.4,2
							c-0.1,0.5-0.2,0.7-0.2,0.7s0-0.2,0.1-0.7c0.1-0.5,0.2-1.1,0.4-2c0.4-1.8,0.7-4.4,1.2-7.8c1-6.8,2.3-16.6,3.9-28.7
							c3.1-24.2,7.2-57.7,11.6-94.8c0.9-7.6,1.8-15.1,2.6-22.3l0.1-0.5l0.4,0.4c16.1,17.2,30.7,32.8,42.8,45.7l0.2,0.2l-0.3,0.1
							c-14.6,4.3-26.6,7.9-34.9,10.3c-4.1,1.2-7.4,2.2-9.6,2.8c-1.1,0.3-1.9,0.6-2.5,0.7C240.3,310,240,310,240,310z"/>
					</g>
				</g>
			</g>
			<g>
				<g>
					<g>
						<path class="st14" d="M228.5,406.2c-0.1,0,3.9-33,9.1-73.7c5.2-40.7,9.5-73.6,9.6-73.6c0.1,0-3.9,33-9.1,73.7
							C232.9,373.3,228.6,406.3,228.5,406.2z"/>
					</g>
				</g>
			</g>
			<g>
				<g>
					<g>
						<path class="st14" d="M241.4,233.5c0.1,0,0.4,0.9,0.8,2.4c0.4,1.5,1,3.6,1.5,6c0.5,2.3,0.9,4.5,1.1,6c0.2,1.6,0.3,2.5,0.3,2.5
							c-0.1,0-0.3-0.9-0.6-2.5c-0.4-1.7-0.8-3.7-1.3-6c-0.5-2.2-1-4.3-1.3-6C241.5,234.5,241.3,233.5,241.4,233.5z"/>
					</g>
				</g>
			</g>
			<g>
				<g>
					<g>
						<path class="st14" d="M243.7,230.4c-0.1,0,0.5-0.5,1.4-0.2c0.4,0.2,1,0.6,1.1,1.3c0.1,0.6-0.1,1.5-0.8,1.9
							c-0.7,0.4-1.5,0.2-2.1-0.2c-0.5-0.4-0.6-1.2-0.5-1.6c0.1-0.5,0.4-0.8,0.7-0.9c0.2-0.1,0.4-0.1,0.4-0.1c0,0.1-0.5,0.3-0.7,1.1
							c-0.1,0.4,0,0.9,0.4,1.2c0.4,0.3,1,0.4,1.5,0.1c0.5-0.3,0.7-0.9,0.6-1.4c-0.1-0.5-0.4-0.8-0.8-1
							C244.3,230.3,243.7,230.5,243.7,230.4z"/>
					</g>
				</g>
			</g>
			<g>
				<g>
					<g>
						<path class="st14" d="M293.4,300.3c-0.1,0.1-2.1-1.7-5-3.4c-2.9-1.7-5.5-2.5-5.4-2.7c0-0.1,2.8,0.5,5.7,2.2
							C291.6,298.2,293.5,300.2,293.4,300.3z"/>
					</g>
				</g>
			</g>
		</g>
		<g>
			<g>
				<g>
					<path class="st6" d="M216.3,111.6l-20.5,9.9l8.8,61.7l-3.5,27.7c-0.4,3.6,0.9,7.1,3.6,9.5l0,0l33.1-0.7L261,207l10.6-1.8
						l-4.4-21.1l2-29.9l24.2,12.9c1.9,1,4,1.3,6.1,0.7l44.4-11.5l-2.3-17.1l-40.2,4.5l-30.6-27.1l-22.8-5.1l-4.1-6.7h-23.3l-1.6,1.2
						c-0.8,0.6-1.4,1.4-1.7,2.3L216.3,111.6z"/>
				</g>
			</g>
			<g>
				<g>
					<g>
						<path class="st6" d="M195.8,121.5c0,0-6.7,4.3-9.2,12c-2.3,7.3-7.6,36.7-7.6,36.7l-23.3-14.5l-13.4,14.1l31.1,27.4
							c4.8,4.2,11.6,5.1,17.3,2.4l0,0c4.8-2.3,8.1-6.8,8.8-12.1l3.8-27.9L195.8,121.5z"/>
					</g>
				</g>
				<g>
					<g>
						<polygon class="st10" points="265.7,209.7 264.3,207.6 248.9,210.4 246.1,216.9 						"/>
					</g>
				</g>
				<g>
					<g>
						<path class="st6" d="M204.7,220.4c13.7,5.5,28.3,3.5,41.4-3.4c3.9-2.1,7.6-4.7,11.5-6.7c4-2.1,8.3-3.6,12.8-3.3
							s8.9,2.8,10.7,6.9c1.8,4.1,0,9.6-4.2,11.2c0.5,0.4,1,0.9,1.5,1.3c6.1-2.9,9.1-11.1,6.1-17.2c-2.3-4.7-7.1-7.4-10.7-11.3
							c-5.2-5.6-5.8-16.4-5.8-24.9"/>
					</g>
				</g>
				<g>
					<g>
						<g>
							<path class="st13" d="M234.8,123.5c0,0-0.4,0-1,0.1c-0.6,0.1-1.6,0.2-2.4,1.1c-0.8,0.9-1.2,2.3-1.2,3.9
								c0,1.6,0.3,3.5,1.1,5.2l0.4,0.9l-0.8-0.6c-1.7-1.3-3.5-2.8-5.2-4.6c-4-4.1-6.6-8.7-7.9-12.2c-0.7-1.7-1.1-3.2-1.3-4.2
								c-0.2-1-0.3-1.6-0.2-1.6c0.1,0,0.4,2.3,1.9,5.7c1.4,3.4,4.1,7.9,8,11.9c1.7,1.7,3.4,3.3,5.1,4.5l-0.4,0.3
								c-0.4-0.9-0.7-1.9-0.9-2.8c-0.2-0.9-0.3-1.8-0.2-2.7c0-1.7,0.5-3.2,1.4-4.1c0.9-0.9,2-1,2.6-1.1
								C234.4,123.5,234.8,123.5,234.8,123.5z"/>
						</g>
					</g>
				</g>
				<g>
					<g>
						<g>
							<path class="st6" d="M236,123.5c1.7-0.7,4.2,0.3,5.4,1.7c0.8,0.9,1.3,2.2,2.3,2.8c1.1,0.6,4.4,1.1,5.4,0.3c0,0,0.6-2.8,0.9-4
								c1.2-4.7,1.8-8.9,2.3-13.7c-3.2-1.6-2.3-3.6-8.1-3.2c0,0,1.5,4.3,0.2,8.2"/>
						</g>
					</g>
					<g>
						<g>
							<g>
								<path class="st13" d="M244.3,115.6c-0.1,0,0.2-0.8,0.3-2.2c0.1-1.4,0-3.5-0.7-5.9l-0.1-0.2l0.2,0c1.3-0.1,2.8-0.2,4.3,0.4
									c0.8,0.3,1.4,0.9,2,1.4c0.6,0.5,1.2,1,2,1.4l0.2,0.1l0,0.2c-0.3,2.4-0.6,5.1-1,7.8c-0.3,1.8-0.7,3.5-1.1,5.2
									c-0.4,1.7-0.7,3.2-1.1,4.7l0,0.1l-0.1,0c-0.6,0.4-1.2,0.4-1.7,0.4c-0.6,0-1.1,0-1.6-0.1c-0.5-0.1-1-0.2-1.5-0.3
									c-0.5-0.1-1-0.4-1.3-0.7c-0.7-0.7-1.1-1.5-1.5-2.1c-0.5-0.6-1-1.1-1.6-1.4c-1.1-0.7-2.2-0.9-2.9-0.9c-0.7,0-1.1,0.2-1.1,0.2
									c0,0,0.3-0.2,1.1-0.3c0.7-0.1,1.8,0.1,3,0.8c0.6,0.3,1.2,0.8,1.7,1.5c0.5,0.6,0.9,1.4,1.5,2c0.6,0.6,1.6,0.7,2.6,0.9
									c0.5,0.1,1,0.1,1.5,0.1c0.5,0,1.1-0.1,1.4-0.3l-0.1,0.1c0.3-1.5,0.7-3.1,1.1-4.8c0.4-1.6,0.8-3.4,1.1-5.1
									c0.5-2.7,0.8-5.4,1-7.8l0.1,0.2c-0.8-0.4-1.5-0.9-2.1-1.5c-0.6-0.6-1.2-1.1-1.8-1.4c-1.4-0.5-2.8-0.5-4.1-0.4l0.2-0.3
									c0.7,2.5,0.7,4.6,0.6,6.1c-0.1,0.7-0.2,1.3-0.3,1.6C244.4,115.4,244.3,115.6,244.3,115.6z"/>
							</g>
						</g>
					</g>
				</g>
				<g>
					<g>
						<g>
							<path class="st13" d="M278.5,210c0,0,0-0.4,0-1.1c-0.1-0.7-0.3-1.9-1-3.1c-0.7-1.2-1.9-2.5-3.7-3.6c-1.7-1-4-1.6-6.6-1.8
								c-2.5-0.2-5.4-0.1-8.4-0.3c-3-0.2-6.3-0.7-9.5-2c-3.2-1.3-6.3-3.4-8.5-6.4c-1.1-1.5-2-3.3-2.5-5.1c-0.5-1.9-0.6-3.9-0.6-5.8
								c0.2-4,1.1-7.7,1.6-11.3c0.6-3.6,0.9-7.2,1-10.6c0.2-6.8-0.4-12.9-1.3-17.9c-0.9-5-2.1-9-2.9-11.8c-0.4-1.4-0.8-2.4-1.1-3.1
								c-0.1-0.3-0.2-0.6-0.3-0.8c-0.1-0.2-0.1-0.3-0.1-0.3c0,0,0.1,0.1,0.1,0.3c0.1,0.2,0.2,0.5,0.3,0.8c0.3,0.7,0.7,1.7,1.2,3.1
								c0.9,2.7,2.2,6.7,3.1,11.8c1,5.1,1.6,11.2,1.4,18c-0.1,3.4-0.4,7-1,10.6c-0.5,3.7-1.4,7.4-1.6,11.3
								c-0.2,3.9,0.7,7.7,2.9,10.6c2.2,2.9,5.2,5,8.3,6.2c3.1,1.3,6.3,1.8,9.3,2c3,0.2,5.8,0.1,8.4,0.4c2.6,0.2,4.9,0.8,6.7,1.9
								c1.8,1.1,3,2.4,3.7,3.7c0.7,1.3,0.9,2.4,0.9,3.2c0,0.4,0,0.7,0,0.9C278.5,209.9,278.5,210,278.5,210z"/>
						</g>
					</g>
				</g>
				<g>
					<g>
						<g>
							<path class="st13" d="M263.5,191.8c0,0-0.4,0.4-1.2,1.2c-0.4,0.4-0.9,0.8-1.4,1.3c-0.6,0.5-1.2,1.1-2,1.6
								c-1.5,1.2-3.4,2.5-5.5,3.8c-2.2,1.3-4.7,2.6-7.3,3.7c-2.7,1.1-5.4,2-7.8,2.6c-2.5,0.6-4.7,1-6.6,1.3
								c-0.9,0.1-1.8,0.2-2.6,0.3c-0.8,0.1-1.4,0.1-1.9,0.1c-1.1,0-1.7,0-1.7,0c0,0,0.6-0.1,1.6-0.2c0.5,0,1.2-0.1,1.9-0.2
								c0.8-0.1,1.6-0.2,2.5-0.3c1.9-0.3,4.1-0.7,6.5-1.4c2.4-0.7,5.1-1.5,7.7-2.6c2.7-1.1,5.1-2.4,7.3-3.7c2.2-1.3,4-2.6,5.6-3.7
								c0.8-0.6,1.4-1.1,2-1.6c0.6-0.5,1.1-0.9,1.5-1.2C263,192.1,263.5,191.8,263.5,191.8z"/>
						</g>
					</g>
				</g>
				<g>
					<g>
						<g>
							<path class="st13" d="M257.1,158.9c0,0,0,0.2-0.1,0.6c-0.1,0.4-0.2,0.9-0.3,1.6c-0.1,0.7-0.4,1.5-0.7,2.4
								c-0.3,0.9-0.6,2-1.1,3.2c-0.2,0.6-0.5,1.2-0.7,1.8c-0.2,0.6-0.6,1.3-0.9,1.9c-0.6,1.3-1.3,2.7-2.1,4.2
								c-1.6,2.9-3.7,5.9-6.1,8.8c-2.5,2.9-5.1,5.4-7.6,7.5c-1.3,1-2.5,2-3.7,2.8c-0.6,0.4-1.2,0.8-1.8,1.2c-0.6,0.3-1.1,0.7-1.7,1
								c-1.1,0.7-2.1,1.1-2.9,1.6c-0.9,0.5-1.6,0.8-2.3,1.1c-0.6,0.2-1.1,0.5-1.5,0.6c-0.3,0.1-0.5,0.2-0.5,0.2s0.2-0.1,0.5-0.3
								c0.4-0.2,0.9-0.4,1.4-0.7c0.6-0.3,1.4-0.7,2.2-1.1c0.9-0.5,1.9-1,2.9-1.7c0.5-0.3,1.1-0.7,1.6-1c0.6-0.4,1.1-0.8,1.7-1.2
								c1.2-0.8,2.4-1.8,3.7-2.8c2.5-2.1,5.1-4.6,7.5-7.5c2.4-2.9,4.4-5.9,6.1-8.7c0.8-1.4,1.5-2.8,2.1-4.1c0.3-0.7,0.6-1.3,0.9-1.9
								c0.3-0.6,0.5-1.2,0.7-1.8c0.5-1.1,0.8-2.2,1.1-3.1c0.3-0.9,0.6-1.7,0.7-2.4c0.2-0.6,0.3-1.1,0.4-1.5
								C257,159.1,257.1,158.9,257.1,158.9z"/>
						</g>
					</g>
				</g>
				<g>
					<g>
						<g>
							<path class="st13" d="M214.9,225.4c0,0-0.8-0.4-1.8-1.4c-1-1-2.2-2.5-3.1-4.5c-0.8-2-1.1-4-1.1-5.4c0-1.4,0.3-2.3,0.3-2.3
								c0.1,0,0,0.9,0.1,2.2c0.1,1.4,0.4,3.3,1.2,5.2c0.8,1.9,1.9,3.5,2.9,4.5C214.3,224.8,215,225.3,214.9,225.4z"/>
						</g>
					</g>
				</g>
				<g>
					<g>
						<g>
							<path class="st13" d="M214.2,217.6c0.1,0-0.1,1.3,0,2.9c0.1,1.6,0.6,2.8,0.5,2.9c-0.1,0.1-0.9-1.1-1-2.8
								C213.5,218.8,214.1,217.5,214.2,217.6z"/>
						</g>
					</g>
				</g>
				<g>
					<g>
						<g>
							<path class="st13" d="M204.3,181.8c0,0-0.1-0.2-0.1-0.5c-0.1-0.4-0.1-0.8-0.2-1.4c-0.2-1.3-0.5-3-0.8-5
								c-0.7-4.2-1.7-10.1-2.9-16.5c-1.2-6.4-2.4-12.2-3.2-16.4c-0.4-2-0.8-3.7-1-5c-0.1-0.5-0.2-1-0.3-1.4
								c-0.1-0.3-0.1-0.5-0.1-0.5c0,0,0.1,0.2,0.2,0.5c0.1,0.4,0.2,0.8,0.4,1.3c0.3,1.2,0.7,2.9,1.2,4.9c1,4.2,2.2,10,3.4,16.4
								c1.2,6.4,2.1,12.3,2.7,16.5c0.3,2.1,0.5,3.8,0.7,5c0.1,0.5,0.1,1,0.2,1.4C204.3,181.6,204.3,181.8,204.3,181.8z"/>
						</g>
					</g>
				</g>
				<g>
					<g>
						<g>
							<path class="st13" d="M268.3,181.8c0,0,0-0.2,0-0.5c0-0.4,0-0.9,0-1.4c0-1.2,0-3,0-5.2c0-4.4,0.2-10.5,0.7-17.2
								c0.5-6.7,1.2-12.8,1.7-17.1c0.3-2.1,0.5-3.9,0.7-5.2c0.1-0.6,0.2-1,0.2-1.4c0.1-0.3,0.1-0.5,0.1-0.5c0,0,0,0.2,0,0.5
								c0,0.4-0.1,0.9-0.1,1.4c-0.1,1.3-0.3,3.1-0.5,5.2c-0.4,4.4-1,10.4-1.6,17.1c-0.5,6.7-0.8,12.8-0.9,17.2
								c-0.1,2.1-0.1,3.9-0.1,5.2c0,0.6,0,1-0.1,1.4C268.4,181.6,268.3,181.8,268.3,181.8z"/>
						</g>
					</g>
				</g>
				<g>
					<g>
						<g>
							<path class="st13" d="M188.4,184.4c-0.2,0.1-1.5-3.6-4-7.5c-2.6-4-5.5-6.5-5.4-6.6c0,0,0.8,0.5,2,1.6
								c1.1,1.1,2.6,2.7,3.9,4.7c1.3,2,2.2,4,2.8,5.4C188.1,183.4,188.4,184.3,188.4,184.4z"/>
						</g>
					</g>
				</g>
				<g>
					<g>
						<g>
							<path class="st13" d="M190.1,180c-0.1,0-0.4-0.8-1.1-1.9c-0.7-1.2-1.8-2.7-3.5-4c-1.6-1.3-3.3-2.2-4.6-2.8
								c-1.3-0.6-2.1-0.9-2-1c0-0.1,0.9,0.1,2.2,0.6c1.3,0.5,3.1,1.4,4.8,2.7c1.7,1.4,2.8,3,3.4,4.3
								C189.9,179.2,190.1,180,190.1,180z"/>
						</g>
					</g>
				</g>
				<g>
					<g>
						<g>
							<path class="st15" d="M200.4,156c0,0,0,0.2-0.2,0.4c-0.2,0.3-0.5,0.7-0.9,1.1c-0.9,0.8-2.7,1.7-4.9,1.3
								c-2.2-0.3-4.6-1.9-6.2-4.4c-0.8-1.2-1.5-2.6-2-4c-0.3-0.7-0.6-1.5-0.8-2.3c-0.2-0.8-0.4-1.6-0.3-2.5c0.1-0.9,0.5-1.7,1.2-2.3
								c0.7-0.6,1.7-0.6,2.5-0.4c1.6,0.4,2.8,1.7,3.3,3.1c0.5,1.4,0.3,3-0.4,4.1c-0.7,1.1-1.8,1.9-2.9,2.2c-1.1,0.3-2.1,0.2-3-0.1
								c-0.8-0.3-1.4-0.8-1.9-1.3c-0.4-0.5-0.7-0.9-0.8-1.2c-0.1-0.3-0.2-0.5-0.1-0.5c0.1,0,0.2,0.7,1.1,1.5c0.4,0.4,1,0.8,1.8,1.1
								c0.8,0.3,1.8,0.4,2.8,0.1c1-0.3,2-1,2.6-2.1c0.6-1,0.8-2.4,0.3-3.7c-0.5-1.3-1.5-2.4-3-2.8c-0.7-0.2-1.5-0.1-2,0.4
								c-0.6,0.4-0.9,1.2-1,1.9c-0.2,1.5,0.5,3.1,1,4.5c0.6,1.4,1.2,2.8,2,4c1.5,2.4,3.7,3.9,5.8,4.3c2.1,0.4,3.8-0.4,4.7-1.1
								C200.1,156.6,200.3,155.9,200.4,156z"/>
						</g>
					</g>
				</g>
				<g>
					<g>
						<g>
							<path class="st15" d="M239.7,171.3c0,0-0.1,0.1-0.3,0.2c-0.2,0.2-0.5,0.4-0.8,0.6c-0.7,0.5-1.9,1.4-3.4,2.2
								c-0.8,0.4-1.7,0.7-2.8,0.9c-1.1,0.2-2.3,0.2-3.5-0.2c-2.5-0.8-4.7-2.9-6.3-5.6c-1.7-2.7-2.8-6.1-2.9-9.9
								c-0.1-3.7,0.8-7.8,3.1-11.4c1.1-1.8,2.6-3.5,4.7-4.4c1-0.4,2.2-0.6,3.4-0.4c1.1,0.2,2.3,0.7,3,1.7c0.7,1,1,2.2,0.9,3.4
								c-0.1,1.2-0.5,2.4-1.1,3.4c-1.2,2.1-3.3,3.6-5.6,4.5c-2.3,0.9-4.8,1.1-7.1,0.7c-2.4-0.3-4.6-1.3-6.4-2.7
								c-3.8-2.7-6.2-6.7-7.6-10.6c-0.7-2-1.2-4-0.9-6.1c0.2-1,0.5-2,1.2-2.8c0.6-0.8,1.5-1.4,2.4-1.6c1.9-0.4,3.9,0.4,5,1.7
								c1.2,1.4,1.5,3.2,1.2,4.8c-0.3,1.6-1,3-2.1,4c-1,1-2.2,1.7-3.4,2.2c-2.4,0.9-4.6,1-6.4,1c-1.8-0.1-3.1-0.3-4-0.4
								c-0.4-0.1-0.8-0.1-1-0.2c-0.2,0-0.4-0.1-0.4-0.1c0,0,0.1,0,0.4,0c0.3,0,0.6,0.1,1,0.1c0.9,0.1,2.3,0.3,4,0.3
								c1.7,0,3.9-0.1,6.2-1c1.1-0.5,2.3-1.2,3.3-2.2c1-1,1.7-2.4,1.9-3.9c0.2-1.5,0-3.2-1.2-4.5c-1.1-1.2-2.9-2-4.6-1.6
								c-1.8,0.4-3,2.1-3.3,4c-0.3,1.9,0.2,3.9,0.9,5.8c1.4,3.9,3.8,7.7,7.4,10.3c1.8,1.3,3.9,2.3,6.2,2.6c2.3,0.4,4.7,0.1,6.9-0.7
								c2.2-0.8,4.1-2.3,5.3-4.3c0.6-1,0.9-2.1,1-3.2c0.1-1.1-0.2-2.2-0.8-3.1c-0.6-0.9-1.7-1.4-2.7-1.5c-1-0.2-2.1,0-3.1,0.4
								c-1.9,0.8-3.4,2.5-4.5,4.2c-2.3,3.5-3.1,7.4-3,11.1c0.1,3.7,1.2,7,2.8,9.7c1.6,2.7,3.8,4.7,6.1,5.5c2.4,0.8,4.6,0.1,6.1-0.6
								c1.6-0.7,2.7-1.5,3.5-2.1c0.4-0.3,0.6-0.5,0.9-0.6C239.6,171.4,239.7,171.3,239.7,171.3z"/>
						</g>
					</g>
				</g>
				<g>
					<g>
						<g>
							<path class="st15" d="M212.1,115.2c0,0-0.1,0.3-0.3,0.9c-0.2,0.6-0.7,1.3-1.3,2.2c-1.2,1.8-3.4,4.1-6.5,5.5
								c-3.1,1.5-6.2,1.7-8.4,1.6c-1.1-0.1-2-0.3-2.6-0.4c-0.6-0.2-0.9-0.3-0.9-0.3c0-0.1,1.3,0.3,3.5,0.4c2.1,0.1,5.2-0.3,8.1-1.7
								c3-1.4,5.1-3.5,6.4-5.3C211.5,116.4,212,115.2,212.1,115.2z"/>
						</g>
					</g>
				</g>
				<g>
					<g>
						<g>
							<path class="st15" d="M226.9,119.5c0,0.2-1.5,0.2-2.8,1.4c-1.4,1.1-1.7,2.6-1.8,2.6c-0.1,0-0.1-0.4,0.1-1
								c0.2-0.6,0.6-1.4,1.4-2c0.7-0.6,1.6-0.9,2.2-1C226.5,119.3,226.9,119.4,226.9,119.5z"/>
						</g>
					</g>
				</g>
				<g>
					<g>
						<g>
							<path class="st15" d="M248,125.4c0,0-0.3-0.1-0.8-0.4c-0.5-0.3-1.2-0.9-1.9-1.7c-0.6-0.9-1.3-2.1-1.4-3.5
								c0-0.7,0.1-1.6,0.6-2.2c0.5-0.7,1.4-1.2,2.3-1c0.9,0.2,1.6,1,1.8,1.7c0.3,0.8,0,1.7-0.5,2.3c-1,1.2-2.6,1.4-3.6,1
								c-1.1-0.4-1.7-1.1-2-1.6c-0.3-0.5-0.4-0.9-0.4-0.9c0,0,0.2,0.3,0.5,0.7c0.4,0.4,1,1.1,1.9,1.4c0.9,0.3,2.3,0.1,3.1-0.9
								c0.4-0.5,0.6-1.2,0.3-1.8c-0.2-0.6-0.8-1.2-1.4-1.4c-0.7-0.2-1.4,0.2-1.8,0.8c-0.4,0.6-0.6,1.3-0.5,1.9
								c0.1,1.3,0.6,2.5,1.2,3.4C246.8,124.7,248.1,125.3,248,125.4z"/>
						</g>
					</g>
				</g>
				<g>
					<g>
						<g>
							<path class="st15" d="M252,113.7c-0.1,0.1-1.2-1.5-3.3-2.3c-2.1-0.9-4-0.5-4-0.7c0-0.1,0.4-0.2,1.2-0.3c0.8-0.1,1.9,0,3,0.5
								c1.1,0.5,2,1.1,2.5,1.7C251.9,113.2,252.1,113.6,252,113.7z"/>
						</g>
					</g>
				</g>
				<g>
					<g>
						<g>
							<path class="st15" d="M279.5,125.3c0,0-0.1,0.1-0.2,0.1c-0.2,0.1-0.4,0.2-0.6,0.3c-0.5,0.3-1.3,0.6-2.4,1
								c-2.1,0.8-5.3,1.7-9.4,1.8c-1,0-2.1-0.1-3.2-0.3c-1.1-0.2-2.2-0.7-3.2-1.5c-0.9-0.8-1.5-2.1-1.5-3.4c0-1.3,0.4-2.7,1.3-3.8
								c1.8-2.2,5.1-2.9,8-2c2.9,0.8,5.5,3.1,6.4,6.2c0.9,3.1,0.1,6.5-1.9,8.7c-2,2.3-4.8,3.4-7.4,4c-2.6,0.6-5.2,0.7-7.6,0.8
								c-2.4,0.1-4.6,0.2-6.5,0.6c-3.9,0.8-6.7,2.8-8.1,4.6c-1.4,1.8-1.5,3.1-1.5,3.1c0,0,0-0.1,0-0.2c0-0.1,0.1-0.4,0.2-0.7
								c0.2-0.6,0.5-1.4,1.2-2.3c1.3-1.9,4.1-4,8.1-4.8c2-0.4,4.2-0.6,6.6-0.7c2.4-0.1,4.9-0.2,7.5-0.8c2.5-0.6,5.2-1.7,7.1-3.9
								c1.9-2.1,2.6-5.3,1.8-8.2c-0.8-2.9-3.3-5.1-6-5.8c-2.7-0.8-5.8-0.1-7.5,1.9c-0.8,1-1.3,2.2-1.2,3.4c0,1.2,0.5,2.3,1.4,3.1
								c0.8,0.8,1.9,1.2,3,1.5c1.1,0.3,2.1,0.3,3.1,0.3c4,0,7.2-0.9,9.4-1.6c1.1-0.4,1.9-0.7,2.4-0.9
								C279.2,125.4,279.5,125.3,279.5,125.3z"/>
						</g>
					</g>
				</g>
				<g>
					<g>
						<g>
							<path class="st15" d="M254.6,164.6c-0.1,0-0.4-0.8-1.3-2c-0.9-1.2-2.5-2.6-4.6-3.4c-2.1-0.8-4.2-0.7-5.7-0.5
								c-1.5,0.3-2.3,0.7-2.3,0.6c0,0,0.8-0.6,2.3-1c1.5-0.4,3.7-0.5,5.9,0.3c2.2,0.8,3.8,2.4,4.7,3.7
								C254.4,163.6,254.6,164.6,254.6,164.6z"/>
						</g>
					</g>
				</g>
				<g>
					<g>
						<g>
							<path class="st15" d="M266.2,172.1c0,0-0.3,0.9-1.4,2c-1,1.1-2.9,2.3-5.3,2.5c-2.4,0.2-4.4-0.7-5.6-1.6
								c-1.2-0.9-1.7-1.8-1.7-1.8c0.1-0.1,0.6,0.7,1.9,1.5c1.2,0.8,3.2,1.6,5.4,1.4c2.2-0.2,4-1.3,5.1-2.2
								C265.7,172.9,266.2,172.1,266.2,172.1z"/>
						</g>
					</g>
				</g>
				<g>
					<g>
						<g>
							<path class="st15" d="M269.3,152.3c0,0.1-0.6-0.3-1.7-0.6c-1-0.3-2.6-0.4-4.2,0.1c-1.6,0.5-2.8,1.5-3.5,2.4
								c-0.7,0.8-1,1.5-1.1,1.5c-0.1,0,0.1-0.7,0.8-1.7c0.6-0.9,1.9-2.1,3.6-2.6c1.7-0.5,3.4-0.3,4.5,0.1
								C268.8,151.7,269.3,152.2,269.3,152.3z"/>
						</g>
					</g>
				</g>
				<g>
					<g>
						<g>
							<path class="st15" d="M306.5,143.1c0,0,0.1,0.3,0.2,0.7c0.1,0.2,0.1,0.6,0.1,0.9c0,0.4,0.1,0.8,0,1.3c0,1.9-0.7,4.7-2.9,7.5
								c-1.1,1.3-2.5,2.6-4.3,3.6c-1.8,0.9-4,1.4-6.2,1.4c-4.5,0-9.6-2.2-12.8-6.4c-0.8-1-1.5-2.2-1.8-3.5c-0.4-1.3-0.3-2.6,0.1-3.8
								c0.4-1.2,1.2-2.3,2.3-2.9c1.1-0.6,2.4-0.6,3.5-0.4c1.1,0.2,2.2,0.8,3,1.6c0.8,0.8,1.3,1.7,1.6,2.7c0.6,2,0.5,3.9,0,5.6
								c-0.5,1.6-1.4,3-2.4,4c-0.9,1-1.9,1.7-2.8,2.1c-0.8,0.5-1.6,0.7-2,0.8c-0.5,0.1-0.7,0.2-0.8,0.1c0-0.1,1-0.2,2.7-1.1
								c1.6-0.9,3.8-2.8,4.9-6c0.5-1.6,0.6-3.5,0-5.3c-0.3-0.9-0.8-1.8-1.5-2.5c-0.7-0.7-1.7-1.2-2.7-1.4c-1-0.2-2.2-0.1-3.2,0.4
								c-1,0.5-1.7,1.5-2.1,2.6c-0.4,1.1-0.4,2.4,0,3.5c0.3,1.2,0.9,2.3,1.7,3.3c3.2,4,8,6.2,12.4,6.2c2.2,0,4.3-0.4,6-1.3
								c1.8-0.9,3.2-2.1,4.2-3.4c2.1-2.6,2.9-5.4,2.9-7.2C306.8,144.1,306.5,143.1,306.5,143.1z"/>
						</g>
					</g>
				</g>
				<g>
					<g>
						<g>
							<path class="st15" d="M314.3,163.8c0,0-0.3-0.2-0.6-0.7c-0.3-0.5-0.8-1.2-1.1-2.3c-0.3-1-0.4-2.3-0.2-3.7
								c0.2-1.4,0.6-2.9,1-4.4c1-3.1,2.5-5.6,3.6-7.4c0.6-0.9,1-1.6,1.4-2.1c0.3-0.5,0.5-0.7,0.6-0.7c0.1,0-0.6,1.2-1.6,3
								c-1,1.8-2.5,4.3-3.4,7.3c-0.4,1.5-0.8,3-1,4.3c-0.2,1.3-0.2,2.6,0,3.6C313.4,162.7,314.4,163.7,314.3,163.8z"/>
						</g>
					</g>
				</g>
				<g>
					<g>
						<g>
							<path class="st15" d="M333.2,140.8c0,0,0.1,0.2,0.3,0.7c0.2,0.5,0.3,1.2,0.5,2.1c0.3,1.8,0.4,4.3-0.2,7
								c-0.6,2.7-1.7,4.9-2.8,6.4c-0.5,0.7-1,1.3-1.3,1.7c-0.3,0.4-0.5,0.5-0.6,0.5c-0.1-0.1,0.7-0.9,1.6-2.4c0.9-1.5,2-3.7,2.6-6.3
								c0.6-2.6,0.5-5.1,0.3-6.8C333.4,141.8,333.1,140.8,333.2,140.8z"/>
						</g>
					</g>
				</g>
				<g>
					<g>
						<g>
							<path class="st15" d="M267.8,187.5c0,0-0.2-0.1-0.4-0.2c-0.3-0.2-0.7-0.4-1.2-0.7c-1.1-0.5-2.7-1.2-4.9-1.4
								c-2.1-0.2-4.8,0-7.3,1.2c-1.3,0.6-2.6,1.4-3.7,2.4c-0.6,0.5-1.1,1.1-1.4,1.8c-0.4,0.7-0.6,1.4-0.5,2.2
								c0.1,0.8,0.5,1.5,1.1,1.9c0.6,0.4,1.4,0.4,2,0.1c1.4-0.6,1.9-2.2,1.9-3.5c-0.1-2.8-1.9-5.1-3.7-6c-1.9-1-3.7-0.9-4.9-0.6
								c-1.2,0.3-1.8,0.6-1.8,0.6c0,0,0.1-0.1,0.4-0.3c0.3-0.1,0.7-0.3,1.3-0.5c1.2-0.3,3.1-0.5,5.1,0.5c2,1,3.9,3.3,4,6.3
								c0,0.7-0.1,1.5-0.4,2.3c-0.3,0.7-0.9,1.4-1.7,1.7c-0.8,0.4-1.8,0.4-2.5-0.1c-0.8-0.5-1.2-1.4-1.3-2.2
								c-0.1-0.9,0.2-1.8,0.6-2.5c0.4-0.7,1-1.4,1.5-1.9c1.2-1.1,2.5-1.9,3.8-2.5c2.7-1.2,5.4-1.4,7.6-1.1c2.2,0.3,3.9,1,4.9,1.6
								c0.5,0.3,0.9,0.6,1.2,0.8C267.6,187.4,267.8,187.5,267.8,187.5z"/>
						</g>
					</g>
				</g>
				<g>
					<g>
						<g>
							<path class="st15" d="M271.4,195.8c0.1,0.1-0.4,1.1-1.2,2.3s-1.5,2.1-1.6,2c-0.1-0.1,0.4-1.1,1.2-2.3
								C270.5,196.6,271.3,195.7,271.4,195.8z"/>
						</g>
					</g>
				</g>
				<g>
					<g>
						<g>
							<path class="st15" d="M284.1,210.1c-0.1,0-0.2-0.4-0.6-0.9c-0.3-0.5-0.9-1.1-1.8-1.6c-0.8-0.5-1.7-0.6-2.3-0.6
								c-0.6,0-1,0.1-1,0c0-0.1,0.4-0.3,1-0.3c0.7-0.1,1.6,0.1,2.6,0.6c0.9,0.5,1.5,1.3,1.8,1.9
								C284.1,209.7,284.1,210.1,284.1,210.1z"/>
						</g>
					</g>
				</g>
				<g>
					<g>
						<g>
							<path class="st15" d="M242.8,205c0,0.1-1.2,0.7-3.1,1.8c-1.9,1.1-4.6,2.7-6.8,5.3c-2.2,2.5-3.4,5.5-3.6,7.6
								c-0.3,2.2,0.2,3.5,0.1,3.6c0,0-0.2-0.3-0.3-0.9c-0.1-0.6-0.2-1.5-0.1-2.7c0.1-2.3,1.3-5.4,3.6-7.9c2.3-2.6,5-4.2,7-5.2
								c1-0.5,1.8-0.9,2.4-1.1C242.4,205.1,242.7,205,242.8,205z"/>
						</g>
					</g>
				</g>
				<g>
					<g>
						<g>
							<path class="st15" d="M257.5,209.9c0,0-0.6-0.3-1.1-1.2c-0.5-0.9-1-2.3-0.8-3.8c0.1-1.6,0.8-2.9,1.5-3.6c0.7-0.8,1.2-1,1.3-1
								c0.1,0.1-0.4,0.4-1,1.2c-0.6,0.8-1.1,2-1.2,3.5c-0.1,1.5,0.2,2.8,0.6,3.6C257.1,209.4,257.5,209.8,257.5,209.9z"/>
						</g>
					</g>
				</g>
				<g>
					<g>
						<g>
							<path class="st15" d="M234.5,191.8c0,0-0.2-0.2-0.6-0.6c-0.4-0.3-1.1-0.8-2.1-0.9c-1-0.1-2.3,0-3.5,0.7
								c-1.2,0.7-2.3,2-3.3,3.5c-1,1.5-1.8,3.4-3.1,5.1c-1.2,1.8-3.2,3.4-5.5,4.1c-2.3,0.8-5.1,0.7-7.6-0.4
								c-2.4-1.1-4.6-3.2-5.6-5.9c-0.5-1.3-0.6-2.9-0.2-4.2c0.4-1.4,1.4-2.5,2.6-3.2c1.2-0.7,2.5-1,3.9-0.9c1.3,0.2,2.5,0.8,3.4,1.6
								c1.9,1.7,2.8,4.1,2.7,6.3c0,2.2-0.8,4.2-1.9,5.7c-1,1.5-2.4,2.6-3.6,3.4c-1.3,0.8-2.4,1.2-3.4,1.5c-1,0.3-1.8,0.4-2.3,0.5
								c-0.3,0-0.5,0.1-0.6,0.1c-0.1,0-0.2,0-0.2,0c0,0,0.3-0.1,0.8-0.2c0.5-0.1,1.3-0.3,2.3-0.6c1-0.3,2.1-0.8,3.3-1.5
								c1.2-0.8,2.5-1.9,3.5-3.4c1-1.5,1.7-3.4,1.7-5.5c0-2.1-0.9-4.4-2.6-5.9c-0.9-0.8-2-1.3-3.2-1.5c-1.2-0.1-2.5,0.2-3.5,0.8
								c-1.1,0.7-2,1.7-2.4,2.9c-0.4,1.2-0.3,2.6,0.2,3.9c0.9,2.6,3,4.6,5.3,5.6c2.3,1.1,5,1.2,7.2,0.4c2.3-0.7,4.1-2.2,5.3-3.9
								c1.2-1.7,2.1-3.5,3.1-5.1c1-1.5,2.2-2.8,3.5-3.5c1.3-0.8,2.7-0.9,3.7-0.7c1,0.2,1.7,0.7,2.1,1
								C234.4,191.5,234.5,191.8,234.5,191.8z"/>
						</g>
					</g>
				</g>
				<g>
					<g>
						<g>
							<path class="st15" d="M234.8,207.4c0,0-0.7-0.3-1.6-1.3c-0.9-0.9-1.9-2.4-2.5-4.3c-0.6-1.9-0.5-3.7-0.3-5
								c0.2-1.3,0.6-2,0.7-2c0.1,0-0.2,0.8-0.3,2c-0.1,1.2-0.1,3,0.4,4.8c0.5,1.8,1.4,3.3,2.2,4.2
								C234.3,206.8,234.9,207.3,234.8,207.4z"/>
						</g>
					</g>
				</g>
				<g>
					<g>
						<g>
							<path class="st15" d="M238.5,184.3c0,0.1-0.7-0.3-2-0.8c-1.3-0.5-3.2-1.2-5.7-1.5c-2.5-0.3-5.5-0.3-8.7,0.4
								c-1.6,0.4-3.3,0.9-4.8,1.8c-0.7,0.4-1.4,1.1-1.6,1.9c-0.2,0.8,0.3,1.8,1,2c0.4,0.1,0.8,0,1.1-0.3c0.3-0.3,0.5-0.7,0.6-1.1
								c0.2-0.8,0.3-1.8,0.2-2.7c-0.1-1.8-0.5-3.5-1.3-4.9c-0.7-1.5-1.7-2.7-2.8-3.6c-1.1-0.9-2.3-1.6-3.5-2
								c-2.3-0.8-4.4-0.8-5.8-0.6c-1.4,0.2-2.1,0.5-2.1,0.5c0,0,0.2-0.1,0.5-0.2c0.3-0.1,0.9-0.3,1.6-0.4c1.4-0.3,3.5-0.4,6,0.4
								c1.2,0.4,2.5,1.1,3.6,2c1.2,1,2.2,2.2,3,3.7c0.8,1.5,1.3,3.3,1.4,5.1c0,0.9,0,1.9-0.2,2.8c-0.1,0.5-0.3,1-0.7,1.3
								c-0.4,0.4-1,0.6-1.6,0.4c-0.6-0.2-1-0.6-1.2-1.1c-0.2-0.5-0.3-1-0.2-1.5c0.2-1.1,1-1.8,1.8-2.2c1.6-0.9,3.3-1.4,5-1.8
								c3.3-0.8,6.4-0.7,8.9-0.3c2.5,0.4,4.4,1.1,5.7,1.7c0.6,0.3,1.1,0.5,1.5,0.7C238.3,184.2,238.5,184.3,238.5,184.3z"/>
						</g>
					</g>
				</g>
				<g>
					<g>
						<g>
							<path class="st15" d="M160.6,187.2c0,0,0.6-0.5,1.6-1.5c1-1,2.3-2.6,3.1-5c0.9-2.3,1.2-5.5-0.3-8.5c-0.7-1.5-1.8-2.9-3.2-3.9
								c-1.4-1.1-3.2-1.8-5-1.9c-0.9,0-1.8,0.2-2.6,0.6c-0.8,0.4-1.5,1-1.8,1.8c-0.3,0.8-0.1,1.7,0.4,2.3c0.5,0.7,1.2,1.2,1.9,1.4
								c1.5,0.5,3.1,0,4.3-0.7c1.2-0.8,2.1-1.9,2.6-3c1.1-2.3,1.1-4.4,1.3-5.7c0-0.7,0.1-1.2,0.1-1.6c0-0.4,0-0.6,0-0.6
								c0,0,0,0.2,0.1,0.6c0,0.4,0,0.9,0,1.6c0,1.4-0.1,3.5-1.1,5.9c-0.5,1.2-1.4,2.3-2.7,3.2c-1.3,0.8-3,1.4-4.7,0.8
								c-0.8-0.3-1.6-0.8-2.2-1.6c-0.5-0.8-0.8-1.8-0.4-2.8c0.3-1,1.1-1.7,2-2.1c0.9-0.4,1.9-0.6,2.9-0.6c2,0.1,3.9,0.9,5.3,2
								c1.5,1.1,2.6,2.6,3.3,4.1c0.7,1.5,1,3.2,1,4.7c0,1.5-0.4,2.9-0.8,4.1c-0.9,2.4-2.3,4-3.3,5c-0.5,0.5-1,0.8-1.3,1
								C160.7,187.1,160.6,187.2,160.6,187.2z"/>
						</g>
					</g>
				</g>
				<g>
					<g>
						<g>
							<path class="st15" d="M181.3,202.1c0,0-0.3-0.3-0.8-0.8c-0.5-0.6-1.1-1.4-1.7-2.6c-1.3-2.3-2.4-5.9-2.2-10
								c0.3-4.1,1.9-7.5,3.5-9.6c0.8-1.1,1.5-1.9,2-2.4c0.5-0.5,0.9-0.7,0.9-0.7c0.1,0.1-1.2,1.1-2.6,3.3c-1.4,2.1-3,5.5-3.2,9.4
								c-0.3,3.9,0.8,7.5,2,9.8C180.3,200.8,181.4,202,181.3,202.1z"/>
						</g>
					</g>
				</g>
				<g>
					<g>
						<g>
							<path class="st15" d="M200.8,180.3c-0.1,0-0.5-1.5-1.7-3.7c-1.2-2.2-3.4-5-6.6-7.2c-3.2-2.1-6.7-3-9.2-3.3
								c-2.5-0.3-4.1-0.1-4.1-0.2c0,0,0.4-0.1,1.1-0.2c0.7-0.1,1.8-0.1,3,0c2.6,0.2,6.1,1,9.4,3.2c3.3,2.2,5.5,5.1,6.7,7.4
								c0.6,1.1,1,2.1,1.2,2.8C200.8,179.9,200.9,180.3,200.8,180.3z"/>
						</g>
					</g>
				</g>
				<g class="st9">
					<g>
						<g>
							<path d="M228.2,208.3c-1,0.4-0.9,1.9-0.1,2.6c0.8,0.7,1.9,0.7,3,0.6c11.7-0.6,23-6.9,29.6-16.6c-9,7.4-20.9,10.2-32.3,12.8"
								/>
						</g>
					</g>
				</g>
				<g class="st9">
					<g>
						<g>
							<path d="M226.4,198.1c-1-1.5-0.3-3.6,0.9-4.9c1.3-1.3,3-2,4.6-2.8c5.9-2.9,10.7-7.9,13.5-13.8c1.8-3.9,3.2-8.8,7.2-10.4
								c-2.1,13.9-12.4,26.2-25.7,30.7"/>
						</g>
					</g>
				</g>
				<g class="st9">
					<g>
						<g>
							<path d="M198,146.2c1,10.9,0.2,22-2.3,32.7c-0.5,2.3-1.2,4.6-1.1,6.9s1.5,5,3.3,6.5c1.7-3.8,1.7-7.5,2.4-11.6
								c0.6-3.7,1.7-12.4,1.7-12.5c0.1-7.6-1.6-14.1-4.6-20.9"/>
						</g>
					</g>
				</g>
				<g class="st9">
					<g>
						<g>
							<path d="M216.8,113.4c1.5,8,5.5,15.6,11.3,21.2c2.2,2.2,5,4.1,8,4c-1.8-3.6-2.3-7.8-1.5-11.8c2.6,1.7,5.3,3.3,8.2,4.5
								c2.9,1.1,6.1,1.7,9.2,1c0.6-5.5,1.3-11.1,1.9-16.6c0.1-0.6,0.1-1.3-0.2-1.9c-0.3-0.6-1.2-0.8-1.6-0.4
								c-0.2,0.2-0.3,0.5-0.3,0.7c-1.1,4.9-1.8,9.2-2.9,14.1c-0.8,0.8-3.3,0.5-4.9-0.1c-1.4-0.5-2-1.7-2.9-2.9s-0.8-1-2.2-1.6
								c-2.6-1.1-7.5-0.2-8.6,2.1c-1.1,2.3-0.3,5.4,0.5,7.6c-7.1-4.6-12.5-12-14.6-20.2"/>
						</g>
					</g>
				</g>
				<g class="st9">
					<g>
						<path d="M271.4,136.9c-0.2,0.4,6.2,22.1,6.2,22.1l-8.3-4.7L271.4,136.9z"/>
					</g>
				</g>
			</g>
		</g>
		<g>
			<g>
				<g>
					<g>
						<g>
							<g>
								<g>
									<g>
										<g>
											<g>
												<g>
													<g>
														<g>
															<g>
																<g>
																	<path class="st10" d="M219.6,74v34.5c0,2,0.7,3.9,2,5.4l0,0c1.9,2.3,4.3,4.3,6.9,5.7l7,3.9l5.8-5.1
																		c1.7-1.5,2.7-3.6,2.8-5.9c0.1-2.5,0.1-5,0.1-5s9.8-0.7,10.7-10.3c0.4-4.5,0.6-13.8,0.6-22.4
																		c0-9.8-7.5-17.9-17.2-18.7l-0.3,0C227.9,55.8,219.6,63.9,219.6,74z"/>
																</g>
															</g>
														</g>
													</g>
												</g>
											</g>
										</g>
									</g>
								</g>
							</g>
							<g>
								<g>
									<g>
										<g>
											<g>
												<g>
													<g>
														<g>
															<g>
																<g>
																	<path class="st11" d="M244.1,107.4c0,0-6.1-0.1-12.2-4.7c0,0,2.5,7.3,12.2,7.2L244.1,107.4z"/>
																</g>
															</g>
														</g>
													</g>
												</g>
											</g>
										</g>
									</g>
								</g>
							</g>
						</g>
					</g>
				</g>
				<g>
					<g>
						<g>
							<g>
								<g>
									<g>
										<g>
											<g>
												<g>
													<g>
														<g>
															<g>
																<g>
																	<g>
																		<g>
																			<g>
																				<path class="st13" d="M252.5,80.9c0,0.7-0.7,1.3-1.4,1.3c-0.8,0-1.4-0.6-1.3-1.4c0-0.7,0.7-1.3,1.4-1.3
																					C252,79.6,252.6,80.2,252.5,80.9z"/>
																			</g>
																		</g>
																	</g>
																</g>
															</g>
														</g>
													</g>
												</g>
											</g>
										</g>
										<g>
											<g>
												<g>
													<g>
														<g>
															<g>
																<g>
																	<g>
																		<g>
																			<g>
																				<g>
																					<path class="st13" d="M252.9,78.6c-0.2,0.2-1.2-0.7-2.6-0.8c-1.5-0.1-2.6,0.5-2.8,0.3
																						c-0.1-0.1,0.1-0.4,0.6-0.7c0.5-0.3,1.3-0.6,2.2-0.5c0.9,0.1,1.7,0.5,2.1,0.9C252.9,78.2,253,78.6,252.9,78.6z"
																						/>
																				</g>
																			</g>
																		</g>
																	</g>
																</g>
															</g>
														</g>
													</g>
												</g>
											</g>
										</g>
									</g>
									<g>
										<g>
											<g>
												<g>
													<g>
														<g>
															<g>
																<g>
																	<g>
																		<g>
																			<g>
																				<path class="st13" d="M238.6,80.2c0,0.7-0.7,1.3-1.4,1.3c-0.8,0-1.4-0.6-1.3-1.4c0-0.7,0.7-1.3,1.4-1.3
																					C238,78.9,238.6,79.5,238.6,80.2z"/>
																			</g>
																		</g>
																	</g>
																</g>
															</g>
														</g>
													</g>
												</g>
											</g>
										</g>
										<g>
											<g>
												<g>
													<g>
														<g>
															<g>
																<g>
																	<g>
																		<g>
																			<g>
																				<g>
																					<path class="st13" d="M238.3,77.7c-0.2,0.2-1.2-0.7-2.6-0.8c-1.5-0.1-2.6,0.5-2.8,0.3
																						c-0.1-0.1,0.1-0.4,0.6-0.7c0.5-0.3,1.3-0.6,2.2-0.5c0.9,0.1,1.7,0.5,2.1,0.9C238.3,77.3,238.4,77.6,238.3,77.7
																						z"/>
																				</g>
																			</g>
																		</g>
																	</g>
																</g>
															</g>
														</g>
													</g>
												</g>
											</g>
										</g>
									</g>
									<g>
										<g>
											<g>
												<g>
													<g>
														<g>
															<g>
																<g>
																	<g>
																		<g>
																			<g>
																				<path class="st13" d="M242.8,89.1c0-0.1,0.9-0.2,2.4-0.2c0.4,0,0.7-0.1,0.8-0.3c0.1-0.3,0-0.7-0.2-1.1
																					c-0.3-0.9-0.6-1.9-0.9-3c-1.2-4.2-2.1-7.7-1.9-7.7s1.3,3.3,2.5,7.6c0.3,1,0.6,2,0.8,3c0.1,0.4,0.3,0.9,0.1,1.5
																					c-0.1,0.3-0.4,0.5-0.7,0.5c-0.2,0.1-0.5,0-0.6,0C243.7,89.3,242.8,89.2,242.8,89.1z"/>
																			</g>
																		</g>
																	</g>
																</g>
															</g>
														</g>
													</g>
												</g>
											</g>
										</g>
									</g>
									<g>
										<g>
											<g>
												<g>
													<g>
														<g>
															<g>
																<g>
																	<g>
																		<g>
																			<g>
																				<path class="st13" d="M238.4,89.8c0.2,0,0.1,1.6,1.4,2.9c1.3,1.3,3,1.2,3,1.4c0,0.1-0.4,0.3-1.1,0.2
																					c-0.7,0-1.7-0.3-2.5-1.1c-0.8-0.8-1.1-1.7-1.1-2.4C238.1,90.1,238.3,89.8,238.4,89.8z"/>
																			</g>
																		</g>
																	</g>
																</g>
															</g>
														</g>
													</g>
												</g>
											</g>
										</g>
									</g>
								</g>
							</g>
						</g>
						<g>
							<g>
								<g>
									<g>
										<g>
											<g>
												<g>
													<g>
														<g>
															<g>
																<path class="st13" d="M239.2,71.9c-0.2,0.4-1.6,0.1-3.4,0.1c-1.8,0-3.2,0.4-3.4,0c-0.1-0.2,0.2-0.5,0.8-0.9
																	c0.6-0.3,1.5-0.6,2.6-0.7c1.1,0,2,0.2,2.6,0.5C239,71.4,239.3,71.7,239.2,71.9z"/>
															</g>
														</g>
													</g>
												</g>
											</g>
										</g>
									</g>
								</g>
							</g>
						</g>
						<g>
							<g>
								<g>
									<g>
										<g>
											<g>
												<g>
													<g>
														<g>
															<g>
																<path class="st13" d="M252.7,74.3c-0.3,0.3-1.3-0.1-2.5-0.2c-1.2-0.2-2.3,0-2.5-0.3c-0.1-0.2,0.1-0.5,0.6-0.8
																	c0.5-0.3,1.2-0.5,2.1-0.4c0.8,0.1,1.5,0.5,1.9,0.8C252.7,73.8,252.9,74.1,252.7,74.3z"/>
															</g>
														</g>
													</g>
												</g>
											</g>
										</g>
									</g>
								</g>
							</g>
						</g>
					</g>
				</g>
				<g>
					<g>
						<g>
							<g>
								<path class="st13" d="M230.9,64.3C230.9,64.3,230.9,64.3,230.9,64.3c-1.7,1.1-2.8,2.8-3.3,4.7c0,0.1,0,0.1,0,0.2
									c-0.6,2.7-0.8,5.5-1.4,8.2c-0.6,2.7-0.5,4.8-3.2,5.4c-1.7,0.4-3.2-0.6-3.8-1.5c-0.2-0.4-0.2-0.8-0.2-1.3
									c0-6.7-1.3-9.3-0.7-16.2c0.2-1.9,1.2-3.6,2.8-4.6c1.5-0.9,3.4-1.9,5-1c1.6,0.9,3.4,4.1,4.5,5.5"/>
							</g>
						</g>
					</g>
				</g>
				<g>
					<g>
						<g>
							<g>
								<g>
									<g>
										<g>
											<g>
												<g>
													<g>
														<g>
															<path class="st10" d="M222.5,78.6c-0.2-0.1-6.5-2.5-6.8,4.1c-0.3,6.6,6.4,5.6,6.4,5.4S222.5,78.6,222.5,78.6z"/>
														</g>
													</g>
												</g>
											</g>
										</g>
									</g>
								</g>
							</g>
						</g>
					</g>
					<g>
						<g>
							<g>
								<g>
									<g>
										<g>
											<g>
												<g>
													<g>
														<g>
															<g>
																<path class="st11" d="M220.2,85.5c0,0-0.1,0.1-0.3,0.2c-0.2,0.1-0.5,0.1-0.9,0c-0.7-0.3-1.2-1.4-1.2-2.6
																	c0-0.6,0.2-1.2,0.4-1.6c0.2-0.5,0.6-0.8,0.9-0.8c0.4-0.1,0.6,0.2,0.7,0.3c0.1,0.2,0,0.3,0.1,0.3
																	c0,0,0.1-0.1,0.1-0.4c0-0.1-0.1-0.3-0.2-0.4c-0.2-0.1-0.4-0.2-0.6-0.2c-0.5,0-1,0.5-1.3,1c-0.3,0.5-0.5,1.1-0.5,1.8
																	c0,1.3,0.6,2.6,1.5,2.9c0.5,0.1,0.9,0,1.1-0.1C220.2,85.6,220.2,85.5,220.2,85.5z"/>
															</g>
														</g>
													</g>
												</g>
											</g>
										</g>
									</g>
								</g>
							</g>
						</g>
					</g>
				</g>
				<g>
					<g>
						<g>
							<g>
								<path class="st13" d="M225.7,59.2c-1.4-2.8,3.4-6.2,6.7-6.9c3.3-0.8,7.5,1.2,10.6,2.5c2,0.8,3.9,2,6.1,2
									c1.4,0.1,2.9-0.3,4.3-0.7c1.4-0.4,2.9-0.7,4.3-0.5c1.4,0.2,2.8,1.1,3.3,2.5s-0.5,3.1-1.9,3.2c1.9-0.9,4.4,0.7,4.6,2.8
									c0.1,2.1-2.2,3.9-4.2,3.3c1-0.6,2.3,0.7,2.1,1.8c-0.2,1.2-1.3,1.9-2.5,2.3c-2.8,1-6,0.3-8.8-0.9c-2.8-1.2-5.3-2.9-8-4.2
									s-7.3-3.5-10.2-2.7c-2.1,0.6-3.8,3-4.9,2.3c-1.1-0.6-1.7-1.9-1.8-3.1C225.2,61.7,225.4,60.5,225.7,59.2"/>
							</g>
						</g>
					</g>
				</g>
				<g>
					<g>
						<g>
							<g>
								<g>
									<path class="st14" d="M259.8,61.3c-0.1,0-0.4,0.5-1.2,1.2c-0.8,0.7-2,1.6-3.9,2.1c-1.8,0.5-4.1,0.5-6.3-0.8
										c-2.2-1.2-3.9-3.4-6-5.4c-2-2.1-4.5-3.7-7.1-4.2c-2.6-0.5-5,0.3-6.5,1.7c-1.5,1.4-1.9,3.1-1.8,4.1c0,0.5,0.1,1,0.2,1.2
										c0.1,0.3,0.2,0.4,0.2,0.4c0.1,0-0.2-0.6-0.1-1.6c0.1-1,0.5-2.6,1.9-3.8c1.4-1.2,3.7-1.9,6.1-1.4c2.4,0.5,4.8,2,6.8,4
										c2,2,3.8,4.3,6.1,5.5c2.3,1.3,4.8,1.2,6.7,0.7c1.9-0.5,3.2-1.5,3.9-2.3c0.4-0.4,0.6-0.7,0.8-1
										C259.8,61.4,259.8,61.3,259.8,61.3z"/>
								</g>
							</g>
						</g>
					</g>
				</g>
				<g>
					<g>
						<g>
							<g>
								<g>
									<path class="st14" d="M220.8,78.2c0,0,0.3-0.2,0.6-0.7c0.3-0.5,0.6-1.3,0.5-2.4c0-2.1-1.7-4.6-1.7-7.5
										c0-1.5,0.3-2.8,1.1-3.9c0.7-1,1.7-1.6,2.6-1.9c0.9-0.3,1.7-0.2,2.2-0.1c0.5,0.1,0.8,0.3,0.8,0.2c0,0-0.2-0.3-0.8-0.5
										c-0.5-0.2-1.4-0.3-2.4-0.1c-1,0.2-2.2,0.9-3,2c-0.8,1.1-1.2,2.7-1.2,4.2c0,1.6,0.5,3,0.9,4.3c0.5,1.2,0.8,2.3,0.9,3.3
										C221.7,77.1,220.7,78.1,220.8,78.2z"/>
								</g>
							</g>
						</g>
					</g>
				</g>
			</g>
		</g>
	</g>
</g>
<g id="Lines">
	<g>
		<g>
			<g>
				<g>
					<path class="st6" d="M248,268.9c0,0-0.5,0-1.5,0c-1,0-2.5,0-4.4,0.1c-3.8,0.1-9.5,0.2-16.8,0.6c-7.3,0.4-16.2,1-26.5,2.2
						c-5.1,0.6-10.6,1.3-16.4,2.3c-5.8,0.9-11.9,2.1-18.2,3.5c-6.4,1.4-13,3.2-19.7,5.4c-6.7,2.2-13.7,4.9-20.4,8.4
						c-3.4,1.8-6.7,3.8-9.8,6.3c-3.1,2.4-6,5.3-8,8.8c-0.2,0.4-0.5,0.9-0.7,1.3l-0.6,1.4l-0.3,0.7c-0.1,0.2-0.1,0.5-0.2,0.7
						l-0.4,1.5c-0.2,2-0.3,4.1,0.3,6.1c1,4.1,3.7,7.5,6.7,10.5c6.3,5.9,14.3,10,22.5,13.4c8.3,3.4,17.2,6.1,26.3,8.3
						c18.2,4.4,37.5,7,57.3,8.4c19.8,1.4,39.3,1.3,58,0.2c18.7-1.1,36.7-3.4,53.6-7c8.4-1.8,16.5-4,24.3-6.5
						c7.7-2.6,15.1-5.7,21.7-9.5c3.3-1.9,6.4-4.1,9.2-6.5c2.7-2.4,5.1-5.2,6.6-8.4l0.5-1.2c0.2-0.4,0.3-0.8,0.4-1.2l0.3-1.3
						c0-0.2,0.1-0.4,0.1-0.6l0.1-0.6c0.2-1.7,0.1-3.4-0.4-5c-0.5-1.6-1.3-3.1-2.1-4.5c-0.9-1.4-2-2.7-3.1-3.8
						c-2.3-2.3-4.8-4.3-7.3-6c-2.6-1.7-5.2-3.3-7.8-4.6c-5.2-2.8-10.3-4.9-15.1-6.7c-9.7-3.7-18.3-6-25.4-7.8
						c-7.1-1.8-12.6-2.9-16.4-3.6c-1.9-0.4-3.3-0.6-4.3-0.8c-1-0.2-1.5-0.3-1.5-0.3s2,0.3,5.8,1s9.3,1.8,16.4,3.5
						c7.1,1.7,15.7,4.1,25.4,7.7c4.8,1.8,10,4,15.2,6.7c2.6,1.4,5.2,2.9,7.8,4.6c2.6,1.7,5.1,3.7,7.4,6.1c1.2,1.2,2.2,2.5,3.1,3.9
						c0.9,1.4,1.7,2.9,2.2,4.6c0.5,1.7,0.6,3.4,0.4,5.2l-0.1,0.7c0,0.2-0.1,0.4-0.1,0.6l-0.3,1.3c-0.1,0.4-0.3,0.8-0.4,1.3l-0.5,1.2
						c-1.5,3.3-3.9,6.1-6.7,8.6c-2.8,2.5-5.9,4.6-9.2,6.6c-6.7,3.8-14,6.9-21.8,9.5c-7.8,2.6-15.9,4.8-24.3,6.6
						c-16.9,3.6-34.9,5.9-53.6,7c-18.7,1.1-38.2,1.1-58.1-0.2c-19.8-1.4-39.2-4-57.4-8.5c-9.1-2.2-18-4.9-26.3-8.3
						c-8.3-3.5-16.3-7.6-22.7-13.5c-3.1-3-5.8-6.5-6.8-10.7c-0.6-2.1-0.5-4.2-0.3-6.3l0.4-1.5c0.1-0.3,0.1-0.5,0.2-0.8l0.3-0.7
						l0.6-1.4c0.2-0.5,0.5-0.9,0.8-1.4c2.1-3.6,5-6.5,8.2-8.9c3.1-2.4,6.5-4.5,9.9-6.3c6.8-3.6,13.8-6.2,20.5-8.4
						c6.8-2.2,13.4-3.9,19.8-5.4c6.4-1.4,12.5-2.6,18.3-3.5c5.8-1,11.3-1.6,16.4-2.2c10.3-1.1,19.2-1.8,26.5-2.1
						c7.3-0.3,12.9-0.4,16.8-0.5c1.9,0,3.4,0,4.4,0C247.5,268.9,248,268.9,248,268.9z"/>
				</g>
			</g>
		</g>
		<g>
			<g>
				<g>
					<path class="st6" d="M166.3,193.1c0,0-0.6,0.1-1.7,0.3c-1.1,0.2-2.8,0.5-4.9,1c-4.3,0.9-10.7,2.3-18.8,4.5
						c-8.1,2.3-18,5.3-28.9,10.2c-2.7,1.2-5.5,2.6-8.3,4.2c-2.8,1.6-5.6,3.3-8.3,5.3c-2.7,2-5.4,4.3-7.7,7c-2.3,2.7-4.3,5.9-5.2,9.5
						c-1,3.6-0.7,7.6,0.8,11.2c1.5,3.6,4,6.9,6.9,9.7c5.9,5.7,13.4,10,21.4,13.7c16.1,7.3,34.5,12.2,54,15.9
						c19.6,3.6,40.4,5.9,62,6.8c21.6,1,44.1,0.7,66.9-1.2c22.9-1.9,45.1-5.3,66.1-10.8c10.5-2.8,20.6-6.1,30.1-10.3
						c4.7-2.1,9.3-4.5,13.6-7.3c4.3-2.8,8.2-5.9,11.5-9.7c3.2-3.7,5.5-8.3,5.7-13.1c0.1-0.6,0-1.2-0.1-1.8c-0.1-0.6,0-1.2-0.2-1.8
						l-0.4-1.7c-0.1-0.6-0.4-1.1-0.6-1.7c-0.8-2.2-2.1-4.2-3.4-6.1c-2.9-3.7-6.4-6.7-10.1-9.4c-3.7-2.6-7.7-4.8-11.6-6.8
						c-7.9-3.9-16-6.9-23.8-9.3c-7.8-2.5-15.5-4.4-22.8-6c-29.4-6.3-53.8-8.1-70.6-9c-8.4-0.4-14.9-0.5-19.4-0.6
						c-2.2,0-3.9-0.1-5-0.1c-1.1,0-1.7-0.1-1.7-0.1s0.6,0,1.7,0c1.1,0,2.8,0,5,0.1c4.4,0.1,11,0.1,19.4,0.5
						c16.8,0.9,41.2,2.5,70.7,8.8c7.4,1.6,15,3.6,22.9,6c7.8,2.4,15.9,5.4,23.9,9.3c4,2,7.9,4.2,11.7,6.8c3.7,2.6,7.3,5.7,10.3,9.5
						c1.4,1.9,2.7,4,3.5,6.2c0.2,0.6,0.5,1.1,0.6,1.7l0.4,1.8c0.2,0.6,0.1,1.2,0.2,1.8c0,0.6,0.1,1.2,0.1,1.8
						c-0.1,2.5-0.7,4.9-1.7,7.2c-1,2.3-2.4,4.4-4,6.3c-3.2,3.8-7.3,7-11.6,9.8c-4.3,2.8-8.9,5.1-13.7,7.3
						c-9.5,4.3-19.7,7.6-30.2,10.4c-21,5.5-43.2,8.9-66.1,10.8c-22.9,1.9-45.4,2.1-67,1.2c-21.6-1-42.5-3.2-62-6.9
						c-19.5-3.7-38-8.6-54.1-16c-8-3.7-15.6-8-21.5-13.8c-3-2.9-5.5-6.1-7-9.8c-1.5-3.7-1.8-7.8-0.8-11.4c0.9-3.7,3-6.9,5.3-9.6
						c2.3-2.8,5-5,7.7-7.1c2.7-2,5.5-3.8,8.3-5.3c2.8-1.6,5.6-2.9,8.3-4.2c10.9-4.9,20.8-7.9,28.9-10.1c8.1-2.2,14.5-3.5,18.9-4.4
						C164,193.5,166.3,193.1,166.3,193.1z"/>
				</g>
			</g>
		</g>
		<g>
			<g>
				<g>
					<path class="st6" d="M201.3,344c-0.3,0.1-1.8,0.3-5,0.8c-3.3,0.5-8.1,1.4-14.2,2.7c-6.1,1.4-13.6,3.2-22,6.2
						c-4.2,1.5-8.6,3.3-13.1,5.7c-2.2,1.2-4.5,2.5-6.6,4.1c-2.2,1.6-4.3,3.3-6.1,5.4c-0.9,1.1-1.8,2.2-2.4,3.5
						c-0.7,1.2-1.2,2.6-1.5,4c-0.1,0.4-0.1,0.7-0.2,1.1l-0.1,1.1c0,0.7,0.1,1.5,0.2,2.2c0.2,0.7,0.3,1.5,0.6,2.2l0.4,1.1l0.2,0.5
						l0.3,0.5c1.4,2.7,3.6,5,6,7.1c2.4,2.1,5.2,3.8,8.1,5.4c5.8,3.2,12.2,5.7,18.9,7.9c6.7,2.2,13.7,3.9,21,5.4
						c14.6,2.9,30.1,4.7,46.3,5.5c16.1,0.8,32.9,0.6,50-0.9c17.1-1.5,33.7-4.1,49.3-8.5c7.8-2.2,15.3-4.9,22.2-8.5
						c3.4-1.8,6.7-3.8,9.7-6.2c0.8-0.6,1.4-1.3,2.1-1.9c0.7-0.6,1.3-1.4,1.9-2.1c1.1-1.5,2.2-3,2.8-4.8c1.5-3.4,1.1-7.3-0.4-10.5
						c-1.6-3.2-4.2-5.8-6.9-8c-5.5-4.4-11.8-7.3-17.9-9.8c-6.1-2.4-12.3-4.3-18.2-5.8c-5.9-1.5-11.7-2.7-17.2-3.7
						c-22.2-3.9-40.4-4.6-53-4.8c-12.5-0.1-18.8-0.1-19.5-0.1c0,0,7-0.1,19.5,0c12.6,0.2,30.8,0.9,53,4.8c5.5,1,11.3,2.2,17.3,3.7
						c5.9,1.5,12.1,3.4,18.2,5.8c6.1,2.5,12.4,5.4,18,9.8c2.7,2.2,5.3,4.8,7,8.1c1.6,3.3,2,7.3,0.5,10.8c-0.6,1.8-1.7,3.3-2.9,4.8
						c-0.6,0.7-1.2,1.4-1.9,2.1c-0.7,0.6-1.4,1.3-2.1,1.9c-2.9,2.4-6.3,4.5-9.7,6.3c-6.9,3.6-14.5,6.2-22.3,8.5
						c-15.6,4.4-32.2,7-49.3,8.5c-17.1,1.5-33.9,1.6-50.1,0.9c-16.2-0.8-31.7-2.6-46.3-5.6c-7.3-1.5-14.3-3.2-21-5.4
						c-6.7-2.2-13.1-4.7-18.9-7.9c-2.9-1.6-5.7-3.4-8.1-5.4c-2.4-2.1-4.6-4.4-6.1-7.2l-0.3-0.5l-0.2-0.5l-0.4-1.1
						c-0.3-0.7-0.4-1.5-0.6-2.2c-0.1-0.8-0.2-1.5-0.2-2.3l0.1-1.1c0-0.4,0.1-0.7,0.2-1.1c0.3-1.5,0.8-2.8,1.5-4.1
						c0.7-1.3,1.5-2.4,2.4-3.5c1.9-2.1,4-3.9,6.2-5.5c2.2-1.6,4.4-2.9,6.7-4.1c4.5-2.4,8.9-4.2,13.1-5.7c8.4-3,15.9-4.8,22.1-6.2
						c6.1-1.3,11-2.1,14.2-2.6C199.6,344.2,201.3,344,201.3,344z"/>
				</g>
			</g>
		</g>
		<g>
			<g>
				<g>
					<path class="st6" d="M331.9,435.5c-0.1,0,0.1-1.4-0.8-3.6c-0.9-2.3-3.4-5.1-7.3-7.7c-7.9-5.2-21-9.5-37.5-12.2
						c-8.3-1.3-17.4-2.3-27.3-2.7c-9.9-0.4-20.4-0.3-31.5,0.6c-5.5,0.4-11.2,1.1-16.9,2c-5.7,0.9-11.6,2.1-17.4,3.7
						c-2.9,0.8-5.8,1.7-8.7,2.7c-2.9,1.1-5.7,2.3-8.5,3.7c-2.7,1.5-5.4,3.2-7.7,5.3c-2.3,2.1-4.1,5-4.2,8.2c0,3.2,1.9,6.1,4.2,8.2
						c2.3,2.2,4.9,3.9,7.7,5.3c2.8,1.4,5.6,2.6,8.5,3.7c2.9,1.1,5.8,2,8.7,2.8c5.8,1.6,11.6,2.7,17.4,3.7c5.7,0.9,11.4,1.5,16.9,2
						c11.1,0.9,21.6,1,31.5,0.6c9.9-0.4,19-1.3,27.3-2.7c16.5-2.7,29.7-7,37.5-12.2c3.9-2.6,6.4-5.4,7.3-7.7
						C332,436.8,331.8,435.4,331.9,435.5c0,0.2,0,0.4-0.1,1c0,0.3-0.1,0.7-0.2,1.2c-0.1,0.5-0.3,1-0.5,1.5c-0.9,2.3-3.4,5.2-7.3,7.8
						c-7.9,5.2-21,9.6-37.5,12.3c-8.3,1.4-17.4,2.3-27.3,2.7c-9.9,0.4-20.4,0.3-31.5-0.6c-5.5-0.4-11.2-1.1-16.9-2
						c-5.7-0.9-11.6-2.1-17.4-3.7c-2.9-0.8-5.8-1.7-8.7-2.8c-2.9-1.1-5.7-2.3-8.5-3.7c-2.8-1.5-5.4-3.2-7.7-5.4
						c-1.1-1.1-2.2-2.3-2.9-3.7c-0.8-1.4-1.3-3-1.3-4.6c0-1.6,0.5-3.2,1.3-4.6c0.8-1.4,1.8-2.6,3-3.7c2.3-2.2,5-3.9,7.7-5.4
						c2.8-1.5,5.6-2.7,8.5-3.7c2.9-1.1,5.8-2,8.7-2.8c5.8-1.6,11.7-2.7,17.4-3.7c5.7-0.9,11.4-1.5,16.9-2c11.1-0.9,21.6-1,31.5-0.6
						c9.9,0.4,19,1.3,27.3,2.7c16.5,2.7,29.7,7,37.5,12.2c3.9,2.6,6.4,5.5,7.3,7.8c0.2,0.6,0.4,1.1,0.5,1.5c0.1,0.5,0.2,0.8,0.2,1.2
						C331.9,435.1,331.9,435.3,331.9,435.5z"/>
				</g>
			</g>
		</g>
		<g>
			<g>
				<path class="st6" d="M111,280.4c0,1.8-1.4,3.2-3.2,3.2s-3.2-1.4-3.2-3.2c0-1.8,1.4-3.2,3.2-3.2S111,278.6,111,280.4z"/>
			</g>
		</g>
		<g>
			<g>
				<circle class="st6" cx="396.5" cy="282.5" r="3.2"/>
			</g>
		</g>
		<g>
			<g>
				<path class="st6" d="M269.5,400.2c0,1.8-1.4,3.2-3.2,3.2c-1.8,0-3.2-1.4-3.2-3.2c0-1.8,1.4-3.2,3.2-3.2
					C268.1,397,269.5,398.4,269.5,400.2z"/>
			</g>
		</g>
		<g>
			<g>
				<path class="st6" d="M172.5,318.1c0,0.9-0.7,1.6-1.6,1.6c-0.9,0-1.6-0.7-1.6-1.6c0-0.9,0.7-1.6,1.6-1.6
					C171.8,316.5,172.5,317.2,172.5,318.1z"/>
			</g>
		</g>
		<g>
			<g>
				<path class="st6" d="M371.1,356.8c0,0.9-0.7,1.6-1.6,1.6s-1.6-0.7-1.6-1.6s0.7-1.6,1.6-1.6S371.1,355.9,371.1,356.8z"/>
			</g>
		</g>
		<g>
			<g>
				<path class="st6" d="M245,430.6c0,0.9-0.7,1.6-1.6,1.6c-0.9,0-1.6-0.7-1.6-1.6c0-0.9,0.7-1.6,1.6-1.6
					C244.3,429,245,429.8,245,430.6z"/>
			</g>
		</g>
	</g>
	<g>
		<g>
			<circle class="st6" cx="161.7" cy="151.2" r="0.8"/>
		</g>
	</g>
</g>
<g id="Front_Screens">
	<g>
		<g>
			<g>
				<path class="st6" d="M305.6,274c-38.8,10.3-76.1,9.5-116.9,0l-4.8-74.5c42.1,8.2,84.3,7.2,121.6-1.8V274z"/>
			</g>
		</g>
		<g>
			<g class="st7">
				<g>
					<path class="st8" d="M305.6,274c-38.8,10.3-76.1,9.5-116.9,0l-4.8-74.5c42.1,8.2,84.3,7.2,121.6-1.8V274z"/>
				</g>
			</g>
			<g>
				<g>
					<g>
						<path class="st6" d="M299.6,262.6c0,0-0.1,0-0.2,0.1c-0.2,0.1-0.4,0.2-0.7,0.3c-0.6,0.3-1.6,0.7-2.8,1.1
							c-2.5,0.9-6.1,2.2-10.7,3.4c-9.2,2.4-22.3,4.4-36.8,4.2c-14.5-0.2-27.5-2.2-36.9-3.9c-4.7-0.9-8.4-1.7-11-2.3
							c-1.3-0.3-2.3-0.5-3-0.7c-0.3-0.1-0.6-0.1-0.8-0.2c-0.2,0-0.3-0.1-0.3-0.1s0.1,0,0.3,0c0.2,0,0.5,0.1,0.8,0.1
							c0.7,0.1,1.7,0.4,3,0.6c2.6,0.5,6.4,1.3,11,2.1c9.3,1.7,22.3,3.6,36.8,3.8c14.5,0.2,27.5-1.7,36.7-4c4.6-1.2,8.3-2.3,10.8-3.2
							c1.3-0.4,2.2-0.8,2.9-1c0.3-0.1,0.6-0.2,0.8-0.3C299.5,262.7,299.6,262.6,299.6,262.6z"/>
					</g>
				</g>
			</g>
			<g>
				<g>
					<path class="st6" d="M242.7,265.7c-4.9,1.4-9.9,1.1-14.9-0.5v-26.5c5-1,10-1,14.9,0V265.7z"/>
				</g>
			</g>
			<g>
				<g>
					<g>
						<path class="st6" d="M266.8,264.1c0,0,0-0.1,0-0.2c0-0.2,0-0.3,0-0.6c0-0.5,0-1.3-0.1-2.2c0-2-0.1-4.7-0.2-8.2
							c-0.1-7-0.3-16.9-0.4-28.3l0.2,0.2c-4.8-1-10.1-1-15.4,0l0.2-0.3c0,0.2,0,0.3,0,0.5c0.2,15.7,0.3,29.8,0.4,39.9l-0.1-0.2
							c2.4,0.5,4.6,0.8,6.5,0.8c1.9,0,3.6-0.2,4.9-0.4c1.3-0.3,2.3-0.6,3-0.8c0.3-0.1,0.6-0.2,0.8-0.3
							C266.7,264.1,266.8,264.1,266.8,264.1c0,0-0.1,0-0.2,0.1c-0.2,0.1-0.4,0.2-0.8,0.3c-0.7,0.2-1.7,0.6-3,0.9
							c-1.3,0.3-3,0.5-5,0.5c-1.9,0-4.2-0.2-6.6-0.7l-0.1,0l0-0.1c-0.1-10.1-0.3-24.2-0.6-39.9c0-0.2,0-0.4,0-0.5l0-0.2l0.2,0
							c5.4-1,10.8-1,15.6,0l0.2,0l0,0.2c0.1,11.5,0.2,21.3,0.2,28.4c0,3.5,0,6.2,0,8.2c0,0.9,0,1.6,0,2.2c0,0.2,0,0.4,0,0.6
							C266.8,264,266.8,264.1,266.8,264.1z"/>
					</g>
				</g>
			</g>
			<g>
				<g>
					<path class="st6" d="M289.7,261c-4,2.2-9.3,2.5-14.9,2.1v-43.8c5.1-1.1,10.1-1.3,14.9,0V261z"/>
				</g>
			</g>
			<g>
				<g>
					<g>
						<path class="st6" d="M219,263.5c0,0,0-0.4-0.1-1.1c0-0.8,0-1.8-0.1-3.1c0-2.7-0.1-6.4-0.1-10.7l0.1,0.2c-4-1.5-9-2.9-14.4-2.4
							l0,0l0.2-0.3c0,5.5,0,10.6,0,14.9l-0.1-0.2c2,0.9,4,1.3,5.8,1.6c1.8,0.3,3.3,0.5,4.6,0.6c1.2,0.1,2.2,0.2,3,0.3
							C218.6,263.5,219,263.5,219,263.5s-0.3,0-1.1,0c-0.7,0-1.7,0-3-0.1c-1.3-0.1-2.9-0.2-4.6-0.5c-1.8-0.3-3.8-0.7-5.9-1.6
							l-0.1-0.1v-0.2c0-4.4,0-9.5,0-14.9l0-0.2l0.2,0l0,0c5.5-0.5,10.6,1,14.6,2.5l0.1,0.1l0,0.2c0,4.5-0.1,8.2-0.1,10.9
							c0,1.2,0,2.3-0.1,3C219,263.2,219,263.5,219,263.5z"/>
					</g>
				</g>
			</g>
			<g>
				<g>
					<g>
						<g>
							<path class="st6" d="M226,224.8c0,0.1-1.1,0.2-2.9,0.2c-1.8,0-4.3,0-7.1-0.2c-2.8-0.2-5.2-0.4-7-0.7
								c-1.8-0.2-2.9-0.5-2.9-0.5c0-0.1,1.1,0,2.9,0.2s4.3,0.3,7,0.5c2.7,0.2,5.2,0.3,7,0.3C224.9,224.7,226,224.7,226,224.8z"/>
						</g>
					</g>
				</g>
				<g>
					<g>
						<g>
							<path class="st6" d="M223.8,228c0,0.1-1,0.1-2.6,0s-3.8-0.2-6.2-0.4c-2.4-0.2-4.6-0.4-6.2-0.5s-2.5-0.3-2.5-0.4
								c0-0.1,1-0.1,2.6,0c1.6,0.1,3.8,0.2,6.2,0.4c2.4,0.2,4.6,0.4,6.2,0.5C222.8,227.8,223.8,228,223.8,228z"/>
						</g>
					</g>
				</g>
				<g>
					<g>
						<g>
							<path class="st6" d="M229.2,232.3c0,0,0-0.3,0-0.9c0-0.6,0.1-1.5,0.1-2.6c0.1-2.3,0.3-5.4,0.4-9.3l0.2,0.2
								c-7.2,0.1-17-0.2-27.6-1.5c-0.3,0.2,0.4-0.3,0.3-0.2v0v0l0,0l0,0l0,0.1l0,0.1l0,0.2l0,0.4l0,0.8c0,0.6-0.1,1.1-0.1,1.7
								c-0.1,1.1-0.1,2.2-0.2,3.3c-0.1,2.1-0.3,4.2-0.4,6.2l-0.2-0.3c8,1,14.9,1.4,19.8,1.6c2.4,0.1,4.3,0.1,5.7,0.2
								c0.6,0,1.1,0,1.5,0C229,232.3,229.2,232.3,229.2,232.3s-0.2,0-0.5,0c-0.3,0-0.9,0-1.6,0c-1.3,0-3.3,0-5.7,0
								c-4.9-0.1-11.8-0.5-19.8-1.4l-0.2,0l0-0.2c0.1-2,0.2-4.1,0.4-6.2c0.1-1.1,0.1-2.2,0.2-3.3c0-0.6,0.1-1.1,0.1-1.7l0-0.8l0-0.4
								l0-0.2l0-0.1l0-0.1l0,0l0,0v0v0c-0.1,0.1,0.6-0.5,0.3-0.2c10.6,1.3,20.4,1.7,27.6,1.7h0.2l0,0.2c-0.3,3.9-0.5,7.2-0.6,9.4
								c-0.1,1.1-0.1,1.9-0.2,2.5C229.3,232,229.2,232.3,229.2,232.3z"/>
						</g>
					</g>
				</g>
			</g>
			<g>
				<g>
					<g>
						<path class="st6" d="M232.6,237.9c-0.1,0.1-1-1.1-1.9-2.7c-1-1.5-1.6-2.9-1.5-2.9c0.1-0.1,1,1.1,1.9,2.7
							C232.1,236.5,232.8,237.9,232.6,237.9z"/>
					</g>
				</g>
			</g>
		</g>
	</g>
	<g>
		<g>
			<g>
				<path class="st6" d="M70.6,141l12.7,76.7c0,0,19.3,36.2,70.7,44.4l-8.3-68.4C145.8,193.6,98.2,178.9,70.6,141z"/>
			</g>
		</g>
		<g class="st7">
			<g>
				<path class="st8" d="M70.6,141l12.7,76.7c0,0,19.3,36.2,70.7,44.4l-8.3-68.4C145.8,193.6,98.2,178.9,70.6,141z"/>
			</g>
		</g>
		<g>
			<g>
				<g>
					<path class="st6" d="M147.4,256.6c0,0-0.1,0-0.3-0.1c-0.2-0.1-0.6-0.2-0.9-0.3c-0.9-0.3-2.1-0.6-3.6-1.1
						c-1.6-0.5-3.5-1-5.7-1.9c-1.1-0.4-2.3-0.9-3.5-1.3c-1.2-0.5-2.6-1-3.9-1.6c-2.7-1.2-5.6-2.5-8.7-4.2c-3.1-1.6-6.2-3.5-9.5-5.6
						c-6.5-4.3-13.2-9.8-19.1-16.6c-2.6-3.1-5-6.2-6.9-9.6l0,0l0,0c-2.3-14.9-4.3-28.1-5.8-37.5c-0.7-4.7-1.3-8.4-1.7-11.1
						c-0.2-1.3-0.3-2.3-0.4-3c0-0.3-0.1-0.6-0.1-0.8c0-0.2,0-0.3,0-0.3c0,0,0,0.1,0.1,0.3c0,0.2,0.1,0.4,0.1,0.8
						c0.1,0.7,0.3,1.7,0.5,3c0.4,2.6,1,6.4,1.8,11c1.5,9.4,3.6,22.5,6,37.5l0-0.1c1.8,3.3,4.2,6.5,6.8,9.5
						c5.9,6.7,12.5,12.2,19,16.5c3.3,2.1,6.4,4.1,9.5,5.6c3,1.7,6,3,8.6,4.2c1.3,0.6,2.6,1.2,3.9,1.6c1.2,0.5,2.4,0.9,3.5,1.4
						c2.2,0.9,4.1,1.4,5.6,2c1.5,0.5,2.7,0.9,3.6,1.2c0.4,0.1,0.7,0.2,0.9,0.3C147.3,256.5,147.4,256.6,147.4,256.6z"/>
				</g>
			</g>
		</g>
		<g>
			<g>
				<g>
					<path class="st6" d="M142.9,234.3c0,0-0.1,0.1-0.2,0.2c-0.1,0.1-0.3,0.3-0.5,0.4c-0.5,0.4-1.2,1-2.1,1.7
						c-1.9,1.5-4.6,3.6-8.1,6.2l-0.1,0.1l-0.1-0.1c-2.7-3.8-6.1-8.4-9.9-13.7l0.3,0.1c-2.4,1.7-4.9,3.5-7.6,5.4l-0.3,0.2l-0.1-0.3
						c-3-8-6.3-17-9.8-26.5c-0.5-1.3-0.9-2.6-1.4-3.8l0.5,0c-2.1,4.2-4.2,8.3-6.2,12.2l-0.3,0.5l-0.2-0.6
						c-5.4-15.5-9.9-28.6-12.9-37.1l0.3,0c-0.8,3.4-1.4,6.1-1.9,8c-0.2,0.9-0.4,1.6-0.5,2.1c-0.1,0.2-0.1,0.4-0.1,0.5
						c0,0.1-0.1,0.2-0.1,0.2c0,0,0-0.1,0-0.2c0-0.1,0.1-0.3,0.1-0.5c0.1-0.5,0.3-1.2,0.4-2.1c0.4-1.9,1-4.6,1.8-8l0.1-0.5l0.2,0.5
						c3,8.5,7.6,21.6,13.1,37.1l-0.5,0c2-3.9,4-8,6.2-12.2l0.3-0.5l0.2,0.6c0.5,1.3,0.9,2.5,1.4,3.8c3.5,9.5,6.8,18.5,9.7,26.5
						l-0.4-0.1c2.7-1.9,5.2-3.7,7.6-5.4l0.2-0.1l0.1,0.2c3.8,5.3,7.1,10,9.8,13.7l-0.2,0c3.5-2.6,6.2-4.6,8.2-6.1
						c0.9-0.7,1.7-1.2,2.2-1.6c0.2-0.2,0.4-0.3,0.6-0.4C142.8,234.4,142.9,234.3,142.9,234.3z"/>
				</g>
			</g>
		</g>
		<g>
			<g>
				<g>
					<path class="st6" d="M141.1,197.5c0,0-0.4-0.1-1.1-0.2c-0.7-0.2-1.7-0.5-2.9-0.9c-2.4-0.8-5.7-2-9.2-3.6
						c-3.5-1.6-6.6-3.3-8.8-4.5c-1.1-0.6-2-1.2-2.6-1.6c-0.6-0.4-0.9-0.6-0.9-0.6c0,0,0.4,0.1,1,0.5c0.7,0.4,1.6,0.9,2.6,1.4
						c2.2,1.2,5.3,2.8,8.9,4.4c3.5,1.6,6.8,2.9,9.1,3.7c1.1,0.4,2,0.8,2.8,1C140.8,197.4,141.2,197.5,141.1,197.5z"/>
				</g>
			</g>
		</g>
		<g>
			<g>
				<g>
					<path class="st6" d="M143.2,200.7c0,0.1-1-0.1-2.5-0.4c-1.5-0.4-3.6-0.9-5.8-1.7c-2.2-0.8-4.2-1.7-5.6-2.3
						c-1.4-0.7-2.2-1.2-2.2-1.2c0-0.1,0.9,0.3,2.3,0.9c1.4,0.6,3.4,1.4,5.6,2.2c2.2,0.8,4.3,1.4,5.7,1.9
						C142.3,200.4,143.2,200.7,143.2,200.7z"/>
				</g>
			</g>
		</g>
		<g>
			<g>
				<path class="st6" d="M122.9,229.1c0,0.6-0.4,1.1-0.9,1.1s-0.9-0.5-0.9-1.1s0.4-1.1,0.9-1.1S122.9,228.5,122.9,229.1z"/>
			</g>
		</g>
		<g>
			<g>
				<ellipse class="st6" cx="103.3" cy="204.9" rx="0.9" ry="1.1"/>
			</g>
		</g>
		<g>
			<g>
				<path class="st6" d="M85.1,179.6c0,0.6-0.4,1.1-0.9,1.1s-0.9-0.5-0.9-1.1s0.4-1.1,0.9-1.1S85.1,178.9,85.1,179.6z"/>
			</g>
		</g>
	</g>
	<g>
		<g>
			<g>
				<path class="st6" d="M406,154.6l-6.4,77.9c0,0-18.5,33.3-69.6,34.6l6.3-78.4C336.3,188.7,380.9,186.9,406,154.6z"/>
			</g>
		</g>
		<g>
			<g>
				<path class="st6" d="M405,150.6c-1.7-5.4-5.7-13.1-15.3-14.7l-11.4,104.8c0,0,21.3-4.3,21.9-15.9c0-1,4.3-53.1,5.4-66
					C405.9,155.9,405.9,153.3,405,150.6z"/>
			</g>
		</g>
		<g class="st7">
			<g>
				<path class="st8" d="M406,154.6l-6.4,77.9c0,0-18.5,33.3-69.6,34.6l6.3-78.4C336.3,188.7,380.9,186.9,406,154.6z"/>
			</g>
		</g>
		<g>
			<g>
				<path class="st6" d="M404.5,174.5c-5.1,7.4-8,16.2-8.1,25.2c-0.1,2.6,0.1,5.3-0.9,7.7s-3.5,4.4-6,3.7c-2.6-0.7-3.8-3.8-6.1-5.2
					c-2-1.3-4.8-1.1-6.9,0.1s-3.5,3.3-4.5,5.5c-1.9,4.3-2,9.1-3.3,13.5s-4.7,8.9-9.4,9.1c-1.7,0.1-3.4-0.4-5.1-0.4
					c-3.6,0.1-6.7,2.8-8.4,6c-1.7,3.2-2.2,6.8-2.7,10.4c0,0,27.2,2.6,57.8-33.5L404.5,174.5z"/>
			</g>
		</g>
		<g>
			<g>
				<path class="st6" d="M361.2,221.8c0,1-0.5,1.8-1.1,1.8s-1.1-0.8-1.1-1.8s0.5-1.8,1.1-1.8C360.7,220,361.2,220.8,361.2,221.8z"/>
			</g>
		</g>
		<g>
			<g>
				<path class="st6" d="M374,189.4c0,1-0.5,1.8-1.1,1.8s-1.1-0.8-1.1-1.8s0.5-1.8,1.1-1.8S374,188.4,374,189.4z"/>
			</g>
		</g>
		<g>
			<g>
				<g>
					<path class="st6" d="M403.8,178.3c0,0,0,0.2-0.2,0.4c-0.1,0.3-0.3,0.7-0.6,1.3c-0.5,1.1-1.3,2.7-2.2,4.8
						c-2,4.1-4.8,9.9-8.1,16.9l-0.1,0.2l-0.2-0.1c-5.7-3.6-12.2-7.7-19.3-12.2l0.4-0.1c-0.3,0.6-0.5,1.3-0.8,2
						c-4.8,11.7-9.1,22.3-12.4,30.4l-0.1,0.2l-0.2-0.1c-4.8-2.7-8.7-4.9-11.4-6.3c-1.4-0.7-2.4-1.3-3.2-1.7
						c-0.3-0.2-0.6-0.3-0.8-0.4c-0.2-0.1-0.3-0.1-0.3-0.1c0-0.1,1.6,0.6,4.4,2c2.8,1.4,6.7,3.5,11.5,6.2l-0.3,0.1
						c3.3-8.1,7.6-18.8,12.3-30.5c0.3-0.7,0.5-1.3,0.8-2l0.1-0.3l0.3,0.2c7,4.5,13.6,8.6,19.2,12.2l-0.3,0.1
						c3.4-6.9,6.3-12.7,8.3-16.8c1-2,1.8-3.6,2.4-4.7c0.3-0.5,0.5-0.9,0.6-1.2C403.7,178.4,403.8,178.3,403.8,178.3z"/>
				</g>
			</g>
		</g>
	</g>
</g>
</svg>
