<?xml version="1.0" encoding="utf-8"?>
<!-- Generator: Adobe Illustrator 22.1.0, SVG Export Plug-In . SVG Version: 6.00 Build 0)  -->
<svg version="1.1" id="Layer_1" xmlns="http://www.w3.org/2000/svg" xmlns:xlink="http://www.w3.org/1999/xlink" x="0px" y="0px"
	 viewBox="0 0 750 500" style="enable-background:new 0 0 750 500;" xml:space="preserve">
<style type="text/css">
	.st0{clip-path:url(#SVGID_2_);fill:#E8EDF9;}
	.st1{clip-path:url(#SVGID_4_);}
	.st2{fill:#121013;}
	.st3{fill:#111A59;}
	.st4{fill:none;stroke:#121013;stroke-linecap:round;stroke-linejoin:round;stroke-miterlimit:10;}
	.st5{fill:#E7B6A9;}
	.st6{fill:#B66868;}
	.st7{fill:#F5F7FF;}
	.st8{fill:#FFFFFF;}
	.st9{clip-path:url(#SVGID_6_);fill:#B66868;}
	.st10{fill:#3D3BAD;}
	.st11{clip-path:url(#SVGID_8_);}
	.st12{fill:#9D5E34;}
	.st13{fill:none;stroke:#1A2732;stroke-linecap:round;stroke-linejoin:round;stroke-miterlimit:10;}
	.st14{fill:#8D58B0;}
	.st15{fill:#48181E;}
	.st16{fill:#B9BECC;}
	.st17{fill:none;stroke:#000000;stroke-linecap:round;stroke-linejoin:round;stroke-miterlimit:10;}
	.st18{fill:none;stroke:#E6AB9A;stroke-linecap:round;stroke-linejoin:round;stroke-miterlimit:10;}
	.st19{clip-path:url(#SVGID_10_);fill:#48181E;}
	.st20{clip-path:url(#SVGID_12_);}
	.st21{fill:#F2BCA5;}
	.st22{fill:#97AFBD;}
	.st23{clip-path:url(#SVGID_14_);}
	.st24{clip-path:url(#SVGID_16_);}
	.st25{fill:#89452F;}
	.st26{fill:#3E86BD;}
	.st27{clip-path:url(#SVGID_18_);fill:#48181E;}
	.st28{clip-path:url(#SVGID_20_);}
	.st29{fill:#6794A1;}
	.st30{clip-path:url(#SVGID_22_);}
</style>
<g>
	<g>
		<g>
			<defs>
				<rect id="SVGID_1_" width="750" height="500"/>
			</defs>
			<clipPath id="SVGID_2_">
				<use xlink:href="#SVGID_1_"  style="overflow:visible;"/>
			</clipPath>
			<path class="st0" d="M413.4,422c-87.2-2.9-175,14.8-261.3,2.2c-32.5-4.7-66.4-15.1-87.3-40.4c-11.9-14.5-18.5-32.8-21.8-51.4
				c-3.5-19.9-3.4-40.5,0.3-60.4c4.5-24.1,17.7-45.6,20.8-69.4c2.7-20.9,16.6-36.3,36.2-44.4c19.1-7.9,40.3-8.4,60.9-9.4
				c20.6-1,42-2.6,60.2-12.4c28.7-15.4,45-48.2,73.9-63.1c24.3-12.5,53.4-10.1,80.2-4.9c26.8,5.3,53.7,13.2,80.9,10.9
				c15.7-1.3,31.1-6.1,46.9-6.4c25.3-0.6,50.6,10.7,67,30c12.8,15,21.3,35.2,39.3,43.5c11,5.1,23.6,4.6,35.3,7.7
				c23.4,6.1,41.2,26.1,50.8,48.3c18.5,42.7,14.7,89.6,9,134.6C692.5,482.1,509.5,425.3,413.4,422z"/>
		</g>
		<g>
			<defs>
				<rect id="SVGID_3_" width="750" height="500"/>
			</defs>
			<clipPath id="SVGID_4_">
				<use xlink:href="#SVGID_3_"  style="overflow:visible;"/>
			</clipPath>
			<g class="st1">
				<path class="st2" d="M186.2,692.5c-5.4,1.2-11.1,2-15.7,4.9c-2.9,1.9-5.2,4.3-5.5,8c-0.1,0.9,0,1.9,0.7,2.4
					c0.5,0.4,1.3,0.4,1.9,0.4c5.2,0,10.2-0.6,15.4-0.6c9.3,0.1,18.7,0.4,28,0.2c17-0.4,14.5-1,15.5-3.4c0.7-1.7,0.6-3.7,0.4-5.5
					c-0.8-8.2-1.6-16.4-2.4-24.6c-0.7-7.1-1.7-14.8-7-19.6c-3.2-2.9-7.5-3.7-11-0.8c-3.3,2.7-3.4,7.8-3.3,11.8c0.1,4,0.7,8,0.1,12
					C202,686.5,194.2,690.7,186.2,692.5z"/>
				<path class="st2" d="M93.6,692.5c-5.4,1.2-11.1,2-15.7,4.9c-2.9,1.9-5.2,4.3-5.5,8c-0.1,0.9,0,1.9,0.7,2.4
					c0.5,0.4,1.3,0.4,1.9,0.4c5.2,0,10.2-0.6,15.4-0.6c9.3,0.1,18.7,0.4,28,0.2c17-0.4,14.5-1,15.5-3.4c0.7-1.7,0.6-3.7,0.4-5.5
					c-0.8-8.2-1.6-16.4-2.4-24.6c-0.7-7.1-1.7-14.8-7-19.6c-3.2-2.9-7.5-3.7-11-0.8c-3.3,2.7-3.4,7.8-3.3,11.8c0.1,4,0.7,8,0.1,12
					C109.5,686.5,101.6,690.7,93.6,692.5z"/>
				<path class="st3" d="M164.4,367.4h-37.5c-8.4,21.8-8.4-1.5-14.5,21.1c-2.9,10.7-10.9,62.7-12.6,73.6
					c-1.8,11.1-2.7,22.2-3.3,33.4c-1.1,22.3-2.8,48.9-2.7,71.2c0.1,37.9,1.7,77.2,0.3,111.1c6,1.2,39.5,1.8,53.8-0.4
					c1.1-0.2,1.9-1.2,1.9-2.3c-1-20.4,6.1-196.1,9.8-216.6c4.8-26.9,12.1-29.7,8.8-56.9C167,390.6,167.8,378.3,164.4,367.4z"/>
				<path class="st3" d="M222.3,439.1c0.6-7.5,0.9-15-0.3-22.8c-1.7-10.8-5.6-21.2-11.5-30.4c-4.1-6.4-9.5-12.4-16.6-15.2
					c-6.5-2.6-14.1-2.3-20.6,0.5c-23.4,10.1-19.2,41.2-20.2,62c-0.7,16.1,6.6,63.5,8.4,80.1c6.9,64.2,18.1,111.5,22.2,165.6
					c7,0.3,14.4-0.3,21.5-0.8c7.7-0.5,22-1.3,29.5-3.4c2.2-0.8,0.1-28.9,0-32.1c-0.4-10.8-1.2-21.6-2.1-32.3
					c-1.8-22.1-4.3-44.1-5.8-66.2c-0.8-11.8-3.3-23.5-4.1-35.3c-1.1-16.7-3.1-33.2-2.2-50C220.9,452,221.7,445.5,222.3,439.1z"/>
				<path class="st4" d="M157,480.9c-0.9-28.3-1.6-32.3-2.5-60.5"/>
				<g>
					<path class="st5" d="M240.1,376.2c3.7,10.2,7.3,20.5,8.7,31.3c0.6,4.3,1.5,9.5,0.7,13.7c-1,5.3-3.8,10.7-5.6,15.8
						c-0.7,2-0.8,6.6,2.4,4.8c1.1-0.6,2.4-8.5,4.8-4.6c0.4,0.6,0.5,1.3,0.6,2c0.4,3.7,0.4,7.3,0.8,11c0.3,2.8,0.4,5.7,1.5,8.4
						c1.1,2.6,3.4,5,6.2,5.2c2.6,0.1,5-1.7,6.3-4c1.3-2.3,1.7-4.9,2-7.5c1.2-10.5,0.8-21.2,0.9-31.8c0-21.7-5-61.7-8.9-77.7
						c-2.8-11.3-6.1-22.5-10.1-33.4c-3.5-9.6-6.3-19.8-12.5-28.1c-4-5.4-9.4-10-15.9-12c-3.6-1.2-7.9-1.4-11,0.8
						c-3,2.1-4.2,5.9-4.6,9.6c-1.7,13.7,4.6,26.9,10.3,39.5c7.4,16.2,14.3,32.7,20.5,49.5C238.2,371,239.2,373.6,240.1,376.2z"/>
					<path class="st5" d="M84.5,144.4c-1.5,4.3-2,8.9-4,13.1c-0.8,1.7-1.7,3.2-2.4,4.9c-1.5,3.8-0.9,7.3-0.4,11.1
						c-7.7-0.7-15.2-2.1-22.7-3.8c0.6-12.5-0.7-25,0-37.6c0.2-2.2,0.2-4.2,0.5-6.4c0.3-1.8,0.6-3.6,1.7-5.1c2-2.6,2.5,0.5,2.3,2.1
						c-0.3,2.6-0.5,5.2-0.5,7.8c0,0.9,0.5,4.3-0.5,4.8c0.4-0.2,0.9-0.4,1.3-0.5c0.1-0.8,0.2-1.5,0.3-2.3c0.6-4.5,1.5-9,3-13.3
						c0.2-0.7,0.6-1.5,1.3-1.7c0.8-0.2,1.6,0.4,1.8,1.2c0.8,2.3-0.3,5.5-0.8,7.7c-0.4,2.3-0.8,4.6-1.1,6.9c0,0.4-0.1,0.7-0.1,1.1
						c0.7,0,1.3,0,2,0.1c0.9-5.1,1.9-10.1,3-15.1c0.2-1,1-1.9,2.2-1.8c1,0.1,2,1.1,1.8,2.2c-1.2,5-2.2,10-3.1,15.1
						c0.8,0.1,1.6,0.2,2.3,0.5c0.5-4.3,1.4-8.6,2.3-12.9c0.2-0.9,1.6-2.9,2.6-1.6c0.4,0.5,0.4,1.1,0.4,1.7
						c-0.2,5.9-1.5,11.8-1.9,17.7c-0.1,1.9-1.2,3.9-0.2,5.6c0.9,1.7,2.7,2.4,3.5,0.3c0.9-2.4,1.8-5,3.3-7.2c0.6-1,2.5-3.8,3.5-1.4
						c0.4,0.8,0.1,1.8-0.2,2.6C85,141.5,85,142.9,84.5,144.4z"/>
					<path class="st5" d="M150.7,255.9c-10.4-4.8-41.4-18.7-51.8-23.5c-4.8-2.2-9.8-4.6-13-8.8c-6-7.9-6.3-21.2-6.9-30.7
						c-0.6-10-1.6-20-1.5-30c0-0.5,0-1,0.1-1.6c-7,0.9-14,1.4-21,1.3c-1.5,6.4-3.2,12.7-4.2,19.2c-2,12.7-2.8,25.7-1.8,38.5
						c1.1,13.8,2.8,28.6,12,39c3.8,4.3,8.7,7.6,13.5,10.6c9.8,6.1,19.9,11.6,30.3,16.6c3.7,1.7,7.4,3.4,11.1,5
						c5,2.1,10.3,4.2,15.8,4c8.9-0.3,17.6-9.6,19.7-17.9C156.8,262.2,162.7,261.5,150.7,255.9z"/>
					<path class="st6" d="M150.7,255.9c-8.1-3.8-31.5-14.4-45.1-20.6c-0.2,3-1,5.9-2,8.7c-3,8.1-8.1,16.3-15,21.6
						c-3.1,2.4-6.6,4.3-10.3,5.5c9.1,5.6,18.4,10.6,28,15.2c3.7,1.7,7.4,3.4,11.1,5c5,2.1,10.3,4.2,15.8,4
						c8.9-0.3,17.6-9.6,19.7-17.9C156.8,262.2,162.7,261.5,150.7,255.9z"/>
					<path class="st7" d="M160.1,254.5c-0.2-2.1-0.6-4.1-1.1-6c-0.3-1.3-0.7-2.6-1.5-3.7c-1.9-2.4-5.4-2.5-8.4-2.5
						c-7.3,0-32.8-6.7-37.7-7.4c-1.2,2.5-2.3,5-3.4,7.6c-5.5,12.7-13.3,26.1-16.3,39.5c10.3,5.7,20.5,11.7,30.9,17.2
						c7.2,3.7,15,1,21.4-3.7C157.2,285.7,160.1,269.7,160.1,254.5z"/>
					<path class="st7" d="M193.1,429.1c-29.1-0.3-64.6,0.6-93.5-2.4c2-22.1,10-71.5,12.3-93.5c1.1-10.5,2.3-21,3.6-31.5
						c1-7.5,3.8-16,3.8-23.5c1.7-7.4,4.2-14.6,8.5-20.8c5.6-8,13.1-12.4,22.7-13.1c5.9-0.4,11.9-0.7,17.8-0.9c4-0.2,8-0.3,11.8,0.9
						c6,2,10.4,7.3,13.7,12.7c9.4,15.1,14.3,33.9,17.5,51.2c5.8,31.5,16.2,90,18.9,121.8C221.4,430.1,202,429.2,193.1,429.1z"/>
					<path class="st7" d="M238,307.7c5.6-1.8,11.3-3.6,16.9-5.4c-7-17-4.2-35.9-18.2-47.8c-8.2-7-30.2-10-40.8-12
						c-6.8-1.3-22.9-2.9-28.1,2.6c-7.5,7.8,4.8,15.7,8.4,21.4c3.8,5.9,6.5,12.8,8.8,19.4c1.8,5.2,6,9.7,8.7,14.5
						c3.4,6,6.4,12.2,8.9,18.6C214.4,315.2,226.2,311.5,238,307.7z"/>
					<path class="st5" d="M177.4,246.5c-2,2.5-4.6,4.6-7.6,5.8c-5.1,2.2-11.5,1.6-15.7-2.1c-0.9-0.8-1.6-1.7-2.1-2.7
						c-0.5-1.2-0.5-2.6-0.5-3.9c0.1-4.3,0.7-8.3,0.7-12.6c0-0.3,0-0.7-0.3-1c-0.2-0.2-0.6-0.3-1-0.3c-17,0-10-26.4-8.9-35.5
						c0.2-2,0.5-4.1,2-5.4c1.8-1.6,4.4-1.5,6.8-1.4c4.5,0.1,8.9-0.5,13.4-0.2c7.5,0.6,15.7,5.6,17,13.6c0.4,2.5,0.1,5-0.2,7.5
						c-1.1,9-2.2,18.1-1.4,27.2c0.4,4.3,1.3,6.1-1.4,9.9C178,245.8,177.7,246.2,177.4,246.5z"/>
					<path class="st2" d="M182.5,195c-1.3-8-10.5-16.6-18.9-15.1c-2.2,0.4-4.2,1.4-6.4,2.1c-2.3,0.8-4.8,1.3-7.3,1.4
						c-4.1,0.2-8.7,0.3-10.6,4.6c-0.9,2.1-0.9,4.5,0.2,6.5c0.2,0.4,0.5,0.8,0.9,0.9c0.3,0.1,0.6,0,0.9-0.1c1.4-0.4,2.8-0.4,4.3-0.2
						c1.1,0.2,2.1,0.5,3.2,0.7c1.9,0.3,3.9,0.1,5.8,0.2c6.7,0.3,4.6,6,9.3,8.3c1.4,0.7,2,0,3.1,1.8c1.9,3.2,0.2,7.6,1.7,11.1
						c1.2,2.7,6,8.3,9.3,8c4.8-0.5,3-12.3,3.3-15.7c0.4-4.7,1.9-9.4,1.3-14.1C182.6,195.3,182.6,195.2,182.5,195z"/>
					<path class="st5" d="M170.6,202.2c-2.8-1-6.3,0.6-7.6,3.3c-1.7,3.6-0.6,9.4,4.2,9.5c2.1,0,4.1-0.7,5.7-2.2
						c1.6-1.5,1.9-3.9,1.4-6c-0.4-1.8-1.5-3.4-3.1-4.3C171.1,202.4,170.8,202.3,170.6,202.2z"/>
					<path class="st8" d="M142,214.5c-0.2,1.7,0.9,3.7,2.6,4.7c1.6,1,3.7,1.1,5.3,0.5c1.6-0.6,2.8-2,3.5-3.5L142,214.5z"/>
					<g>
						<g>
							<defs>
								<path id="SVGID_5_" d="M177.8,247.3c-0.6,0.9-1.4,1.7-2.4,2.5c-2.4,2-5.5,3-8.6,3.4c-3.6,0.4-7.5-0.2-10.5-2.3
									c-5.7-4.2-4.2-13.5-4.1-19.8c0-0.3,0-0.7-0.3-1c-0.2-0.2-0.6-0.3-1-0.3c-9.1-0.9-12.1-9.9-11.4-17.1
									c0.6-5.8,2.5-11.6,4.8-17.2c0.5-1.3,1.1-2.6,2.2-3.6c1.8-1.6,7.8-3.7,10.3-4.6c4.6-1.7,9.1-0.4,13.3,1.2
									c5.6,2.2,10.2,6.6,11.1,12.3c0.4,2.5,0.1,5-0.2,7.5c-0.9,7.9-1.9,15.8-1.6,23.7C179.7,237.6,180.9,242.9,177.8,247.3z"/>
							</defs>
							<clipPath id="SVGID_6_">
								<use xlink:href="#SVGID_5_"  style="overflow:visible;"/>
							</clipPath>
							<path class="st9" d="M158.2,226.8c0.5-0.3,1-0.7,1.5-0.9c0.7-0.4,1.6-0.7,2.3-0.3c0.9,0.5,1,1.7,0.8,2.7
								c-1.1,3.8-5.4,5.4-8.9,5.9c-1.1,0.2-3.5,0.5-4.3-0.6c-1.1-1.5,1.3-3.7,2.6-3.9c0.9-0.2,1.9-0.1,2.8-0.4
								c0.8-0.3,1.4-0.9,2-1.5C157.4,227.4,157.8,227.1,158.2,226.8z"/>
						</g>
						<path class="st4" d="M213.9,315.6c-2.5-6.5-5-13.1-7.6-19.6"/>
						<path class="st4" d="M251,322.6c1.4,2.3,2.4,4.9,2.9,7.6"/>
						<path class="st4" d="M169.3,205.6c-1.9,0.2-3.5,1.7-3.9,3.6"/>
						<path class="st4" d="M116.6,296.3c2.1-2.2,3.9-4.7,5.3-7.4"/>
					</g>
					<path class="st2" d="M199.5,292.5c3,1.1,6,2.1,9,3.2c0,0.1,0.1,0.1,0.1,0.2c0,0.3,2.1,9.5,2.8,13.6c-6.6-3-12.3-9.6-14-16.6
						C197.8,292.1,198.8,292.2,199.5,292.5z"/>
					<path class="st4" d="M196.8,565c-2.8,0.4-5.8-0.7-7.6-2.9"/>
					<path class="st4" d="M126.1,559.3c-2.9,0-5.7,0-8.6,0"/>
					<path class="st10" d="M103.3,270.2c6.3-2.7,12.5-5.8,18.6-9c5.6-2.9,11.1-5.9,16.1-9.5c1.2-0.8,2.3-1.7,3.5-2.6
						c2.1-2,3.9-4.3,5.4-6.8c-9.2-0.9-31.1-6.6-35.5-7.3c-1.2,2.5-2.3,5-3.4,7.6c-4.4,10.2-10.3,20.8-14,31.5
						C97.2,272.8,100.2,271.5,103.3,270.2z"/>
					<path class="st10" d="M236.8,254.5c-8.2-7-30.2-10-40.8-12c-0.7-0.1-1.5-0.3-2.3-0.4c1.4,1.8,2.7,3.7,4.1,5.6
						c4.4,6.2,8.6,12.5,12.6,19c0.6,0.8,1.2,1.6,1.7,2.4c4.1,5.8,7.5,12,10.9,18.2c0.2,0.4,0.4,0.7,0.6,1.1c0.3,0.4,0.5,0.9,0.8,1.3
						c4.5,3.1,9.3,5.7,14.3,7.8c5.2,2.2,10.6,3.9,16.1,5l0.4-0.1C247.9,285.3,250.7,266.5,236.8,254.5z"/>
					<path class="st10" d="M159.2,296.8c-0.2,0.1-0.4,0.2-0.6,0.3c-11.5,1.2-21.1,11.9-22.5,23.1c-0.6,5.1,0.5,10.4,3.6,14.5
						c2.9,3.8,7.1,6.3,11.7,7.4c9.4,2.3,19.5-0.9,26.3-7.7c4-4,7.3-8.9,8.3-14.5c0.8-4.4-0.1-8.9-2.4-12.6
						C178.4,299.2,168.3,296.2,159.2,296.8z"/>
					<path class="st10" d="M167.1,419.1c-13.2-0.8-26.5-1.1-39.7-1.4c-8.9-0.2-17.7-0.7-26.5-1.7c-0.5,4-0.9,7.6-1.2,10.7
						c28.9,3,64.4,2.1,93.5,2.4c8.9,0.1,28.3,1,37.1,0.8c-0.3-3.2-0.6-6.7-1.1-10.4C208.5,420.7,187.8,420.4,167.1,419.1z"/>
					<path class="st4" d="M78.5,147.6c-1.9,0.9-3.6,2.1-5.1,3.6"/>
					<path class="st4" d="M73.7,135.5c-2.6-1-5.4-1.2-8.2-1s-5.5,0.8-8.2,1.4"/>
					<path class="st4" d="M147.9,201.7c-0.9,2-1.7,4-2.6,6c-0.3,0.7-0.6,1.5-0.4,2.2c0.2,0.7,1.3,1.1,1.8,0.5"/>
				</g>
				<g>
					<defs>
						<rect id="SVGID_7_" width="750" height="500"/>
					</defs>
					<clipPath id="SVGID_8_">
						<use xlink:href="#SVGID_7_"  style="overflow:visible;"/>
					</clipPath>
					<g class="st11">
						<path class="st12" d="M386,206.7c-8.4,9.3-20.2,9.7-30.3,15.6c-9.5,5.6-10.3,19.3-6.8,29.9c3.1,9.7,12.1,17.9,22.2,17.8
							c3.9,0,7.7-1.2,11.4-2.6c24.1-9.2,44.8-29.2,54.1-53.4c9.8-25.9,7.6-56.7,8.6-84c0.1-3.6,0.3-7.2,0.7-10.8
							c0.5-4.4,1.5-8.7,2.3-13c1.5-7.6,2.6-15.2,3.3-22.9c0.1-1.1,0.4-3.5-0.8-4.2c-0.6-0.3-1.3,0-1.7,0.6c-0.4,0.6-0.6,1.4-0.8,2.3
							c-0.3,1.3-0.4,2.8-0.7,3.8c-0.4,1.6-0.7,3.2-1.1,4.8c-0.2,1-0.7,2.5-1.5,3.3c-0.4,0.4-1.2,0.6-1.6,0.2
							c-0.3-0.3-0.4-0.9-0.3-1.3c0.1-2.3,1.2-4.5,1.6-6.8c0.4-2.6,1-5.1,1.3-7.7c0.1-0.8,0.2-1.6-0.1-2.4c-0.2-0.8-0.8-1.5-1.6-1.5
							c-0.6-0.1-1.1,0.2-1.5,0.6c-0.6,0.6-0.8,1.6-1,2.4c-0.6,2.8-1.2,5.5-1.8,8.3c-0.3,1.4-0.6,2.8-0.9,4.2c-0.2,1-0.3,2.1-1.3,2.7
							c-1.4,0.8-1.6-1.3-1.4-2.1c0.5-3.7,0.9-7.4,1.4-11.1c0.2-1.4,0.6-2.8,0.7-4.2c0-1.3-0.7-3.2-2.3-2.8c-0.7,0.2-1.3,0.8-1.6,1.4
							c-0.3,0.7-0.4,1.4-0.5,2.2c-0.4,4.7-0.7,9.7-2,14.3c-0.2,0.7-0.3,1.7-0.8,2.2c-0.3,0.3-0.7,0.5-1.1,0.4
							c-0.5-0.2-0.6-0.7-0.7-1.2c-0.8-4.2-0.7-8.5-0.3-12.8c0.1-0.7,0.1-1.5-0.1-2.2c-0.2-0.7-0.9-1.3-1.6-1.3
							c-2.3,0.1-2.4,4.3-2.5,5.8c-0.1,2.9-0.2,5.8-0.4,8.7c-0.2,2.8,0.4,7.6-1.2,9.9c-0.8,1.2-2.8,1.8-3.8,0.7
							c-0.4-0.5-0.6-1.1-0.7-1.8c-0.5-2.3-0.6-6.3-2.1-8.2c-0.3-0.4-0.8-0.8-1.4-0.8c-0.7,0-1.3,0.6-1.5,1.3
							c-0.5,1.4,0.2,3.1,0.4,4.5c0.2,2,0.5,4,0.8,6c1.5,8.3,5.5,13.3,4.6,21.7c-2.2,20.8-14.1,42-21.6,61.3
							C394.8,192.3,391.6,200.4,386,206.7z"/>
						<path class="st13" d="M445.9,95c-5.5-2.3-11.8-2.7-17.6-1.2"/>
						<path d="M235.5,411.4c1.6-9,13.2-46.9,19.4-53.5c4.3-4.6,10.2-7.2,15.9-9.8c9-4,18.1-8,27.9-9.3c13.8-1.8,28.3,2.2,39.5,10.5
							c12.2,9,19.7,21.7,22.4,36.3c1.5,8.3,4.7,16.1,6,24.5c1.2,8.2,1.9,16.4,2.4,24.6c1.2,18.7,0.7,37.5,2.3,56.1
							c0.6,6.4,1.4,12.8,1.7,19.2c0.2,3.2,0.1,6.6-1.8,9.1c-1.1,1.4-2.6,2.3-4.2,3.1c-18.8,10.1-40.9,11-62.3,11.4
							c0-2.3,0-4.5,0.1-6.8c0.2-13.1-0.4-26.1,0.3-39.1c0.5-9.4-2.3-18.6-2.6-27.9c-0.2-8.5-0.6-17-0.5-25.5c0-1.4-0.2-3.1-1.5-3.6
							c-3.2-1.1-3,3.5-3,5.2c0,3.4-0.9,6.8-1.3,10.2c-0.9,7.6-1.2,15.2-1.8,22.8c-0.7,8.2-2.1,16.3-2.5,24.5
							c-0.4,8.4-0.6,16.9-0.7,25.4c0,3.2,1.2,10-0.9,12.2c-1.6,1.7-6.8,2.1-9.1,2.6c-6.3,1.2-11.9,0.2-18.2,0.1
							c-13.8-0.4-32.5,4-32.7-15.2C229.8,473.1,227.8,456.3,235.5,411.4z"/>
						<g>
							<path class="st14" d="M278.7,235.3c0,0.2-0.1,0.5-0.1,0.7c-0.1-0.1-0.3-0.2-0.4-0.2L278.7,235.3z"/>
							<path class="st15" d="M198.5,337.1c0,0.9,0,1.8,0.1,2.7c0.5,15.2,23,10.2,32.1,6.9c3.2-1.2,6.4-2.6,9.5-4.4
								c2.2-20.3,4.7-39.9,13.7-58.7c5.5-11.4,13.8-21.5,18.3-33.3c0.3-0.8,0.6-1.6,0.8-2.4c0.9-3.3,0.8-7.1-1.4-9.6
								c-3.5-4-10-2.8-15-0.8c-28.8,11.6-47.6,37.8-54.6,67.5c-1.4,6-2.4,12.2-2.9,18.3c-0.5,5.8-1.6,13.2-0.1,18.9
								c0.4,1.6,1.4,3.2,2.8,4.1"/>
							<path class="st16" d="M250.2,316c-14.4-5.7-41.5-16.2-55.4-23.1c8-9.9,29.9-44.4,40.5-51.3c3-1.9,6-3.5,9.2-5.1
								c14.5-7.1,31.1-11.1,47.3-10.3c1.2,0.1,2.4,0.2,3.6,0.5c-1.1,5.5-4.9,11-8.1,15.4c-2.5,3.4-5.3,6.7-8.1,9.8
								c-4.5,5.1-8.7,10.5-13.1,15.7C264.7,269.5,254.3,311.7,250.2,316z"/>
						</g>
						<path class="st16" d="M255.1,265.9c3.2-9.7,7.9-29.5,16-36.2c6.6-5.4,18.3-3.6,26.4-3.4c13,0.2,25.7,4,35.9,12.2
							c28.7,23,32.1,68.1,33,102c0.4,14.6,0.4,29.3,0.6,44c-20.6-3.7-41-4-61.8-4.2c-5.3-0.1-63.6-0.8-63.6-1.9
							c-0.5-20.9,2.5-40.8,5.1-61.5C249,299.6,249.5,282.9,255.1,265.9z"/>
						<g>
							<path class="st14" d="M327.6,235.3c0,0.2,0.1,0.5,0.1,0.7c0.1-0.1,0.3-0.2,0.4-0.2L327.6,235.3z"/>
							<path class="st16" d="M388.8,247.3c-5.3-11.7-10.6-23.3-16.2-34.9c-9.6,2.8-61.2,16.7-61.7,14.3c1.1,5.5,4.9,11,8.1,15.4
								c2.5,3.4,5.3,6.7,8.1,9.8c4.5,5.1,8.7,10.5,13.1,15.7c6.2,7.4,0.8,18.2,11.6,16.7c1.1-0.2,2.4-0.4,3.9-0.9
								c14-4.1,27.4-9.7,40.2-16.8C393.4,260.3,391.1,253.8,388.8,247.3z"/>
						</g>
						<g>
							<path class="st12" d="M316.1,193.2c0.2-3.6,0.1-7.2-0.8-10.7c-1-4.1-2.5-6.7-5.8-9.4c-3-2.5-6.6-4.2-10.5-4.7
								c-11.5-1.4-19.1,8.3-20.2,18.9c-0.5,4.3-0.9,8.6-0.4,12.9c0.4,3.6,2.2,6.2,4,9.4c0.4,0.7,0.8,1.5,1,2.3
								c0.2,0.7,0.2,1.5,0.2,2.2c0,2.3,0.3,4.5,0,6.8c-0.1,1.1-0.3,2.2-0.8,3.2c-0.6,1.2-1.8,1.7-3,2.1c-0.2,0.1-0.4,0.1-0.5,0.2
								c0.7,0.4,1.3,1.2,1.8,1.8c0.7,0.7,1.4,1.5,2.1,2.2c0.7,0.7,1.3,1.4,2,2.1c0.4,0.4,0.8,0.9,1.3,1.2c2.7,1.5,6.3,2.5,9.4,2.9
								c4.8,0.5,9.7-0.7,14.1-2.9c1.1-0.5,8.4-5.1,6.3-6.8c-0.2-0.1-0.4-0.2-0.7-0.2c-1.3-0.3-2.3-1.3-3-2.5s-0.9-2.5-1.2-3.8
								c-0.4-1.8-0.8-3.6-1.1-5.3c-0.7-3.5,1.3-5.6,2.8-8.5c1.6-3.2,2.6-6.7,2.9-10.3C316,195.2,316.1,194.2,316.1,193.2z"/>
							<path d="M278.2,192.3c-1.1,0.3-2.1-0.2-2.6-2.2c-0.9-3.9-0.1-9,0.6-12.8c0.3-1.6,0.7-3.2,1.9-4.2c0.3-0.2,0.7-0.4,1-0.4
								c0.9-0.1,1.8,0,2.6,0c1-0.1,1.6-0.7,2.7,0.1c1,0.7,1.4,1.9,1.4,3.1c0,1.2-0.3,2.3-0.6,3.5c-0.6,2.4-0.9,4.9-1,7.3
								c0,0.4,0,0.8-0.2,1.2c-0.5,0.9-1.8,0.8-2.7,0.6C281,190,279.5,191.9,278.2,192.3z"/>
							<path d="M315.8,195.1c-0.9-0.1-1.8-0.8-2.1-2.2c-0.5-2.1,0.1-5.2-1-6.9c-0.3-0.4-0.6-0.7-0.9-1.1c-1.4-1.9-1-4.5-1.5-6.8
								c-0.3-1.4-0.9-2.6-1.4-3.9c-0.5-1.3-0.8-2.7-0.5-4.1c0.8-3.6,4.2-2.3,6.2-0.6c3.2,2.8,5,7.4,5.5,11.6
								C320.2,183.8,320.2,195.5,315.8,195.1z"/>
							<g>
								<path class="st12" d="M281.5,196.4c-1.4,1.2-4.4,0.8-5.7-0.4c-0.9-0.9-1.4-2-1.8-3.2c-0.4-1.1-0.7-2.3-0.6-3.5
									c0.3-3.8,4.1-7.1,7.8-4.8c3.3,2.1,3.3,6.1,2,9.4C282.8,194.8,282.3,195.8,281.5,196.4z"/>
								<path class="st17" d="M278.6,195"/>
								<path class="st17" d="M275.1,193.4"/>
							</g>
							<path class="st12" d="M311.5,189.6c-0.2-2.3,0.4-4.6,2.6-5.6c1.4-0.6,3.1-0.5,4.4,0.4c1.3,0.9,2.1,2.4,2.4,4
								c0.2,1.6,0,3.2-0.4,4.7c-0.2,0.7-0.4,1.5-0.9,2.1c-1.3,1.4-4.2,1.9-5.6,0.7C312.3,194.6,311.7,191.6,311.5,189.6z"/>
							<path class="st18" d="M294.8,171.8c0.1-1.7,0.7-3.4,1.7-4.9"/>
							<path d="M312.3,175.6c-0.2,0-0.4,0.1-0.6,0.1c-2.3,0.4-4.6-0.5-6.7-1.6c-0.8-0.4-1.6-0.9-2.4-1.1c-0.9-0.2-1.9-0.1-2.8-0.1
								c-3.9,0.3-8,0.7-11.7,2c-2.3,0.4-6.6,1.4-8.5-0.7c-1.7-2.1-0.3-6.2,1.2-8c1.5-1.9,3.7-3.3,5.9-4.3c4.5-2.1,9.6-3.1,14.6-2.7
								c4.5,0.4,9.3,2.2,12.2,5.7C316.4,168.1,317.6,174.4,312.3,175.6z"/>
						</g>
						<path class="st8" d="M303.8,203.1c-1.9,2.4-5.1,3.7-8.1,3.3c-3-0.3-5.8-2.2-7.2-4.9"/>
						<g>
							<g>
								<defs>
									<path id="SVGID_9_" d="M316.1,193.2c1.6-3.2,1.7-6.7-0.8-10.7c-2.2-3.6-2.5-6.7-5.8-9.4c-3-2.5-6.6-4.2-10.5-4.7
										c-11.5-1.4-19.1,8.3-20.2,18.9c-0.5,4.3-0.9,8.6-0.4,12.9c0.4,3.6,2.2,6.2,4,9.4c0.4,0.7,0.8,1.5,1,2.3
										c0.2,0.7,0.2,1.5,0.2,2.2c0,3.2,0,6.3-0.6,9.5c-0.2,1.1-0.2,2.4-0.6,3.4c-0.1,0.3-1.9,3-2.3,2.7c4.8,3.2,10,6.2,15.7,6.8
										c4.8,0.5,9.7-0.7,14.1-2.9c2.4-1.2,4.8-2.7,6-5.1c0.1-0.2,0.2-0.4,0.1-0.6c0-0.3-0.3-0.5-0.5-0.6c-2.4-1.7-2.8-4.4-3.4-7.1
										c-0.4-1.7-0.7-3.4-1-5c-0.2-1.3-1-2.8-0.7-4.1c0.1-0.7,0.6-1.3,1-1.9c2.6-3.9,4.2-8.4,4.5-13.1
										C316,195.2,315.7,194.1,316.1,193.2z"/>
								</defs>
								<clipPath id="SVGID_10_">
									<use xlink:href="#SVGID_9_"  style="overflow:visible;"/>
								</clipPath>
								<path class="st19" d="M283,211c1.3,1.2,2.6,2.5,4.4,3c1.2,0.3,2.5,0.1,3.8,0.1c2.3-0.1,4.7,0.1,6.8,1.1
									c-0.2,0.6-0.7,1-1.3,1.2s-1.2,0.3-1.8,0.4c-0.7,0.2-1.4,0.6-2,0.8c-3.2,1.3-6.8,0.8-10.1,0.1c-0.5-0.1-1.2-0.3-1.2-0.9"/>
							</g>
							<path class="st13" d="M247.6,316.2c3.8-11.6,7.6-23.2,11.5-34.8"/>
							<path class="st17" d="M296.4,185.5c0.5,2.9,1.1,5.7,1.6,8.6c0.1,0.6,0.2,1.2,0.2,1.8s-0.3,1.2-0.8,1.6
								c-0.5,0.4-1.2,0.4-1.7,0"/>
							<path class="st12" d="M198.3,328.6c0.5-2.6,1.6-5,3.4-6.9c4.7-4.8,10.4-5.9,16.9-5.5c2.4,0.2,4.8,0.4,7,1.2
								c2.6,1,4.9,2.7,6.9,4.8c5.1,5.3,6.8,11.2,8.4,18.1c1.1,4.6,1.7,9.3,2.9,13.9c3.3,12.6,8.2,25,11.1,37.8
								c-0.8,1.6-1.5,3.2-2.3,4.8c-3.9,7.5-9,14-14.8,19.8c-12-13.3-22.3-28.1-30.6-43.9c-6.3-12-9.7-23.8-9.6-37.4
								C197.7,333.1,197.9,330.8,198.3,328.6z"/>
							<path class="st13" d="M257.2,386.9c-3.2,10-9.6,18.6-15.9,27c-1.6,2.1-3.3,4.3-5.7,5.2"/>
							<path class="st17" d="M317.2,185.9c-2.2,0.6-3.9,2.9-3.8,5.2"/>
							<path class="st17" d="M278.4,187.6c0.4,0.2,0.9,0.3,1.3,0.6c1.2,0.7,1.6,2.4,0.8,3.6"/>
						</g>
						<g>
							<defs>
								<rect id="SVGID_11_" width="750" height="500"/>
							</defs>
							<clipPath id="SVGID_12_">
								<use xlink:href="#SVGID_11_"  style="overflow:visible;"/>
							</clipPath>
							<g class="st20">
								<g id="XMLID_333_">
									<g id="XMLID_335_">
										<g id="XMLID_336_">
											<g id="XMLID_337_">
												<path id="XMLID_338_" class="st21" d="M518.4,598.4c4.8,1,13.8,0.5,18.4-1.2c-0.9-34.5-1.9-69.1-2.8-103.6
													c-0.5-19.3-1-38.7-3.3-57.9c-1.4-11.5-3.4-23-7.7-33.8c-2.6-6.6-7.5-19.6-14.5-22.9c-22.1-10.4-39-10.5-37.6,1.6
													c2.7,23.3,10.9,33.9,15.4,81.8c2.8,30.2,20.2,104.6,23.5,134.8C509.8,597.5,514.7,597.7,518.4,598.4z"/>
											</g>
										</g>
									</g>
								</g>
								<path d="M512.5,586.2c-1.4,0.1-2.9,0.2-4.3,0.3c-0.2,5.5-5.8,9-10.7,11.6c-8.7,4.5-17.2,9.3-25.6,14.4
									c-1.1,0.7-2.2,1.4-2.8,2.5c-3.5,6.7,12.9,3.4,15.5,3.2c20.8-1.5,55.5-4.2,55.3-6.2c-0.8-9.5-2.1-18.7-2.8-28.2
									C529,584.8,520.7,585.6,512.5,586.2z"/>
								<g id="XMLID_328_">
									<g id="XMLID_329_">
										<g id="XMLID_330_">
											<g id="XMLID_331_">
												<path id="XMLID_332_" class="st21" d="M433.3,598.7c1.2,0.3,14.3,0,14.3,0.1c2.1-4.6,6.4-37.8,7.5-56.1
													c1.5-23.3,4.1-43.3,4.5-66.6c0.3-20.8-0.2-42.3-9.1-61.2c-2.3-4.9-5.3-9.7-9.9-12.9s-11-4.3-16-1.7
													c-6.8,3.6-8,12.3-8.3,19.8c-2.4,59.6,5.6,117.5,8.4,176.8C424.8,597.4,429.6,597.7,433.3,598.7z"/>
											</g>
										</g>
									</g>
								</g>
								<path class="st22" d="M472,470c-2.5-17.5-5-35.1-7.5-52.6c-0.7-5.2-1.6-10.5-2.4-15.9c-1.4-9.8-2.6-19.7-2-29.3
									c0.7-12.9,0.3-26.3,3.6-39.1c1.2-4.5,3-9.2,6.7-12.1c5.9-4.7,14.7-0.1,20.7,2.5c6.5,2.8,12.1,7,16.7,12.4
									c9.3,11.2,13.4,26,17.6,39.6c2.2,7,4.2,14,6.1,21.1c3.6,13.5,6.6,27.2,9.1,41c4.1,23,6.9,45.9,6.2,69.4
									c0,1.4-0.1,2.9-1.1,3.9c-1,1-2.6,1.1-4.1,1.2c-9.5,0.2-18.9,0.7-28.4,1.6c-7.8,0.7-20.8,7.3-28.3,4
									C473.7,512.5,473.5,480.6,472,470z"/>
								<path class="st22" d="M406.7,453.7c-0.2-7.9-0.3-15.9,0.3-23.9c1.7-25.9,3.7-54.1,15-77.8c1.9-4.1,4.2-8.1,7.4-11.2
									c5.5-5.2,13.3-7.2,20.9-7.2c4.6,0,9.2,0.7,13.3,2.8c2.9,1.5,6.2,4,7.5,7.1c1.2,2.9,0.3,5.3-0.1,8.4
									c-1.2,8.9-4,18.7-3.1,27.6c0.9,9.4,1.5,18.8,1.6,28.2c0.4,35.8,0.5,71.1-3.6,106.8c-4.8-3.3-11.2-2-16.9-1.5
									c-13.9,1.1-28.3-3.7-41.7,0C409.1,493.1,407.3,473.4,406.7,453.7z"/>
								<path d="M460.1,197.5c-5.9-0.5-12.2-4.1-15.9-7.9c-2.9-3-6.1-8.4-6.5-12.5c-0.2-1.9,0.1-3.7,0.4-5.6
									c0.5-3.6,0.7-7.2,1.7-10.7c1-3.5,2.9-6.9,6-8.8c4.3-2.7,9-0.4,13.4,1c4.7,1.5,9.4,3.1,13.4,5.9s7.2,7.2,7.4,12.1
									c0.1,1.8-0.3,3.6-0.2,5.4c0,1.3,0.3,2.5,0,3.8c-0.2,0.9-0.7,1.7-1.2,2.5c-1.6,2.6-3.3,5-5.1,7.4c-1.7,2.2-3.5,4.4-5.9,5.8
									C465.3,197.3,462.7,197.7,460.1,197.5z"/>
								<path class="st3" d="M504.3,365.8c-3.7-0.2-7.5-0.7-11.2-0.8c-12.9-0.2-25.7,2.5-38.5,4.2c-20.3,2.6-52.5,8-58.7-17.8
									c-1.8-7.5-1.2-15.3-0.7-23c1.7-23.6,3.6-47.6,12.5-69.5c10.1-24.9,30.8-46.3,58.5-48.9c5.9-0.6,11.7-0.1,17.6,0
									c3.5,0,7,0.1,10.4,0.1c0.3,0,0.6,0,0.9,0.2c0.3,0.1,0.4,0.4,0.6,0.6c0.6,0.9,1.3,2.3,2.1,3c0.7,0.5,1.7,0.7,2.5,1
									c2,0.9,4,1.9,5.8,3.1c1.8,1.1,3.5,2.4,5.1,3.8c1.3,1.1,3.5,2.8,4.2,4.4c6.6,8.4,7.8,19.7,8.6,30.4
									c2.1,29.4,3.9,58.9,0.8,88.4c-0.4,4.1-0.9,8.3-2.8,12C517.9,365.3,511.4,366.2,504.3,365.8z"/>
								<path class="st21" d="M441.2,169.3c0.8-2.1,1.8-4.2,3.3-5.8c6.6-7.3,21.4-7.4,27.4,0.4c4.1,5.3,4,13,3.8,19.3
									c-0.1,2.2-0.1,4.3-0.1,6.4c0,3.5,0.1,7,0.3,10.4c0.1,1.8,0.2,3.6,0.3,5.4c0,0.8,0.1,1.5,0.2,2.3c0.1,0.8,0.6,1.4,0.8,2.1
									c0.2,0.7,0.1,1.5-0.1,2.3c-0.3,1.4-0.9,3.4-1.9,4.4c-0.9,0.9-2.3,1.6-3.5,2.1c-1.4,0.6-2.7,1.3-4.1,1.9
									c-0.5,0.3-1.1,0.5-1.7,0.7c-0.6,0.2-1.2,0.2-1.8,0.4c-0.7,0.2-1.3,0.5-2,0.6c-0.5,0.1-1,0-1.5,0c-2.1-0.3-4.1-1.1-5.8-2.4
									c-0.7-0.6-1.6-1.4-1.9-2.3c-0.3-1-0.4-2.3-0.5-3.3c-0.5-3.6-0.6-7.3-1-11c-0.1-0.5-0.1-1-0.4-1.5c-0.4-0.7-1.2-1-2-1.2
									c-0.7-0.2-1.3-0.5-2-0.9c-1.4-0.9-2.5-2.3-3.6-3.6c-2.2-2.8-3.7-6.3-4.4-9.8C438.3,180.5,439.2,174.7,441.2,169.3z"/>
								<g>
									<path class="st21" d="M469.9,181.5c0,3.4,2.7,6.1,6.1,6.1c3.4,0,6.1-2.7,6.1-6.1s-2.7-6.1-6.1-6.1
										C472.6,175.4,469.9,178.1,469.9,181.5z"/>
									<path class="st13" d="M475,178.7c1.4,0.1,2.6,1.1,3,2.4c0.4,1.3,0,2.8-1,3.8"/>
								</g>
								<g>
									<g>
										<defs>
											<path id="SVGID_13_" d="M475.6,189.7c0-2.1,0-4.3,0.1-6.4c0.2-6.9,0.2-14-3.3-20.2c-3.5-6.3-9.8-7.9-16.9-6.8
												c-6,0.9-8.4,3-10.4,8.4c-2.5,6.8-3.7,12.9-3.7,20.2c0,3.5,0.2,7.1,1.7,10.3c1.5,3.2,5.1,5.8,8.7,5.5
												c-0.8,6.1-1.4,15.6,5.1,18.2c5.9,2.3,18.5,2,19.6-6.3c0.1-1,0.1-2,0-3.1C476.1,202.8,475.7,196.3,475.6,189.7z"/>
										</defs>
										<clipPath id="SVGID_14_">
											<use xlink:href="#SVGID_13_"  style="overflow:visible;"/>
										</clipPath>
										<path class="st23" d="M447.1,205.9c1.8,0.7,3.9,0,5.6-0.9c2.7-1.4,5.3-3.3,6.6-6c-2.4,1.2-5.2,1.8-7.9,1.8
											c-1,0-2-0.1-3.1-0.2c-1.4-0.1-2.8-0.2-4.2-0.4"/>
									</g>
									<path d="M473.9,154.9c-0.9-1.4-1.9-2.8-2.8-4.1c-0.9-1.2-2.1-2.5-3.6-2.7c-1.5-0.2-3,1.1-2.6,2.7c-0.7-2-2.6-5.2-4.1-6.5
										c-1.3-1.1-3.2-1.6-4.7-0.8c-1.5,0.7-2.3,2.8-1.4,4.2c-0.7-1.3-1.5-2.5-2.6-3.4c-1.1-0.9-2.8-1.3-4.1-0.6
										c-1.8,1-2,3.6-1.5,5.6c-0.3-1.2-2.9-2.5-4-2.9c-1.7-0.5-3,0.8-3.4,2.4c-0.3,1.4,0.1,3,1,4.2c-1.1-0.8-2.7-0.4-3.5,0.6
										c-0.8,1-0.7,2.6-0.1,3.7s1.9,1.8,3.2,2.1c-1.3,1.4-2,3.3-1.9,5.1c0,1.1,0.4,2.4,1.5,2.8s2.2-0.2,3-1c0.9-1,1.4-1.7,2.6-2.2
										c1.1-0.5,2.6-1,3.4-2.1c-0.6,0.8-0.1,2,0.7,2.5c0.9,0.5,2,0.4,2.8-0.1c0.9-0.4,1.6-1.2,2.3-1.9c-0.6,1.6,1.1,3.4,2.8,3.3
										c1.7-0.1,3.2-1.3,4.1-2.8c-0.8,1.3,0.5,3.1,2,3.4s3-0.4,4.4-1c-0.4,0.6-0.4,1.4,0.1,2c0.4,0.5,1.2,0.8,1.9,0.5
										c-1.4,2.1-2,4.7-1.5,7.2c0.2,0.9,0.5,1.8,1.2,2.5c1.6,1.7,3,0.7,3.9-0.7c1.2-1.8,2.7-1.3,4.6-1.9c1.8-0.5,1.4-3.2,1.4-4.8
										C479,164.8,476.9,159.6,473.9,154.9z"/>
									<path class="st13" d="M412.9,378.5c-2.3-15,2.2-30.1,4.9-45c1.4-7.6,2.3-15.2,3.2-22.8c1.9-16.2,0.4-33.8,0.1-50.2"/>
									<path d="M421.9,590.1c-3.1,6.2-10.1,10.7-16.5,12.8c-9.1,3-18.2,6.4-27.2,9.7c-1,0.4-2,0.8-2.4,1.7c-0.5,1,0.1,2.3,0.9,3
										s2,1,3.1,1.2c5.7,1.1,71-0.9,71-2.7c0-10,0-20,0-29.9c-7.4,0.4-14.9,0.7-22.3,1.1c-1.9,0.1-3.8,0.2-5.5-0.6
										C422.9,587.6,422.5,588.9,421.9,590.1z"/>
									<path class="st13" d="M469.5,455.5c-0.3-5.4-0.8-10.8-1.2-16.1c-0.4-6-2-11.1-3.3-17.1c-2.8-13.4-2.8-27.4-7.8-40.4"/>
									<path d="M438,183c0.3,2.7,0.7,5.5,1,8.2c0.8,6.4,3.9,12.5,10.6,14.3c2.9,0.8,5.8,0.3,8.6-0.4c2.4-0.6,4.7-1.4,6.8-2.6
										c2.3-1.4,4.1-3.3,5.1-5.7c0.6-1.3,0.9-2.7,1.4-4c0.4-1.3,1.1-2.4,1.7-3.6c1.2-2.6,0.4-4.6,0.2-7.2
										c-0.2-2.5-0.5-5.1,1.1-7.1c0.4-0.5,0.8-1,0.9-1.6c0.2-1-0.4-2-1.3-2.5s-1.9-0.6-2.9-0.7c-0.8,0-1.6,0-2.2,0.5
										c-0.4,0.3-0.7,0.8-0.9,1.3c-0.7,2.2,0,4.5,0,6.7c0,1.8-0.1,3.7-0.8,5.4c-1.3,3.5-4.1,5.4-7.8,5c-1.5-0.2-2.8-1-4.2-1.6
										c-3.2-1.5-6.9-1.7-10.3-0.7c-4.7,1.3-4.7,1.3-4.9-3.7c-0.1-2.4-0.1-4.8,0.1-7.2c0.1-1.9-0.1-4,0.4-5.8
										c0.2-0.6,0.4-1.2,0.3-1.8s-0.6-1.2-1.2-1.2c-0.4,0-0.7,0.4-0.9,0.7c-0.2,0.4-0.2,0.8-0.3,1.2
										C438,173.7,437.4,178.1,438,183z"/>
									<path class="st13" d="M450.7,172.3c0,2.2-1,4.2-1.6,6.2c-0.2,0.6-0.3,1.2-0.1,1.8c0.4,0.9,1.6,1.1,2.6,1.2"/>
									<path class="st13" d="M501.1,372.3c2.8,7.5,9.5,13.4,17.3,15.2"/>
									<path class="st21" d="M539.4,113.3c-0.2,0-0.5,0-0.7,0.1c-1.3,0.8,0.4,7.3,0.4,8.7c0,0.6,0.3,2.4-0.4,2.9
										c-1.1,0.8-1.7-0.5-1.8-1.4c-0.4-3.8-0.8-7.6-1.2-11.4c-0.1-0.8-0.2-2.1-1-2.6c-0.5-0.3-1.3-0.3-1.8,0.1
										c-0.9,0.7-0.8,2-0.7,3.1c0.4,3.6,0.9,7.2,1.3,10.7c0.1,1.1,0.2,3.2-1.5,3c-0.9-0.1-1.2-1.1-1.4-2
										c-0.7-3.4-1.4-6.8-2.2-10.1c-0.3-1.2-0.4-4.4-1.4-5.2c-0.3-0.2-0.7-0.3-1.2-0.3c-0.3,0-0.6,0-0.8,0.1
										c-0.6,0.3-0.7,1-0.7,1.6c0,2,0.4,3.8,0.9,5.6c0.8,3.1,1.3,6.3,1.5,9.5c0.1,1.4-0.4,5-2.1,3.1c-0.9-1-1.1-2.8-1.6-4
										c-1-2.7-2-5.4-3.1-8c-0.7-1.8-3.5-0.9-2.9,1c1.1,3.3,2.1,6.6,3.1,9.9c0.7,2.5,2.7,6.5,2,9c-0.4,1.3-1.9,2.4-3.1,1.7
										c-0.5-0.3-0.9-0.8-1.2-1.3c-1.1-1.8-2.5-5.4-4.4-6.6c-0.4-0.3-1-0.4-1.4-0.2c-0.6,0.2-1,0.9-0.9,1.6c0,1.3,1.2,2.6,1.7,3.8
										c0.8,1.7,1.6,3.3,2.5,5c1.7,3.1,3.8,6.1,6.5,8.5c1.4,1.2,2.9,2.3,4.1,3.7c2.3,2.8,2.8,6.2,3.6,9.5c0.5,1.9,0.9,3.8,1.4,5.7
										c0.6,2.6,1.3,5.3,2.9,7.4c1.6,2.1,4.4,3.6,7,2.8c1.5-0.5,2.8-1.7,3.5-3.2c0.7-1.4,1-3.1,1.2-4.7c0.8-8.1-2-16.2-1.4-24.3
										c0.7-10.2-0.4-20.7-2.9-30.6c-0.1-0.6-0.3-1.2-0.7-1.6C540.1,113.5,539.8,113.3,539.4,113.3z"/>
									<path class="st3" d="M572.7,218.9c-3-18.8-7.9-37.3-14.5-55.1c-2.7-7.1-3.2-9.4-5.7-10.2c-1,0.2-2.1,0.3-3.1,0.5
										c-3.4,0.5-6.9,1-10.3,1.5c-6.4,1.7-12.9,3.3-19.4,4.9c-0.3,1.8,0.5,4.2,1.2,9.2c2.5,18.1,4.9,36.3,7.4,54.4
										c0.9,6.3,1.7,12.8,4.2,18.7s6.7,11.3,12.7,13.8c9,3.7,20.2-0.8,25.1-9.1C575.2,239,574.3,228.5,572.7,218.9z"/>
									<path class="st3" d="M485.9,210.6c-3.7,0.4-7.9,1.2-9.8,4.3c-0.9,1.4-1.2,3.2-1.3,4.9c-1.6,14.4-11.8,39,6.7,46.5
										c6.3,2.6,13.4,1.5,20,0.3c15.8-2.7,31.6-5.4,47.5-8c4-0.7,8.1-1.4,11.7-3.2c5.8-2.9,10.1-8.8,11-15.2
										C577,204.4,506.2,208.6,485.9,210.6z"/>
									<path class="st13" d="M477.5,210c-0.5,2.7-1.2,5.6-3.2,7.4c-0.8,0.7-1.7,1.2-2.6,1.7c-3.2,1.6-6.6,3-10.1,3
										c-5.1-0.1-10.4-4.6-9.5-10.1"/>
									<path class="st13" d="M525.3,211.1c5.7,1.1,11.2,3.6,15.7,7.2"/>
									<path class="st13" d="M524.5,130.5c5.2-2.1,10.7-3.7,16.2-4.8"/>
									<path class="st13" d="M521,138.4c1.6,0,3.2,1.1,3.6,2.7"/>
								</g>
								<g>
									<defs>
										<rect id="SVGID_15_" width="750" height="500"/>
									</defs>
									<clipPath id="SVGID_16_">
										<use xlink:href="#SVGID_15_"  style="overflow:visible;"/>
									</clipPath>
									<g class="st24">
										<g>
											<path class="st25" d="M697.5,227.7c-0.1-1.6-0.3-3.2-0.8-4.7c-0.3-1-0.8-2-1.7-2.4c-1.1-0.5-2.2,0.1-2.5,1.2
												c-0.4-0.8-0.8-1.9-1.9-1.8c-0.6,0.1-1.1,0.6-1.2,1.2c-0.1-0.8-1.2-1.2-1.9-0.9c-0.8,0.3-1.2,1.1-1.4,1.9
												c0.2-0.9-2-0.3-2.3-0.1c-0.7,0.5-1.2,1.7-1.4,2.5c-0.6,2.5-0.8,5.3-1.1,7.9c-0.3,2.3,0.4,6.2-1.4,8.1
												c-2.8,2.9-3.4-5.5-4.1-7.1c-0.3-0.6-0.6-1.3-1.2-1.7c-0.6-0.4-1.4-0.5-2-0.2c-1.1,0.8,0,3.9,0,5c0.1,1.6,0.2,3.3,0.4,4.9
												c0.4,3.1,1.1,6.3,2.5,9.1c0.7,1.5,1.6,2.9,2.1,4.4c0.9,3,0.2,6-0.2,9c-0.3,1.7-0.5,3.4-0.8,5.1c-0.3,1.9-0.6,3.2,0.4,4.8
												c0.8,1.4,1.9,2.5,3.4,3.1c1.9,0.8,4,0.6,5.8-0.4c1.3-0.7,2.3-1.8,3.1-3.1c1.4-2.2,2.2-4.7,3-7.2c2-6.3,4-12.7,5-19.3
												c0.9-6.1,0.5-12.4,0.2-18.6C697.5,228.4,697.5,228.1,697.5,227.7z"/>
											<path class="st17" d="M685.9,221.9c0.7,5.7,0.4,11.6-1,17.2"/>
											<path class="st17" d="M689.1,221c1.1,5.5,1.1,11.3,0,16.8"/>
											<path class="st17" d="M692.6,221.6c1.1,5.8,1.2,11.7,0.3,17.5"/>
											<path class="st17" d="M694.9,240.3c-3.6-2.2-8.4-2.3-12.1-0.2"/>
										</g>
										<path d="M604,238.4c5.6-0.4,11.2-1,16.8-1.9c4-0.7,8.2-1.6,11.1-4.3s4.1-7.9,1.2-10.8c-1.8-1.9-4.7-2.3-7-3.7
											c-5.3-3.3-2.9-8.5-4.9-13.2c-2-4.8-7.4-8.6-11.9-10.8c-9.5-4.6-21.8-4.3-29.6,3.3c-3.5,3.4-5.8,8-9.6,11.1
											c-4.4,3.6-10.2,4.8-15,7.6c-4.9,2.8-8.9,8.8-6.4,13.9c1.9,3.8,6.6,5.2,10.8,6C574.2,238.4,589.1,239.3,604,238.4z"/>
										<path class="st26" d="M642.2,311.5c4.6,6.2,10,12,16.8,17.9c2.7,2.4,6.1,4.9,9.6,4c2.8-0.7,4.6-3.5,5.1-6.3
											c0.5-2.8-0.2-5.7-0.9-8.5c-3.9-15.4-10.4-26.9-19.5-39.6c-7.3-10.2-14.4-22.3-25.5-29c-4.8-2.9-10.3-4.5-15.7-6.1
											c1.8,0.5,4.3,8.9,4.9,10.6c1.2,3.4,1.3,6.7,2.2,10.1c2.1,8.1,6.3,15.9,9.7,23.5C632.8,297,637,304.5,642.2,311.5z"/>
										<path class="st25" d="M547.2,506c-0.1,16.6-0.1,33.3,0,49.9c0,4.2,3.9,67.4,3.2,67.6c5.3-1,15.1,0.8,19.5-1.3
											c5.5-2.6,3.8-4.1,6.6-9.8c6-12.1,10.1-21.9,12.1-35.6c4.3-29.2,8.5-58.4,12.8-87.6c3.5-23.9,7-48.1,4.1-72.1
											c-1-8.6-17.6-13.1-24.4-12.2c-9.1,1.3-17,7.7-21.9,15.5c-4.9,7.9-7,17.1-8,26.3C549,466.7,547.4,486,547.2,506z"/>
										<path class="st25" d="M611.7,444c-0.2-2.2-0.5-4.3-0.7-6.5c-1-8.5-1.6-18.1,3.8-24.8c6.9-8.4,23.4-8.6,32.9-5.3
											c8.5,3,9.5,6.5,11.6,15.2c4.2,17.3,5.6,35.5,7.2,53.2c2.1,21.9,24.9,145-18.8,137.7c-3.8-0.6-7.2-2.9-9.8-5.7
											c-8.4-8.9-10.2-22-11.6-34.2C621.4,530.5,616.6,487.2,611.7,444z"/>
										<path class="st7" d="M665.5,397.9c-2.5-10.5-5.1-21-8.3-31.4c-2.5-7.9-5.4-15.7-9-23.2c-0.5-0.6-1.1-1.1-1.7-1.6
											c6.2-5.4-3.7-21-6.6-26.1c-9-16-15.3-33.4-22.3-50.4c-2.8-6.7-5.7-13.4-10-19.2c-1.2-1.6-2.6-3.2-4.5-3.8
											c-8-2.5-14.8,1.9-20.7,6.9c-2.3,1.9-4.6,3.8-6.5,6.1c-6.3,7.7-7.1,18.3-7,28.2c0.1,18.6,2.5,37.1,4,55.6
											c0.1,1.3,0.2,2.5,0.3,3.8c-21.8,9.9-28.3,38.2-31.9,60.8c-1.8,11.1-3.1,22.3-3.9,33.6c-0.8,10.1-2.2,21.2-1.1,31.3
											c0.4,3.9-1.4,5.7,2.7,8c2,1.1,7.9-1,8.2-0.8c12.7,9.3,31.6,8.7,43.6-1.4c12,11.4,34.5,8.1,42.7-6.2
											c8.6,11.8,30.3,21.7,40.3,6.3c6.3-9.8,1.2-25.5-0.5-36.2C671.3,424.7,668.7,411.2,665.5,397.9z"/>
										<path class="st26" d="M643.7,296.8c8.3,21.8,15.9,44.1,20.4,67c0.2,1,0.4,2,1.1,2.8c0.6,0.8,1.9,1.2,2.7,0.6
											c-1,0.7-0.4,5.9-0.2,7c0.4,2.6,1,5.3,1.5,7.9c1.2,5.5,2.4,11,3.5,16.5c0.1,0.7,0.3,1.3,0.4,2c0.7,3.6-1.8,7-5.5,7.3
											c-0.3,0-0.6,0.1-0.8,0.1c-9.2,0.7-18.4-2.5-26.5-6.6c-7.2-3.7-13.3-9-17.2-16.1c-2.3-4.2-3.9-8.9-5.2-13.5l0-0.1
											c-0.9-3.1-1.5-6.3-1.7-9.6c-1-13.9-2.2-27.7-3.6-41.6c-0.9-8.2-1.8-16.3-3-24.5c-1.2-8.2-2.6-16.3-3.7-24.5
											c-1.2-8.1-0.4-10.7-0.9-18.8c-0.1-2.2-2-9.8-2.1-12C628.6,242.2,636.2,277.1,643.7,296.8z"/>
										<path class="st26" d="M602.4,385.6c-4.4,13-12.7,24.8-24.8,30.9c-5,2.5-10.4,4-15.8,5.1c-6.7,1.4-14.5,2.1-19.7-2.5
											c-5.7-5-5.6-13.7-4.7-21.3c3.2-27.6,12.1-53.3,14.3-81c1.7-21.4-2.2-42.2,7.3-61.4c3.9-7.9,16.1-11.8,27.9-13.6
											c5.2-0.8,9.9,3.2,10,8.4c0.6,16.3,2,32.5,3.9,48.7c3.1,26.6,9.9,52.9,3.6,79.8C603.9,381.1,603.2,383.4,602.4,385.6z"/>
										<path class="st25" d="M526.3,345.7c0.6,1.5,1.4,3,2.1,4.4c2.7,5,6,9.6,9.3,14.3c4.3,6.1,8.6,12.1,12.9,18.2
											c0.4,0.5,0.8,1.1,1.4,1.3c0.8,0.3,1.7,0,2.4-0.4c6.6-3.1,9-10.2,11-16.8c0-0.1,0.1-0.3,0-0.4c0-0.2-0.2-0.3-0.3-0.4
											c-1.2-0.9-2.5-1.7-3.8-2.3c-3.4-1.5-5.4-2.5-7.7-5.4c-3.2-4.1-4.9-9.1-7.5-13.6c-2.6-4.6-5.8-9-9.9-12.5
											c-2-1.8-4.7-3.3-7.3-2.7c-2,0.5-3.6,2.2-4.2,4.1s-0.6,4.1-0.2,6.1C524.9,341.8,525.5,343.8,526.3,345.7z"/>
										<path class="st26" d="M580.7,244c-4,0.3-7.9,0.9-11.6,2.3c-2.5,1-4.8,2.3-7.3,3.4c-7.1,3.1-14.7,4.6-21.6,8.2
											c-7.4,3.9-14.7,8.8-21,14.3c-8.7,7.7-15.8,18.1-16.9,29.7c-0.8,8.4,1.6,16.7,4.9,24.4c4.2,10.1,10,19.5,17,27.9
											c2.3,2.7,3.3,4.6,7,5.5c8.1,1.8,27.2-2.7,24.3-14c-4.1-16-9.5-31.7-16.1-46.9c10.9-3.9,21.2-9.3,31.5-14.7
											c6.3-3.3,12.6-6.7,17.5-11.8c3-3.1,5.4-6.7,7-10.6c1.4-3.4,3-9.1,1.8-12.8c-1.6-4.9-6.7-5.4-11.2-5.2
											C584.4,243.8,582.6,243.8,580.7,244z"/>
										<g>
											<path d="M576.5,215.9c-0.9-2.2,1.9-6.4,3.1-8.2c3.2-4.7,6-11.2,12.1-12.3c5.1-0.9,11.8-0.3,16.2,2.8
												c4.1,2.9,8.1,4.9,5.6,10.5c-0.9,2-2.4,3.7-4.1,5.2c-4.1,3.6-9.3,5.8-14.7,6.4c-5.4,0.6-10.9-0.3-15.9-2.4
												C577.9,217.4,576.9,216.9,576.5,215.9z"/>
											<path class="st25" d="M610,235.2c-0.2,3.5-0.7,7.6,2.8,9.7c-0.8,2.4-2.8,4.3-5,5.4c-2.3,1.1-4.8,1.5-7.4,1.4
												c-4.6-0.1-9.4-1.6-12.6-5.1c0.3,0.3,1.2-1.6,1.2-1.8c0.2-0.9,0-1.8,0-2.7c0.1-1.7,0.3-3.3,0.3-5.1
												c0-4.8,0.1-9.5,0.5-14.2c1.7-2.9,6.1-5,9.1-5.6c6.5-1.3,10.7,3.5,11.2,8.9c0,0.4,0,0.7,0.1,1.1c0,0.6,0,1.1-0.1,1.7
												C609.9,231.3,610,233.2,610,235.2z"/>
											<path class="st25" d="M613.7,214.4c0.3-0.1,0.6-0.1,0.8-0.1c2.4,0,4.3,1.9,4.3,4.3c0,2.4-1.9,4.3-4.3,4.3
												c-0.5,0-0.9-0.1-1.3-0.2C613.3,219.9,613.5,217.2,613.7,214.4z"/>
											<g>
												<g>
													<defs>
														<path id="SVGID_17_" d="M589.1,234.8c-0.1,4.5-1,9.2-3.7,12.7c9.3,4.1,20.3,4,29.4-0.3c-3.9-3-5.2-8.4-4.8-13.3
															c0.2-2,0.5-3.9,0.5-5.9c0-4.1-3.1-9.1-7.1-10.5c-1.6-0.5-3.4-0.4-5.1-0.1c-2.6,0.5-5.1,1.6-6.9,3.5
															C587.9,224.6,589.2,230.1,589.1,234.8z"/>
													</defs>
													<clipPath id="SVGID_18_">
														<use xlink:href="#SVGID_17_"  style="overflow:visible;"/>
													</clipPath>
													<path class="st27" d="M589.7,230c4.6,0.9,9,2.1,13.7,1.4c1.5-0.2,4.9-1.2,6.9-2.3c0,2.9-0.3,5.8-0.4,8.6
														c-5.5,0.9-11.2,1.4-15.9-1.4c-2.1-1.3-4.5-3.8-4.3-6.1L589.7,230z"/>
												</g>
												<path class="st25" d="M614.7,219.6c-0.3,3.2-0.8,6.5-2.2,9.4s-3.6,5.6-6.6,6.9c-5.4,2.5-12.1,0.2-16-4.3
													s-5.3-10.7-5.3-16.7c0-4.2,0.6-8.6,2.9-12.1c2.3-3.6,6.4-6.1,10.6-6.6c4.4-0.4,10.6,1.5,13.2,5.4
													C614.6,206.7,615.1,213.7,614.7,219.6z"/>
												<path class="st25" d="M580.1,218.6c0,2.4,1.9,4.3,4.3,4.3c2.4,0,4.3-1.9,4.3-4.3c0-2.4-1.9-4.3-4.3-4.3
													C582,214.4,580.1,216.3,580.1,218.6z"/>
												<path class="st17" d="M583,216.2c1.1-0.3,2.4,0.4,2.8,1.5c0.5,1.1,0.3,2.3-0.2,3.4"/>
												<path d="M594.4,207.8c-0.6,0.9-1.3,1.6-2.3,2.1c-1,0.5-2.4,0.6-3.1,1.5c-0.3,0.4-0.4,0.8-0.5,1.3
													c-0.3,1-0.5,2.1-0.8,3.1c-0.8-0.6-1.6-1-2.6-1.2c-0.8-0.2-1.5,0.1-2.3-0.1c-1.5-0.4-3.7-2.3-3.7-3.9
													c0-1.2,0.8-2.3,1.5-3.3c1.6-2.3,3-4.8,4.6-7.1c1.6-2.3,3.6-4.4,6.1-5.7c1.1-0.5,3.6-1.6,4.8-1.5c1,0.1,1.9,0.5,2.8,0.5
													c0.9,0.1,1.7-0.1,2.6-0.1c3,0,6.5,2.7,8.9,4.5c2.6,1.9,5.1,4,6.8,6.7c1,1.7,1.5,3.4,1.6,5.4c0,0.5-0.3,5-0.1,5.1
													c-0.8-0.3-1.6-0.5-2.4-0.6c-0.6-0.1-1.4,0.1-1.9-0.3c-0.5-0.4-0.6-1.5-1-2c-0.4-0.7-1-1.4-1.6-1.9
													c-1.4-1.2-3.2-1.9-4.6-3.1c-1.5-1.3-2.5-3.1-2.8-5c-0.1-0.5,0-2.4-0.6-2.6c-0.1,0-0.8,0.3-0.9,0.4
													c-0.4,0.1-0.9,0.2-1.4,0.3c-1.9,0.6-3.5,1.7-4.7,3.3c-0.8,1.1-1.3,2.3-1.9,3.5C594.7,207.3,594.5,207.5,594.4,207.8z"/>
												<path class="st8" d="M607.1,226.4c-1.4,3.2-6.7,4-9.7,0.5"/>
												<path class="st17" d="M590.9,213.4"/>
												<path class="st17" d="M601.8,213.5c0,1.7,0.6,3.2,1.1,4.8c0.3,0.9,1.3,3.8-0.7,2.9"/>
											</g>
											<path class="st17" d="M551.3,293.9c1.5-1,2.4-2.7,3.4-4.2c1.8-3,4.1-5.7,6.6-8.1"/>
											<path class="st17" d="M550.3,327.4c1,6.7,4.7,12.8,5.3,19.6c0.3,3.2-0.4,6.8-3,8.6"/>
											<path class="st26" d="M660.4,285.2c3.3-7.9,6.3-18.6,14.3-23c3.7-2.1,8.2-2.2,12.5-2.2c2.4,0,5,0.2,6.9,1.7
												c2.1,1.6,2.7,4.5,3,7.1c0.6,6.3-0.4,12.5-1.7,18.7c-1.3,5.9-2.5,11.8-4.1,17.6c-1.5,5.4-3.7,10.4-5.6,15.7
												c-1.6,4.5-3.9,9-8.1,11.5c-6,3.5-12.7,3.9-18.6-0.5c-4.3-3.3-6.8-8.4-7.6-13.6c-1.7-11,3.4-19.8,7.5-29.6
												C659.5,287.4,659.9,286.3,660.4,285.2z"/>
											<path class="st17" d="M631,271.7c4.4,15.7,13.9,29.4,19.3,44.8c1.6,4.5,2.8,7.6,4.2,12.1"/>
											<path class="st26" d="M582.4,242.9c0.4-0.5,0.7-1,1.2-1.5c0.2-0.1,0.2-0.2,0.5-0.4c0.2-0.2,0.5-0.3,0.7-0.4
												c1.1-0.7,2-1.5,2.9-2.4c0.4-0.4,0.8-0.8,1.2-1.2c0.1-0.1,0.2-0.2,0.4-0.3c0,0,0,0,0.1,0c-0.4,0.2,4.6,5.9,5,6.4
												c1.9,2.1,3.7,4.2,4.9,6.7c-1,3.4-1.5,7-2.9,10.2c-0.8,1.9-2.2-0.9-2.9-1.7c-1.1-1.3-2.2-2.7-3.3-4
												c-1.6-1.9-3.1-3.8-4.6-5.7c-0.8-1-1.5-1.9-2.2-2.9c-0.2-0.3-1-1.7-1.6-2.1C582.1,243.3,582.3,243.1,582.4,242.9z"/>
											<path class="st26" d="M603.1,246.4c0.2-0.3,0.5-0.5,0.7-0.7c2.4-2,6.2-4.4,6.1-8c1.7,2.5,3.8,5.8,6.3,7.6
												c-1.1,0.3-1.6,1.5-2.1,2.5c-1,2-2.5,3.7-3.8,5.5c-1.3,1.7-1.9,3.6-3.1,5.3c-0.2,0.2-0.3,0.5-0.5,0.6
												c-0.2,0.2-0.5,0.3-0.8,0.1c-0.2-0.1-0.3-0.4-0.4-0.7c-0.3-1-0.1-1.9-0.4-2.9c-0.4-1.2-0.8-2.3-1.2-3.5
												c-0.5-1.5-1.8-4-1.1-5.5C602.9,246.7,603,246.5,603.1,246.4z"/>
											<path class="st17" d="M597.5,257c-0.5,1-1.6,3-2.2,3.9c-3.2-4-6.3-7.9-9.5-11.9c-1.5-1.8-3-3.8-3.5-6.1"/>
											<path class="st17" d="M604.6,255.1c0.9,1.6,2.4,3.7,3.3,5.3c0.7-1.8,1.3-3.6,1.9-5.5c0.3-0.9,0.7-1.9,1.1-2.7
												c0.6-1.1,1.3-2,1.9-3.1c0.9-1.5,1.4-3.2,1.6-4.9"/>
											<path d="M613,290.3c0.1-0.4,0.3-0.8,0.6-1.1l0.5-0.4c0.4-0.2,0.8-0.3,1.2-0.3c0.3,0,0.6,0.1,0.9,0.2
												c0.3,0.1,0.6,0.3,0.8,0.5c0.2,0.2,0.4,0.5,0.5,0.8c0.2,0.3,0.2,0.6,0.2,0.9c0,0.2-0.1,0.4-0.1,0.6
												c-0.1,0.4-0.3,0.8-0.6,1.1l-0.5,0.4c-0.4,0.2-0.8,0.3-1.2,0.3c-0.3,0-0.6-0.1-0.9-0.2c-0.3-0.1-0.6-0.3-0.8-0.5
												c-0.2-0.2-0.4-0.5-0.5-0.8c-0.2-0.3-0.2-0.6-0.2-0.9C613,290.7,613,290.5,613,290.3z"/>
											<path d="M615.6,307.8c0.1-0.4,0.3-0.8,0.6-1.1c0.2-0.1,0.3-0.3,0.5-0.4c0.4-0.2,0.8-0.3,1.3-0.3c0.3,0,0.7,0.1,1,0.2
												c0.3,0.1,0.6,0.3,0.8,0.5c0.2,0.2,0.4,0.5,0.5,0.8c0.2,0.3,0.2,0.6,0.2,1c0,0.2-0.1,0.4-0.1,0.7
												c-0.1,0.4-0.3,0.8-0.6,1.1c-0.2,0.1-0.3,0.3-0.5,0.4c-0.4,0.2-0.8,0.3-1.3,0.3c-0.3,0-0.7-0.1-1-0.2
												c-0.3-0.1-0.6-0.3-0.8-0.5c-0.2-0.2-0.4-0.5-0.5-0.8c-0.2-0.3-0.2-0.6-0.2-1C615.5,308.3,615.5,308.1,615.6,307.8z"/>
											<path d="M618.9,325.2c0.1-0.4,0.3-0.8,0.7-1.1c0.2-0.1,0.4-0.3,0.5-0.4c0.4-0.2,0.8-0.4,1.3-0.4c0.4,0,0.7,0.1,1,0.2
												c0.3,0.1,0.6,0.3,0.8,0.5c0.3,0.2,0.4,0.5,0.5,0.8c0.2,0.3,0.2,0.6,0.2,1c0,0.2-0.1,0.5-0.1,0.7
												c-0.1,0.4-0.3,0.8-0.7,1.1c-0.2,0.1-0.4,0.3-0.5,0.4c-0.4,0.2-0.8,0.4-1.3,0.4c-0.4,0-0.7-0.1-1-0.2
												c-0.3-0.1-0.6-0.3-0.8-0.5c-0.3-0.2-0.4-0.5-0.5-0.8c-0.2-0.3-0.2-0.6-0.2-1C618.8,325.6,618.8,325.4,618.9,325.2z"/>
											<path d="M622.4,343.8c3.2,0,3.3,5,0,5C619.2,348.8,619.2,343.8,622.4,343.8z"/>
											<path d="M622,365.4c0-0.2,0.1-0.3,0.2-0.5c0.4-0.7,1.3-1.2,2.2-1.1c2.1,0.2,2.6,3.1,0.8,4.1
												C623.5,368.9,621.5,367.2,622,365.4z"/>
											<path d="M510.6,295.1c-1.2,1-2.5,2.1-3.1,3.5s-0.4,3.4,0.9,4.3"/>
											<path d="M670.7,327.9c-0.2,1.1-1.3,1.9-2.4,2c-1.1,0.1-2.2-0.5-3-1.2"/>
											<path class="st17" d="M659.2,287.6c0.4,6.2,2,12.7,3.1,18.8"/>
											<path class="st17" d="M565.8,363c0.4,7.5-3.6,15-9.9,19c-2.1,1.3-4.5,2.3-6.7,3.6"/>
											<path class="st17" d="M651.3,352.6c0.1,1.5,0.5,3.1,1.1,4.5c1.6,3.8,4.9,6.7,8.5,8.6c2.1,1.1,4.4,1.8,6.8,2.2"/>
											<path class="st17" d="M590.9,474.4c1-3.8,1.6-7.7,1.6-11.7"/>
											<path class="st17" d="M633.9,468.2c-0.3-5.4-0.5-10.9-0.8-16.3"/>
											<path class="st17" d="M547.2,475.7c0.2-6.9,0.9-13.7,2.2-20.5"/>
										</g>
										<g id="OBJECTS">
											<defs>
												<rect id="SVGID_19_" width="750" height="500"/>
											</defs>
											<clipPath id="SVGID_20_">
												<use xlink:href="#SVGID_19_"  style="overflow:visible;"/>
											</clipPath>
											<g class="st28">
												<g>
													<path class="st21" d="M267.9,460.7c0.9-0.1,1.3-1.3,1.5-2.2c0.3-1.7,0.6-3.3,0.9-5c0.1-0.6,0.4-1.4,1.1-1.3
														c0.6,0.1,0.7,0.9,0.7,1.5c-0.1,3.1-0.1,6.2-0.2,9.2c0,0.9,0,1.8,0.5,2.5s1.7,0.9,2.2,0.2c0.2-0.3,0.2-0.6,0.2-1
														c0.1-2,0.3-3.9,0.4-5.9c0.1-0.9-0.3-5.2,1.2-5c1.3,0.2,0.8,4.1,0.7,5c-0.1,2.3-0.4,4.6-0.1,6.9c0.1,0.5,0.2,1,0.4,1.4
														s0.7,0.7,1.2,0.7c0.4-0.1,0.8-0.4,1-0.8s0.2-0.9,0.3-1.3c0.2-1.8,0.3-3.6,0.5-5.4c0.1-1.3,0-3.5,0.9-4.6
														c0.3-0.3,0.8-0.5,1.2-0.2c0.2,0.2,0.3,0.6,0.3,0.9c0.1,2.3,0.3,4.6,0.4,6.9c0,0.6,0.1,1.3,0.4,1.8s1.1,0.8,1.6,0.5
														c0.4-0.3,0.5-0.8,0.6-1.3c0.7-4.3,0.4-8.7,0.8-13c0.1-1,0.1-8.2,2-7.7c0.4,0.1,0.6,0.5,0.8,0.8
														c0.6,1.2,0.9,2.6,1.4,3.9c0.5,1.3,1.2,2.5,2.4,3.2c0.5,0.3,1.1,0.4,1.5,0.1c0.3-0.3,0.4-0.8,0.4-1.2
														c-0.1-1.5-0.7-2.9-1.2-4.3c-0.9-3-0.8-6.1-1.6-9.1c-0.7-3-1.8-5.7-1.5-8.8c0.5-5,2.1-9.9,2.9-14.8s0.9-10.3-1.6-14.7
														c-1.4-2.5-3.9-4.7-6.7-4.7c-2.8-0.1-5.3,2-6.9,4.3c-1.6,2.5-2.4,5.3-3.1,8.2c-2,8.6-2.7,17.4-4.4,26
														c-1.6,8.5-4.1,16.7-4.8,25.3c0,0.7-0.1,1.3,0.2,2C266.6,460.3,267.3,460.8,267.9,460.7z"/>
													<path class="st3" d="M441.4,502.3c1.9,14.2,7.5,34.6-7.7,43.7c-6.2,3.7-13.8,4.2-21,3.5c-7.7-0.8-16.1-3.5-19.9-10.3
														c-1.8-3.1-2.3-6.8-2.8-10.4c-2.8-19.2-5.6-38.3-8.4-57.5c-1.7-11.8-0.8-37.4-11.1-44.4c2.5,42.2,6.9,84.5,9.9,126.8
														c-14.2,0.1-28.4,0.2-42.6,0.3c-1.6,0-3.4,0-4.7-1.1c-1.2-0.9-1.6-2.5-2-3.9c-13-45.6-20.2-92.5-21.4-139.4
														c-0.9-32.1,10.7-63.3,45.9-67.8c16.8-2.2,34.9,4,47.5,16.2c13.4,13,19.9,31.3,24.5,49.2c6.5,25.1,10.7,51.1,12.4,76.7
														C440.3,490.7,440.6,496.4,441.4,502.3z"/>
													<g>
														<path class="st17" d="M372.8,394.4c1,3.2,1.5,6.6,1.6,10c0,1.7-0.1,3.5-0.9,4.9s-2.5,2.6-4.2,2.3"/>
														<path class="st17" d="M366.6,389c1.3,11.2,3.6,26.6,4.9,37.9"/>
													</g>
													<path class="st29" d="M333.9,264.9c0.1-0.1,0.3-0.1,0.4-0.2c15.6-7.5,35.6-5.9,52.3-5c10.5,0.6,23.7,1.3,30.7,9.9
														c10.2,12.5,4.3,27.3,4.3,41.3c0,19.7,0.2,38.9-2.8,58.5c-1,6.3-2.3,13-6.7,17.7c-5.5,5.9-14.1,7.1-22.1,7.7
														c-12.7,1-25.4,1.3-38.1,0.8c-8.3-0.3-16.7-0.9-24.3-4.2c-22.8-9.8-26.8-46.6-22.6-67.9c2.6-12.9,4.4-27.5,10.4-39.3
														C319.6,276.1,325.8,268.9,333.9,264.9z"/>
													<path class="st29" d="M338.5,294.5c0.9-7.3,0.7-14.8,0.8-22.1c0-3,0.2-6,0-9c-5.2,1.7-10.4,3.7-15.4,5.9
														c-4.4,1.9-8.8,4.1-12.5,7.2c-10.8,9.1-16.3,24.2-21.2,37c-10.6,28-17.4,58.1-22.9,87.6c-0.9,5.1-1.8,10.4,0,15.3
														c2.7,7.1,10.6,10.9,18.2,12c3,0.4,6,0.6,8.9-0.3c6.9-2.2,10.4-9.6,12.9-16.4c7-19.2,9.3-39.6,13.9-59.5
														C325.7,332.6,336,314.5,338.5,294.5z"/>
													<g>
														<g>
															<g>
																<g>
																	<path d="M391.7,230.9c0.5-3.7-0.8-7.3-2.2-10.7c-1.3-2.9-2.8-5.8-5.1-8c-6.1-5.8-17.8-5.4-24.4-0.7
																		c-4.7,3.3-9.3,5.6-6.5,12c1,2.3,2.7,4.3,4.7,6c2.9,2.5,6.4,4.6,10.1,5.8c2.6,0.8,4.7,2.8,7.5,3.1
																		c1.9,0.2,3.8-0.2,5.7,0C386.7,238.9,391,236.8,391.7,230.9z"/>
																	<path class="st21" d="M357.5,253.9c0.1,1.3,0.1,2.5,0.1,3.8c0,1.3,0,2.6-0.2,3.9c-0.1,0.6-0.3,1.3-0.7,1.9
																		c-0.2,0.3-1.1,1.2-1,1.4c0,0.1,0.1,0.2,0.2,0.2c0.9,0.8,1.9,1.5,2.9,2.1c1.1,0.7,2.3,1.4,3.6,1.8
																		c2.5,0.9,5.3,1.3,8,1c2.6-0.3,5-1.2,7.3-2.4c1.1-0.6,2.2-1.3,3.2-2c0.5-0.4,1-0.8,1.5-1.2c0.2-0.2,1.1-1.2,1.3-1.2
																		c-0.8-0.1-1.5-1.6-1.9-2.2c-0.4-0.9-0.7-1.9-0.8-2.9c-0.2-2,0-4.1,0-6.2c0-2.1-0.1-4.1-0.2-6.2
																		c0-1-0.1-2.1-0.1-3.1c0-0.7,0.2-2.2-0.2-2.8c-1.9-3.3-7-5.7-10.4-6.4c-7.5-1.5-12.3,4-12.9,10.3
																		c0,0.4,0,0.8-0.1,1.2c0,0.6,0,1.3,0.1,1.9C357.6,249.4,357.5,251.6,357.5,253.9z"/>
																	<g>
																		<path class="st6" d="M380.8,247.9c-5.3,1-10.3,2.4-15.7,1.6c-1.7-0.2-5.7-1.3-7.9-2.6c0,3.3,0.4,6.6,0.4,9.9
																			c6.3,1,12.9,1.6,18.3-1.6c2.5-1.5,5.2-4.4,5-7L380.8,247.9z"/>
																	</g>
																	<path class="st21" d="M352.2,235.9c0.3,3.7,1,7.5,2.5,10.8s4.2,6.4,7.5,7.9c6.2,2.9,13.9,0.2,18.3-5
																		c4.4-5.2,6.1-12.3,6.1-19.1c0-4.8-0.7-9.8-3.3-13.9c-2.7-4.2-7.3-7-12.2-7.5c-5-0.5-12.2,1.7-15.2,6.2
																		C352.2,221.1,351.6,229.2,352.2,235.9z"/>
																	<path class="st21" d="M391.8,234.8c0,2.7-2.2,4.9-4.9,4.9c-2.7,0-4.9-2.2-4.9-4.9c0-2.7,2.2-4.9,4.9-4.9
																		C389.6,229.9,391.8,232.1,391.8,234.8z"/>
																	<path class="st21" d="M357.3,236.2c0,2.7-2.2,4.9-4.9,4.9c-2.7,0-4.9-2.2-4.9-4.9c0-2.7,2.2-4.9,4.9-4.9
																		C355.1,231.3,357.3,233.5,357.3,236.2z"/>
																	<path class="st17" d="M388.5,232.1c-1.3-0.4-2.7,0.5-3.2,1.7c-0.5,1.2-0.3,2.7,0.3,3.9"/>
																	<path d="M349.8,236.6c-0.6,0-1.7-0.5-2.1-0.9c-0.6-0.6-0.5-1.5-0.4-2.4c0.1-2.1,0.7-4.1,0.4-6.2
																		c-0.2-1.8-1-3.5-0.9-5.3c0.1-1.8,1.1-3.4,1.8-5.1c0.6-1.7,0.9-3.5,1.9-5c1.4-2.2,3.9-3.5,6.4-4.2
																		c2.5-0.7,5.1-1,7.6-1.8c1.8-0.6,3.6-1.5,5.5-1.1c1,0.2,1.9,0.8,2.8,1.4c2.1,1.5,3.3,3.1,4.2,5.5
																		c0.9,2.7,0.2,5.9-2,7.7c-2.4,2-5.9,3.1-9,3.7c-2.7,0.6-5.5,1-7.9,2.3c-2.7,1.5-4.8,4.2-5.9,7.2
																		C351.8,233.9,351.3,236.5,349.8,236.6z"/>
																	<path d="M379.3,219.5c0.7,1.2,0.9,2.5,1.5,3.7c0.8,1.4,1.5,3,1.8,4.6c0.1,0.5,0.2,0.9,0.2,1.4c0,0.5-0.2,1-0.1,1.5
																		c0,0.4,0.2,0.8,0.5,0.9c0.3,0.1,0.7-0.1,1-0.3c1-0.7,2.2-1.3,3.4-1.2c0.7,0,1.3,0.2,1.9,0.2c2-0.1,1.7-2.3,1.8-3.7
																		c0.1-0.6,0.3-1.1,0.4-1.7c0.2-1.2-0.1-2.5-0.4-3.7c-0.3-1.2-0.6-2.4-1.3-3.5c-0.6-1-1.5-1.9-2.2-2.9
																		c-0.8-1.1-1.3-2.4-2-3.6c-0.7-1.2-1.6-2.3-2.9-2.8c-0.6-0.2-1.2-0.3-1.8-0.4c-3.6-0.5-7.4-1.6-11.1-0.6
																		c-1.1,0.3-2.4,0.8-3,1.9c-0.3,0.5-0.4,1.1-0.4,1.6c0,0.3,0.4,2.2,0.8,2.2c0.1,0.3,0.3,0.5,0.6,0.7
																		c0.4,0.2,0.8,0.2,1.3,0.3c3.6,0.2,7.2,2,9.5,4.9C379,219,379.2,219.2,379.3,219.5z"/>
																	<path class="st17" d="M366.7,231.8c0.2,0.5,0.2,1.1,0,1.6c-0.2,0.5-0.5,1-0.7,1.5c-0.3,0.6-0.6,1.1-0.8,1.7
																		c-0.6,1.6-0.1,3.1,1.6,3.6"/>
																</g>
															</g>
														</g>
														<path class="st17" d="M370.9,245.1c0-0.1,0.1,0,0.1,0.1c-1,1.4-2.9,2.3-4.6,2.1s-3.4-1.3-4.1-2.9"/>
													</g>
													<path class="st29" d="M454.9,326.6c3.7,10.8,5.4,19.8-0.5,30.3c-3,5.4-8.3,10-14.5,10.5c-5.9,0.5-11.7-2.6-15.6-7
														c-5.3-6-8.1-14.3-11-21.7c-3.3-8.5-7-16.8-10.5-25.1c-5.7-13.2-12.9-29.3-9.5-44c3.1-13.5,20-6.4,27.4-0.2
														c6.8,5.5,11.5,13.2,15.6,20.9c4.3,8.1,7.6,16.8,12.7,24.4C451.5,318.2,453.4,322.3,454.9,326.6z"/>
													<path class="st17" d="M420.2,353.6c-5.9-17.2-10.7-34.9-14.1-52.8"/>
													<path class="st17" d="M315.4,381.9c9.3-37.3,9.5-58.3,18.6-81.8"/>
													<path class="st21" d="M491.2,261c-0.8-0.4-1.8,0.3-2.4,1c-1.2,1.2-2.4,2.4-3.5,3.7c-0.4,0.5-1.2,0.9-1.6,0.5
														c-0.5-0.4-0.1-1.1,0.2-1.6c1.8-2.5,3.5-5,5.3-7.6c0.5-0.7,1-1.5,1-2.3c0-0.9-0.9-1.7-1.7-1.4c-0.3,0.1-0.5,0.4-0.7,0.7
														c-1.2,1.6-2.4,3.1-3.6,4.7c-0.5,0.7-2.7,4.5-3.8,3.5c-1-0.9,1.7-3.9,2.2-4.6c1.4-1.8,2.9-3.5,3.9-5.7
														c0.2-0.4,0.4-0.9,0.4-1.4c0-0.5-0.2-1-0.7-1.2c-0.4-0.2-0.9-0.1-1.3,0.1c-0.4,0.2-0.7,0.6-0.9,0.9
														c-1.1,1.4-2.3,2.8-3.4,4.2c-0.9,1.1-1.9,2.9-3.3,3.3c-0.4,0.1-1-0.1-1.1-0.5c-0.1-0.3,0.1-0.6,0.3-0.9
														c1.2-2,2.3-4,3.5-6c0.3-0.5,0.6-1.1,0.7-1.7s-0.4-1.3-1.1-1.3c-0.5,0-0.9,0.4-1.2,0.7c-3,3.2-5.1,7-7.9,10.3
														c-0.9,1.1-5.1,7.8-6.6,4.1c-1.2-2.9,0.9-6.2-1.8-8.7c-0.5-0.4-1.3-0.7-1.8-0.3c-0.7,0.4-0.7,1.4-0.6,2.2
														c0.3,1.8-0.6,3.2-0.9,5c-1.9,11.1-5.1,22-9.3,32.5c6,4.4,11.9,9,17.9,13.3c0.7-9.7,1.5-20.3,8.6-26.9
														c5.3-4.8,10.6-9.7,15.1-15.3c0.4-0.5,0.8-1.1,1-1.7C492,262,491.8,261.2,491.2,261z"/>
													<path class="st29" d="M449.9,286.7c-1.8,0.8-3.4,2.4-4.7,4c-12.1,14-18.7,36.4-19.2,54.8c-0.1,5.1,0.3,10.3,2.7,14.8
														c2.4,4.5,7,8.1,12.1,8c2.3,0,4.5-0.7,6.5-1.8c16.5-8.3,19.8-30.4,23.4-46.3c1.3-5.8,2.4-11.8,0.8-17.5
														c-2-7-7.9-12.5-14.5-15.5c-1.5-0.7-3.1-1.2-4.7-1.1C451.3,286.1,450.6,286.4,449.9,286.7z"/>
													<path class="st17" d="M328.4,394c-1.5,3.7-3.6,7.2-6.6,9.8s-6.9,4.4-10.9,4.5"/>
													<path d="M376.3,191.2c2.9,0.6,5.4,2.8,6.4,5.6c2.9,8.2-8.1,16.2-15,11.1c-3.4-2.5-7.2-7.2-4.2-11.1
														C366.3,193.2,371.9,190.3,376.3,191.2z"/>
													<path class="st13" d="M354.2,262.7c3,5,9.2,7.7,15,7.4s11.3-3.5,15.3-7.9"/>
												</g>
												<path class="st17" d="M440.2,297.3c-5.2,12.8-9.4,22.7-9.3,36.6"/>
												<path class="st17" d="M476.3,257.1c1.6,1.9,3.1,3.9,4.7,5.8c1,1.2,2,2.6,1.6,4"/>
												<path class="st17" d="M464.7,263.5c0.2,1.4,0.5,2.8,0.7,4.1"/>
												<path class="st17" d="M405.6,393.5c5.6,5.3,13.4,8.3,21.1,8.2"/>
												<g>
													<path class="st7" d="M366.2,312.6c-3.9-3.3-8.1-6.2-12.5-8.8c-1.7-1-3.2,1.6-1.5,2.6c4.2,2.5,8.2,5.2,11.9,8.3
														c0.6,0.5,1.5,0.6,2.1,0C366.8,314.2,366.9,313.1,366.2,312.6z"/>
													<path class="st7" d="M387.7,335.1c-0.7-0.4-1.6-0.2-2.1,0.5c-1.4,2.2-2.8,4.5-4.1,6.7c-0.4,0.7-0.2,1.7,0.5,2.1
														c0.7,0.4,1.6,0.2,2.1-0.5c1.4-2.2,2.8-4.5,4.1-6.7C388.7,336.4,388.5,335.4,387.7,335.1z"/>
													<path class="st7" d="M349,337.4c-0.1-0.8-0.6-1.5-1.5-1.5c-0.7,0-1.6,0.7-1.5,1.5c0.4,3.5,0.7,6.9,1.1,10.4
														c0.1,0.8,0.6,1.5,1.5,1.5c0.7,0,1.6-0.7,1.5-1.5C349.7,344.3,349.4,340.9,349,337.4z"/>
													<path class="st7" d="M367.7,373.3c-0.3-0.8-1-1.3-1.8-1c-2.1,0.5-4.1,1-6.2,1.6c-0.8,0.2-1.3,1.1-1,1.8
														c0.3,0.8,1,1.3,1.8,1c2.1-0.5,4.1-1,6.2-1.6C367.4,374.9,368,374,367.7,373.3z"/>
													<path class="st7" d="M402.4,369.1c-0.9-2.8-1.7-5.5-2.6-8.3c-0.2-0.7-1.1-1.3-1.8-1c-0.8,0.2-1.3,1-1,1.8
														c0.9,2.8,1.7,5.5,2.6,8.3c0.2,0.7,1.1,1.3,1.8,1C402.1,370.7,402.7,369.9,402.4,369.1z"/>
													<path class="st7" d="M385.3,300.2c-1.3-3.2-2.2-6.6-2.6-10c-0.1-0.8-0.6-1.5-1.5-1.5c-0.7,0-1.6,0.7-1.5,1.5
														c0.4,3.7,1.3,7.3,2.7,10.8c0.3,0.7,1,1.3,1.8,1C385,301.9,385.6,301,385.3,300.2z"/>
													<path class="st7" d="M406.9,275.5c-0.8-0.4-1.6-0.2-2.1,0.5c-1,1.6-2.1,3.1-3.1,4.7c-0.4,0.7-0.1,1.7,0.5,2.1
														c0.8,0.4,1.6,0.2,2.1-0.5c1-1.6,2.1-3.1,3.1-4.7C407.8,276.9,407.6,275.8,406.9,275.5z"/>
													<path class="st7" d="M437,354.2c-0.8-0.5-1.5-1-2.2-1.6c-0.1-0.1-0.2-0.1-0.3-0.2c0,0,0,0-0.1,0
														c-0.2-0.1-0.3-0.3-0.5-0.4c-0.4-0.3-0.7-0.6-1.1-0.9c-1.4-1.2-2.7-2.5-3.9-3.8c-0.5-0.6-1.6-0.6-2.1,0
														c-0.6,0.6-0.6,1.5,0,2.1c2.5,2.9,5.4,5.4,8.6,7.4c0.7,0.4,1.7,0.2,2.1-0.5C437.9,355.5,437.7,354.6,437,354.2z"/>
													<path class="st7" d="M460.5,325.6c-0.8-3.4-2.1-6.7-3.9-9.6c-0.4-0.7-1.4-1-2.1-0.5c-0.7,0.4-1,1.3-0.5,2.1
														c1.7,2.8,2.9,5.7,3.6,8.9c0.2,0.8,1.1,1.3,1.8,1C460.3,327.2,460.7,326.4,460.5,325.6z"/>
													<path class="st7" d="M428.7,297.8c-0.4-0.6-1.4-1-2.1-0.5c-3.8,2.9-7.1,6.4-9.9,10.3c-0.5,0.7-0.1,1.7,0.5,2.1
														c0.8,0.4,1.6,0.1,2.1-0.5c1.2-1.7,2.6-3.3,4.1-4.9c0.7-0.8,1.5-1.5,2.3-2.3c0.4-0.4,0.8-0.8,1.3-1.1
														c0.4-0.3,0.9-0.7,1.2-0.9C428.8,299.4,429.1,298.6,428.7,297.8z"/>
													<path class="st7" d="M336,278.6c-0.2-0.3-0.5-0.6-0.9-0.7c-1-0.3-2.1-0.7-3.1-1c-0.4-0.1-0.8,0-1.2,0.2
														c-0.3,0.2-0.6,0.5-0.7,0.9c-0.1,0.4-0.1,0.8,0.2,1.2c0.2,0.3,0.5,0.6,0.9,0.7c1,0.3,2.1,0.7,3.1,1
														c0.4,0.1,0.8,0,1.2-0.2c0.3-0.2,0.6-0.5,0.7-0.9C336.2,279.4,336.2,279,336,278.6z"/>
													<path class="st7" d="M359,277.3c-0.6-0.5-1.6-0.6-2.1,0c-2.4,2.9-4.8,5.9-7.3,8.8c-0.5,0.6-0.6,1.5,0,2.1
														c0.6,0.5,1.6,0.6,2.1,0c2.4-2.9,4.8-5.9,7.3-8.8C359.5,278.8,359.7,277.9,359,277.3z"/>
													<path class="st7" d="M309.8,298.6c-0.9-2.9-1.3-5.4-1.3-8.4c0-0.8-0.7-1.5-1.5-1.5c-0.8,0-1.5,0.7-1.5,1.5
														c0,3.1,0.5,6.2,1.4,9.2c0.2,0.7,1.1,1.3,1.8,1C309.5,300.2,310,299.4,309.8,298.6z"/>
													<path class="st7" d="M320.4,310.7c-0.2-0.3-0.5-0.6-0.9-0.7c-0.4-0.1-0.8-0.1-1.2,0.2c-0.9,0.7-1.7,1.4-2.5,2.2
														s-1.5,1.6-2.2,2.5c-0.2,0.3-0.2,0.8-0.2,1.2c0.1,0.3,0.4,0.7,0.7,0.9c0.3,0.2,0.8,0.3,1.2,0.2c0.4-0.1,0.6-0.4,0.9-0.7
														c0,0,0,0,0,0c1-1.3,2.2-2.5,3.5-3.5c0,0,0,0,0,0c0.3-0.2,0.6-0.5,0.7-0.9C320.7,311.5,320.6,311.1,320.4,310.7z"/>
													<path class="st7" d="M307.1,340.1c-0.1-0.3-0.3-0.7-0.7-0.9c-1.2-0.5-2.4-1-3.6-1.6c-0.2-0.1-0.4-0.2-0.6-0.2
														c-0.2,0-0.4,0-0.6,0c-0.3,0.1-0.7,0.4-0.9,0.7c-0.2,0.3-0.3,0.8-0.2,1.2c0.1,0.3,0.3,0.7,0.7,0.9
														c1.2,0.5,2.4,1,3.6,1.6c0.2,0.1,0.4,0.2,0.6,0.2c0.2,0,0.4,0,0.6,0c0.3-0.1,0.7-0.4,0.9-0.7
														C307.1,340.9,307.2,340.5,307.1,340.1z"/>
													<path class="st7" d="M311,362c-0.7-0.4-1.7-0.2-2.1,0.5c-1.8,3.5-2.9,7.2-3.2,11.1c-0.1,0.8,0.7,1.5,1.5,1.5
														c0.9,0,1.4-0.7,1.5-1.5c0.3-3.3,1.3-6.7,2.8-9.6C312,363.3,311.8,362.4,311,362z"/>
													<path class="st7" d="M290,378.5c-3.5-0.9-6.9-1.7-10.4-2.6c-0.8-0.2-1.6,0.3-1.8,1c-0.2,0.8,0.3,1.6,1,1.8
														c3.5,0.9,6.9,1.7,10.4,2.6c0.8,0.2,1.6-0.3,1.8-1C291.3,379.5,290.8,378.7,290,378.5z"/>
													<path class="st7" d="M280.7,402.1c0-0.4-0.1-0.8-0.4-1.1c-0.3-0.3-0.7-0.5-1.1-0.4c-0.8,0-1.6,0.7-1.5,1.5
														c0.2,1.9,0.3,3.8,0.5,5.7c0,0.4,0.1,0.8,0.4,1.1c0.3,0.3,0.7,0.5,1.1,0.4c0.8,0,1.6-0.7,1.5-1.5
														C281.1,405.9,280.9,404,280.7,402.1z"/>
													<path class="st7" d="M296.7,403.8c-0.8-0.2-1.6,0.3-1.8,1c-0.7,1.9-1.4,3.8-2.1,5.7c-0.3,0.7,0.3,1.7,1,1.8
														c0.8,0.2,1.6-0.3,1.8-1c0.7-1.9,1.4-3.8,2.1-5.7C298.1,404.9,297.5,404,296.7,403.8z"/>
													<path class="st7" d="M336.1,377.4c-0.9-2.4-1.7-4.8-2.6-7.3c-0.3-0.7-1-1.3-1.8-1c-0.7,0.2-1.3,1.1-1,1.8
														c0.9,2.4,1.7,4.8,2.6,7.3c0.3,0.7,1,1.3,1.8,1C335.8,379,336.4,378.2,336.1,377.4z"/>
													<path class="st7" d="M450.3,337.9c-0.1-0.8-0.6-1.5-1.5-1.5c-0.7,0-1.6,0.7-1.5,1.5c0.3,3.3,0.6,6.6,1,9.8
														c0.1,0.8,0.6,1.5,1.5,1.5c0.7,0,1.6-0.7,1.5-1.5C450.9,344.5,450.6,341.2,450.3,337.9z"/>
													<path class="st7" d="M454.7,297.5c-0.3-0.8-1-1.2-1.8-1c-3.1,0.6-6.2,1.6-9.1,2.9c-0.7,0.3-0.9,1.4-0.5,2.1
														c0.5,0.8,1.3,0.9,2.1,0.5c-0.1,0-0.1,0,0.1,0c0.1,0,0.2-0.1,0.3-0.1c0.2-0.1,0.3-0.1,0.5-0.2c0.4-0.1,0.7-0.3,1.1-0.4
														c0.7-0.3,1.4-0.5,2.1-0.7c1.4-0.4,2.9-0.8,4.4-1.1C454.4,299.2,455,298.3,454.7,297.5z"/>
												</g>
												<g>
													<g>
														<defs>
															<path id="SVGID_21_" d="M338.5,294.5c0.9-7.3,0.7-14.8,0.8-22.1c0-3,0.2-6,0-9c-5.2,1.7-10.4,3.7-15.4,5.9
																c-4.4,1.9-8.8,4.1-12.5,7.2c-10.8,9.1-16.3,24.2-21.2,37c-10.6,28-17.4,58.1-22.9,87.6c-0.9,5.1-1.8,10.4,0,15.3
																c2.7,7.1,10.6,10.9,18.2,12c3,0.4,6,0.6,8.9-0.3c6.9-2.2,10.4-9.6,12.9-16.4c7-19.2,9.3-39.6,13.9-59.5
																C325.7,332.6,336,314.5,338.5,294.5z"/>
														</defs>
														<clipPath id="SVGID_22_">
															<use xlink:href="#SVGID_21_"  style="overflow:visible;"/>
														</clipPath>
														<path class="st30" d="M279.8,330.7c1.9-1.9,5.2-2.2,7.4-0.6s3.1,4.8,1.9,7.2c-1.1,2.4-4,4.3-3.6,7
															c0.3,1.8,2.1,3,2.8,4.7c1.4,3-0.9,6.3-2.1,9.4c-0.4,0.9-0.6,1.9-1.2,2.8c-1.5,2.5-4.7,3.4-7.5,3.4s-5.7-0.8-8.6-0.8
															c-2.9,0-6.1,0.8-7.7,3.2"/>
													</g>
												</g>
											</g>
										</g>
									</g>
								</g>
							</g>
						</g>
					</g>
				</g>
			</g>
		</g>
	</g>
</g>
</svg>
