<?xml version="1.0" encoding="utf-8"?>
<!-- Generator: Adobe Illustrator 22.1.0, SVG Export Plug-In . SVG Version: 6.00 Build 0)  -->
<svg version="1.1" id="Layer_1" xmlns="http://www.w3.org/2000/svg" xmlns:xlink="http://www.w3.org/1999/xlink" x="0px" y="0px"
	 viewBox="0 0 750 500" style="enable-background:new 0 0 750 500;" xml:space="preserve">
<style type="text/css">
	.st0{fill:#EBEBEB;}
	.st1{fill:#E0E0E0;}
	.st2{display:none;}
	.st3{display:inline;fill:#E0E0E0;}
	.st4{fill:#263238;}
	.st5{fill:#455A64;}
	.st6{fill:#4757D2;}
	.st7{opacity:0.5;}
	.st8{opacity:0.8;}
	.st9{fill:#FFFFFF;}
	.st10{fill:#FAFAFA;}
	.st11{fill:none;}
	.st12{fill:#FFBE9D;}
	.st13{opacity:0.3;}
	.st14{opacity:0.2;}
	.st15{fill:#EB996E;}
</style>
<g id="Background_Complete">
	<g>
		<g>
			<g>
				<g>
					<path class="st0" d="M159.7,450c27.8-18.6,34.6-53.8,34.1-85.5c-0.1-5.3,0.6-10.9-1.9-15.5c-2.5-4.7-8.4-7.9-13.2-5.8
						c-4,1.8-5.8,6.3-8.1,10.1c-3,5-7.5,9.1-12.8,11.7c-3.4,1.7-7.7,2.7-11,0.8c-4.6-2.6-5-8.9-4.9-14.2c0.2-9.8,0.4-19.6,0.6-29.4
						c0.1-5.3,0.2-10.6-1.4-15.7c-1.6-5-5.2-9.7-10.2-11.2c-5.1-1.5-11.4,1.3-12.5,6.5c-0.5,2.1-0.1,4.4-0.3,6.6
						c-0.2,2.2-1.3,4.6-3.4,5.2s-4.2-0.9-5.8-2.5c-5.4-5.4-9-12.3-12.4-19.2c-3.4-6.9-6.7-13.9-11.6-19.7
						c-4.9-5.9-11.7-10.6-19.4-11.1c-7.6-0.5-15.8,4-17.9,11.4c-2.1,7.4,2.2,15,6.9,21.1c6.9,9,15.2,17,24.4,23.7
						c1.7,1.2,3.5,2.5,4.1,4.5c1.1,3.5-2.3,7-5.8,8.1c-4,1.2-8.3,0.8-12.5,1.2c-4.2,0.4-8.7,2.2-10.3,6c-2.3,5.3,2.2,11.1,6.6,14.8
						c8.9,7.5,19,13.5,29.9,17.6c3.9,1.5,8,2.8,11.1,5.5c3.1,2.8,5,7.5,3,11.2s-6.9,4.8-11,4s-7.7-3.1-11.6-4.6
						c-7.3-2.8-16.8-2.5-21.5,3.7c-3.1,4.1-3.5,9.8-2,14.7c1.5,4.9,4.6,9.2,7.9,13.1c11.5,13.8,26.4,24.9,43.3,31
						C126.9,454,142.7,455.8,159.7,450"/>
				</g>
			</g>
		</g>
		<g>
			<g>
				<g>
					<g>
						<path class="st1" d="M151.6,430c-4.5-16.1-10.9-33.3-18.2-51c-1.8-4.4-3.7-8.8-5.5-13.1c-1.8-4.3-3.6-8.6-5.6-12.7
							c-4-8.2-8.4-15.7-12.9-22.7s-8.9-13.6-13.2-19.6c-4.3-6.1-8.3-11.6-12.3-16.6c-7.8-9.9-15.1-17.1-20.3-21.9
							c-2.6-2.4-4.7-4.2-6.1-5.4c-0.7-0.6-1.2-1-1.6-1.4c-0.4-0.3-0.6-0.4-0.6-0.4s0.2,0.2,0.5,0.5c0.4,0.3,0.9,0.8,1.6,1.4
							c1.4,1.2,3.4,3.1,6,5.5c5.1,4.8,12.3,12.1,20.1,22c3.9,4.9,7.9,10.5,12.2,16.6c4.2,6.1,8.7,12.6,13.1,19.6s8.9,14.6,12.8,22.7
							c2,4.1,3.8,8.3,5.6,12.6c1.8,4.3,3.6,8.7,5.5,13.1c7.3,17.8,13.7,34.9,18.2,50.9"/>
					</g>
				</g>
			</g>
		</g>
		<g>
			<g>
				<g>
					<g>
						<path class="st1" d="M122.2,353.1c0.1,0,0.2-0.8,0.5-2.2c0.3-1.5,0.6-3.6,1.1-6.2c0.8-5.2,1.7-12.5,2.7-20.5s2-15.2,2.9-20.4
							c0.5-2.6,0.9-4.7,1.1-6.2c0.3-1.4,0.4-2.3,0.4-2.3c-0.1,0-0.3,0.8-0.7,2.2c-0.4,1.4-0.9,3.5-1.4,6.1
							c-1.1,5.2-2.2,12.4-3.2,20.4c-0.9,7.9-1.8,15.1-2.4,20.5c-0.3,2.5-0.6,4.6-0.8,6.2C122.2,352.3,122.1,353.1,122.2,353.1z"/>
					</g>
				</g>
			</g>
		</g>
		<g>
			<g>
				<g>
					<g>
						<path class="st1" d="M53.8,339.4c0,0,0.2,0.1,0.7,0.1c0.6,0.1,1.2,0.1,2,0.2c1.8,0.2,4.3,0.4,7.4,0.8c6.3,0.7,14.9,2.1,24.3,4
							s17.9,4,24,5.7c3,0.8,5.5,1.6,7.2,2.1c0.8,0.2,1.4,0.4,2,0.6c0.4,0.1,0.7,0.2,0.7,0.1c0,0-0.2-0.1-0.6-0.3
							c-0.5-0.2-1.2-0.4-1.9-0.7c-1.7-0.6-4.1-1.4-7.1-2.3c-6.1-1.9-14.5-4-24-6c-9.5-1.9-18.1-3.2-24.4-3.8
							c-3.1-0.3-5.7-0.5-7.5-0.6c-0.8,0-1.5,0-2-0.1C54,339.4,53.8,339.4,53.8,339.4z"/>
					</g>
				</g>
			</g>
		</g>
		<g>
			<g>
				<g>
					<g>
						<path class="st1" d="M150.8,428.7c0,0,0.2-0.3,0.5-0.8c0.3-0.6,0.7-1.4,1.2-2.4c1-2.1,2.4-5.2,4.2-9.1
							c3.4-7.7,7.8-18.5,12.5-30.5s9-22.8,12.3-30.5c1.6-3.8,3-6.9,3.9-9.2c0.4-1,0.8-1.8,1.1-2.5c0.2-0.6,0.3-0.9,0.3-0.9
							s-0.2,0.3-0.5,0.8c-0.3,0.6-0.7,1.4-1.2,2.4c-1,2.1-2.4,5.2-4.1,9.1c-3.4,7.7-7.8,18.5-12.5,30.5s-9,22.8-12.3,30.5
							c-1.6,3.8-3,6.9-3.9,9.2c-0.4,1-0.8,1.8-1.1,2.5C150.9,428.4,150.8,428.7,150.8,428.7z"/>
					</g>
				</g>
			</g>
		</g>
		<g>
			<g>
				<g>
					<g>
						<path class="st1" d="M60.2,398.4c0,0,0.3,0.2,0.9,0.4c0.7,0.2,1.6,0.5,2.6,0.9c2.4,0.8,5.7,1.9,9.7,3.2
							c8.2,2.7,19.5,6.7,31.9,11c12.5,4.4,23.8,8.2,32,10.8c4.1,1.3,7.5,2.3,9.8,3c1.1,0.3,2,0.6,2.7,0.8c0.6,0.2,0.9,0.2,1,0.2
							c0,0-0.3-0.2-0.9-0.4c-0.7-0.2-1.6-0.5-2.6-0.9c-2.4-0.8-5.7-1.9-9.7-3.2c-8.2-2.7-19.5-6.7-31.9-11
							c-12.5-4.4-23.8-8.2-32-10.8c-4.1-1.3-7.5-2.3-9.8-3c-1.1-0.3-2-0.6-2.7-0.8C60.5,398.4,60.2,398.4,60.2,398.4z"/>
					</g>
				</g>
			</g>
		</g>
	</g>
	<g>
		<g>
			
				<rect x="588.6" y="245.7" transform="matrix(0.3659 -0.9306 0.9306 0.3659 111.506 786.4905)" class="st0" width="88.6" height="131.4"/>
		</g>
		<g>
			<g>
				<g>
					<path class="st1" d="M710.3,295.4c0,0-0.5,0.3-1.6,0.6c-1.2,0.4-2.7,1-4.6,1.6c-4.1,1.4-9.9,3.4-16.9,5.8
						c-14.4,4.9-34.2,11.5-56.1,18.9l-0.5,0.2l-0.2-0.4c-0.2-0.3-0.4-0.7-0.6-1c-11.6-20.3-22.1-38.7-29.8-52.1
						c-3.7-6.6-6.7-12-8.9-15.9c-1-1.8-1.8-3.2-2.4-4.3c-0.5-1-0.8-1.5-0.8-1.6c0,0,0.4,0.5,1,1.4c0.6,1.1,1.5,2.5,2.6,4.2
						c2.2,3.8,5.4,9.1,9.2,15.7c7.8,13.4,18.4,31.7,30.1,51.9c0.2,0.4,0.4,0.7,0.6,1l-0.7-0.3c21.9-7.2,41.7-13.8,56.2-18.6
						c7.1-2.3,12.9-4.2,17-5.5c1.9-0.6,3.5-1.1,4.6-1.4C709.8,295.5,710.3,295.4,710.3,295.4z"/>
				</g>
			</g>
		</g>
		<g>
			<g>
				<path class="st1" d="M555.7,329.7c-0.2-0.3,13.5-8,30.5-17.2s30.9-16.4,31-16.1c0.2,0.3-13.5,8-30.5,17.2
					C569.7,322.8,555.8,330,555.7,329.7z"/>
			</g>
		</g>
		<g>
			<g>
				<path class="st1" d="M658.2,311.4c0.3-0.1,5,14.7,10.4,33c5.5,18.3,9.6,33.3,9.3,33.4s-5-14.7-10.4-33
					C662,326.5,657.9,311.5,658.2,311.4z"/>
			</g>
		</g>
	</g>
	<g>
		<g>
			
				<rect x="614.2" y="153" transform="matrix(0.9168 -0.3993 0.3993 0.9168 -17.3255 275.873)" class="st0" width="78.6" height="53"/>
		</g>
		<g>
			<g>
				<g>
					<path class="st1" d="M679.5,140c0,0-0.1,0.3-0.4,0.9c-0.3,0.7-0.7,1.5-1.2,2.6c-1.1,2.3-2.7,5.6-4.7,9.6
						c-4,8.2-9.6,19.3-15.7,31.7l-0.1,0.3l-0.3-0.1c-0.2-0.1-0.4-0.1-0.7-0.2c-13.5-3.7-25.7-7-34.6-9.4c-4.4-1.2-7.9-2.2-10.5-2.9
						c-1.2-0.3-2.1-0.6-2.8-0.8c-0.6-0.2-1-0.3-1-0.3s0.4,0,1,0.2c0.7,0.2,1.7,0.4,2.9,0.7c2.6,0.7,6.1,1.6,10.5,2.7
						c8.9,2.4,21.2,5.6,34.7,9.2c0.2,0.1,0.5,0.1,0.7,0.2l-0.4,0.2c6.2-12.3,11.8-23.5,15.9-31.6c2-4,3.7-7.2,4.9-9.5
						c0.6-1.1,1-1.9,1.4-2.6C679.3,140.3,679.5,140,679.5,140z"/>
				</g>
			</g>
		</g>
		<g>
			<g>
				<path class="st1" d="M628.6,220c-0.2-0.1,2.3-9.1,5.6-20.1c3.3-11.1,6.1-20,6.3-19.9s-2.3,9.1-5.6,20.1S628.8,220,628.6,220z"/>
			</g>
		</g>
		<g>
			<g>
				<path class="st1" d="M664.2,168.9c0.1-0.2,8.3,4.1,18.4,9.6c10.1,5.4,18.1,10,18,10.2s-8.3-4.1-18.4-9.6
					C672.2,173.6,664.1,169,664.2,168.9z"/>
			</g>
		</g>
	</g>
</g>
<g id="Background_Simple" class="st2">
	<path class="st3" d="M666.8,223.5c-14.9-20.3-39.4-33.7-64.6-33.6c-41.5,0.2-74.8,34-114.6,45.6c-25.6,7.4-53.8,5.2-77.9-6.2
		c-66.8-31.5-89.8-122-156.9-152.8c-46.9-21.5-106.4-5.4-140.5,33.3s-43.2,96-28.6,145.5s40.1,98.1,84.1,125l4.1,3.7
		c92.5,63,220.3,69.4,346.9,51.7c37.5-5.2,73.5-21.5,105.5-41.8s53.4-61.3,59.2-98.8C687.3,270.4,681.7,243.8,666.8,223.5z"/>
</g>
<g id="Floor">
	<g>
		<g>
			<g>
				<path class="st4" d="M697.9,450.4c0,0.1-144.6,0.3-322.9,0.3c-178.4,0-322.9-0.1-322.9-0.3s144.5-0.3,322.9-0.3
					C553.3,450.2,697.9,450.3,697.9,450.4z"/>
			</g>
		</g>
	</g>
</g>
<g id="Device">
	<g>
		<g>
			<g>
				<g>
					<g>
						<path class="st4" d="M581.8,446.5H168.3c-8,0-14.6-6.5-14.6-14.6V168.4c0-8,6.5-14.6,14.6-14.6h413.5c8,0,14.6,6.5,14.6,14.6
							v263.5C596.3,439.9,589.8,446.5,581.8,446.5z"/>
					</g>
				</g>
			</g>
			<g>
				<g>
					<g>
						<path class="st4" d="M597,450.4H153c-9.8,0-17.8-8-17.8-17.8v-7.8h479.5v7.8C614.8,442.5,606.8,450.4,597,450.4z"/>
					</g>
				</g>
			</g>
			<g>
				<g>
					<g>
						<rect x="165.6" y="165.4" class="st5" width="417.6" height="247.2"/>
					</g>
				</g>
			</g>
			<g>
				<g>
					<g>
						<polygon class="st5" points="331.4,424.8 337.4,434.3 421.1,434.3 426.6,424.8 						"/>
					</g>
				</g>
			</g>
		</g>
		<g>
			<g>
				<g>
					<g>
						<g>
							<g>
								<g>
									<path class="st0" d="M572.2,411.8H177.5c-1.8,0-3.3-1.5-3.3-3.3V177.1c0-1.8,1.5-3.3,3.3-3.3h394.7c1.8,0,3.3,1.5,3.3,3.3
										v231.5C575.5,410.3,574,411.8,572.2,411.8z"/>
								</g>
							</g>
						</g>
					</g>
					<g>
						<g>
							<g>
								<g>
									<rect x="174.2" y="191.2" class="st0" width="401.2" height="220.6"/>
								</g>
							</g>
						</g>
					</g>
					<g>
						<g>
							<g>
								<g>
									<path class="st5" d="M207.1,183c0,1.8-1.4,3.2-3.2,3.2s-3.2-1.4-3.2-3.2s1.4-3.2,3.2-3.2
										C205.7,179.8,207.1,181.2,207.1,183z"/>
								</g>
							</g>
						</g>
					</g>
					<g>
						<g>
							<g>
								<g>
									<path class="st5" d="M187.7,183c0,1.8-1.4,3.2-3.2,3.2s-3.2-1.4-3.2-3.2s1.4-3.2,3.2-3.2S187.7,181.2,187.7,183z"/>
								</g>
							</g>
						</g>
					</g>
					<g>
						<g>
							<g>
								<g>
									<path class="st5" d="M197,183c0,1.8-1.4,3.2-3.2,3.2s-3.2-1.4-3.2-3.2s1.4-3.2,3.2-3.2S197,181.2,197,183z"/>
								</g>
							</g>
						</g>
					</g>
				</g>
			</g>
		</g>
		<g>
			<g>
				<g>
					<path class="st5" d="M592.5,424.8c0,0.2-98.2,0.3-219.4,0.3s-219.4-0.1-219.4-0.3c0-0.2,98.2-0.3,219.4-0.3
						S592.5,424.7,592.5,424.8z"/>
				</g>
			</g>
		</g>
	</g>
</g>
<g id="Paper_Plane">
	<g>
		<g>
			<g>
				<g>
					<path class="st4" d="M153.7,428c0,0-0.1-0.1-0.3-0.2s-0.6-0.4-1-0.6c-0.4-0.3-1-0.7-1.6-1.1s-1.4-0.9-2.2-1.6
						c-0.8-0.6-1.7-1.3-2.7-2.1c-1-0.8-2-1.7-3.1-2.7c-2.2-2-4.5-4.5-7-7.5c-4.8-6-9.8-14.2-13.2-24.7c-3.3-10.4-5.2-23-4.1-36.8
						c0.5-6.9,1.6-14.1,3.7-21.3c2.1-7.2,5-14.6,9.2-21.5c1-1.7,2.2-3.4,3.5-5.1c1.3-1.6,2.6-3.2,3.9-4.9c1.4-1.6,2.8-3.1,4.3-4.7
						c1.5-1.5,3.1-3,4.6-4.5c6.3-5.9,13.5-11.2,21.1-16.2c15.3-9.9,32.6-18.1,50.5-26.6c17.8-8.7,36.5-17.1,55.7-25.5
						c76.9-33.7,147.3-62.4,198.5-82.3c25.6-10,46.5-17.6,61-22.9c7.2-2.6,12.9-4.5,16.7-5.8c1.9-0.7,3.4-1.1,4.4-1.5
						c0.5-0.2,0.9-0.3,1.1-0.4c0.3-0.1,0.4-0.1,0.4-0.1s-0.1,0.1-0.4,0.2c-0.3,0.1-0.6,0.2-1.1,0.4c-1,0.4-2.4,0.9-4.3,1.6
						c-3.8,1.4-9.4,3.4-16.7,6c-14.4,5.3-35.3,13.1-60.9,23.2c-51.2,20.1-121.5,48.9-198.4,82.6c-19.2,8.4-37.9,16.8-55.7,25.5
						c-17.8,8.5-35.1,16.7-50.4,26.5c-7.6,4.9-14.7,10.2-21,16c-1.5,1.5-3.1,2.9-4.6,4.5c-1.4,1.6-2.9,3.1-4.3,4.6
						c-1.3,1.6-2.6,3.2-3.9,4.8c-1.2,1.6-2.4,3.3-3.4,5c-4.2,6.8-7.1,14.1-9.2,21.3c-2.1,7.2-3.2,14.3-3.8,21.1
						c-1.1,13.7,0.7,26.2,4,36.5c3.3,10.4,8.2,18.6,12.9,24.6c2.4,3,4.7,5.5,6.9,7.5c1.1,1,2.1,2,3,2.8c1,0.8,1.8,1.5,2.6,2.1
						c0.8,0.7,1.5,1.2,2.1,1.6s1.1,0.8,1.6,1.1c0.4,0.3,0.7,0.5,0.9,0.7C153.6,427.9,153.7,428,153.7,428z"/>
				</g>
			</g>
		</g>
		<g>
			<g>
				<g>
					<g>
						<polygon class="st6" points="540.4,74.7 558.9,90 557.2,107.6 572.3,99.2 588.5,110.6 648.7,72 						"/>
					</g>
				</g>
				<g class="st7">
					<g>
						<polygon points="558.9,90 647.1,72 567.8,96 557.2,107.6 557.2,107.6 						"/>
					</g>
				</g>
			</g>
			<g class="st8">
				<g>
					<polygon points="567.8,96 572.3,99.2 557.2,107.6 					"/>
				</g>
			</g>
		</g>
	</g>
</g>
<g id="Letters">
	<g>
		<g>
			<g>
				
					<rect x="197.1" y="310.2" transform="matrix(0.9955 -9.440643e-02 9.440643e-02 0.9955 -31.2606 24.6969)" class="st9" width="96.6" height="65.1"/>
			</g>
			<g>
				<g>
					<path class="st5" d="M296.6,370.7c0,0-0.1-0.4-0.2-1.2c-0.1-0.8-0.2-2-0.4-3.4c-0.3-3-0.8-7.4-1.3-13.1
						c-1.1-11.3-2.7-27.4-4.7-47.1l0.4,0.3c-26.6,2.5-60,5.7-96.2,9.2c-0.1,0.1,0.8-0.9,0.4-0.5l0,0l0,0v0.1v0.1v0.3l0.1,0.5
						l0.1,1.1l0.2,2.2c0.1,1.4,0.3,2.9,0.4,4.3c0.3,2.9,0.5,5.7,0.8,8.5c0.5,5.6,1.1,11.2,1.6,16.6c1,10.9,2,21.3,2.9,31.2l-0.4-0.4
						c28.3-2.6,52.3-4.8,69.3-6.4c8.5-0.8,15.2-1.4,19.8-1.8c2.3-0.2,4.1-0.3,5.3-0.5c0.6,0,1-0.1,1.4-0.1
						C296.4,370.7,296.6,370.6,296.6,370.7c0,0-0.1,0-0.4,0.1c-0.3,0-0.8,0.1-1.3,0.1c-1.2,0.1-3,0.3-5.2,0.5
						c-4.6,0.5-11.3,1.1-19.7,2c-17,1.7-41.1,4-69.5,6.8h-0.4v-0.4c-0.9-9.9-1.9-20.3-3-31.2c-0.5-5.4-1-11-1.6-16.6
						c-0.3-2.8-0.5-5.6-0.8-8.5c-0.1-1.4-0.3-2.9-0.4-4.3l-0.2-2.2l-0.1-1.1l-0.1-0.5v-0.3V315v-0.1l0,0l0,0
						c-0.4,0.4,0.5-0.6,0.4-0.5c36.2-3.4,69.6-6.5,96.2-9h0.4v0.4c1.8,19.8,3.3,36,4.3,47.4c0.5,5.6,0.9,10,1.1,13
						c0.1,1.5,0.2,2.6,0.3,3.4C296.6,370.3,296.6,370.7,296.6,370.7z"/>
				</g>
			</g>
		</g>
		<g>
			<g>
				<path class="st5" d="M290.4,305.8c0,0-0.2,0.3-0.7,1c-0.6,0.7-1.3,1.5-2.3,2.6c-2.1,2.3-4.9,5.6-8.5,9.6
					c-7.3,8.2-17.3,19.4-28.5,31.8l-0.3,0.3l-0.3-0.2c-0.8-0.5-1.7-1.1-2.6-1.6c-14.7-9.4-27.9-17.9-37.7-24.2
					c-4.7-3.1-8.6-5.6-11.4-7.4c-1.3-0.9-2.3-1.5-3.1-2.1c-0.7-0.5-1.1-0.7-1-0.8s0.4,0.2,1.1,0.6c0.8,0.5,1.8,1.1,3.2,1.9
					c2.8,1.7,6.7,4.2,11.5,7.2c9.7,6.2,23.1,14.6,37.8,23.9c0.9,0.6,1.8,1.1,2.6,1.6l-0.6,0.1c11.2-12.4,21.3-23.5,28.7-31.6
					c3.6-3.9,6.6-7.1,8.7-9.4c1-1,1.8-1.9,2.4-2.5C290.1,306.1,290.4,305.8,290.4,305.8z"/>
			</g>
		</g>
	</g>
	<g>
		<g>
			<g>
				
					<rect x="497.5" y="209.4" transform="matrix(0.272 -0.9623 0.9623 0.272 143.9856 679.9363)" class="st9" width="47.8" height="70.9"/>
			</g>
			<g>
				<g>
					<path class="st5" d="M549,277.4c0,0,0.1-0.3,0.2-0.9c0.2-0.6,0.4-1.4,0.7-2.5c0.6-2.2,1.5-5.3,2.6-9.3c2.2-8,5.4-19.5,9.3-33.5
						l0.2,0.3c-18.8-5.3-42.6-12-68.2-19.2c-0.1,0,0.8-0.4,0.4-0.2l0,0l0,0l0,0v0.1l-0.1,0.2l-0.1,0.4l-0.2,0.8l-0.4,1.5
						c-0.3,1-0.6,2-0.9,3c-0.6,2-1.1,4-1.7,6c-1.1,4-2.2,7.9-3.3,11.8c-2.2,7.7-4.3,15.1-6.3,22.1l-0.2-0.4c20,5.7,37,10.6,49.1,14
						c6,1.7,10.8,3.1,14,4.1c1.6,0.5,2.9,0.8,3.7,1.1c0.4,0.1,0.7,0.2,1,0.3C548.9,277.4,549,277.4,549,277.4s-0.1,0-0.3-0.1
						s-0.5-0.1-0.9-0.2c-0.9-0.2-2.1-0.6-3.7-1c-3.3-0.9-8-2.2-14-3.9c-12.1-3.4-29.2-8.2-49.3-13.8l-0.3-0.1l0.1-0.3
						c2-7,4.1-14.4,6.2-22.1c1.1-3.9,2.2-7.8,3.3-11.8c0.6-2,1.1-4,1.7-6c0.3-1,0.6-2,0.9-3l0.4-1.5l0.2-0.8l0.1-0.4l0.1-0.2v-0.1
						l0,0l0,0l0,0c-0.4,0.2,0.5-0.3,0.4-0.2c25.7,7.3,49.4,14,68.2,19.3l0.3,0.1l-0.1,0.3c-4,14-7.3,25.5-9.6,33.5
						c-1.1,4-2,7.1-2.7,9.2c-0.3,1-0.5,1.8-0.7,2.4C549.1,277.2,549,277.4,549,277.4z"/>
				</g>
			</g>
		</g>
		<g>
			<g>
				<path class="st5" d="M562,231.4c0,0-0.3,0.2-0.8,0.5c-0.6,0.3-1.3,0.7-2.3,1.2c-2,1.1-4.9,2.5-8.4,4.3
					c-7.2,3.6-17,8.6-27.9,14.2l-0.2,0.1l-0.2-0.2c-0.4-0.6-0.9-1.2-1.3-1.8c-7.5-10.3-14.4-19.7-19.4-26.5
					c-2.4-3.4-4.4-6.1-5.8-8.1c-0.6-0.9-1.2-1.7-1.6-2.2c-0.3-0.5-0.5-0.8-0.5-0.8s0.2,0.2,0.6,0.7s1,1.3,1.6,2.1
					c1.5,1.9,3.5,4.6,6,8c5,6.8,11.9,16.1,19.5,26.4c0.5,0.6,0.9,1.2,1.3,1.8l-0.4-0.1c11-5.5,20.8-10.4,28-14
					c3.5-1.7,6.4-3.1,8.5-4.2c1-0.5,1.7-0.8,2.3-1.1C561.7,231.5,562,231.4,562,231.4z"/>
			</g>
		</g>
	</g>
</g>
<g id="Plant">
	<g>
		<g>
			<g>
				<g>
					<path class="st6" d="M202.2,201.2c0,0,4.7-3.8,12,7.6s10.3,18.1,10.3,18.1s1.9,2.4,3.4,0.5s3.5-6.7,6.5-6.2
						c3.1,0.6,4.5,3.9,4.4,8.9c-0.1,5.1,0.1,16.2,0.1,17.2s0.7,2.4,2,1.3s8.2-10.5,12.5-6.9c4.3,3.6,1.7,17.6,1.4,19.2
						c-0.3,1.5,0.1,2.2,0.9,2.5c0.7,0.3,2.8-3.1,4.9-5.7s5-5.3,7.3-3c2.3,2.3,4,12.5-4.2,30.1l-4.3,7.9l-9,0.4
						c-19.4-0.4-27.8-6.3-28.9-9.4c-1-3.1,2.6-4.5,5.9-5.2s7.2-1.1,7.3-1.9s-0.3-1.4-1.8-1.8s-15.3-4.3-16.6-9.7
						c-1.3-5.4,10.2-7.5,11.7-8.2s0.6-1.9-0.3-2.4c-0.9-0.5-10.8-5.5-15.4-7.6c-4.6-2.1-7-4.8-6.1-7.8c0.8-3,6.1-2.5,8.4-3.2
						s1-3.3,1-3.3s-4.7-5.6-11.8-17.2s-1.4-14.2-1.4-14.2"/>
				</g>
			</g>
		</g>
		<g>
			<g>
				<g>
					<g>
						<path class="st4" d="M208.7,211.4c0,0,0,0.1,0.1,0.3s0.2,0.4,0.4,0.7c0.4,0.6,0.9,1.6,1.7,2.7c1.4,2.4,3.5,5.8,6.2,10.1
							c5.2,8.5,12.6,20.1,20.7,32.9c8.1,12.8,15.5,24.5,20.8,32.9c2.6,4.2,4.8,7.6,6.2,10c0.7,1.2,1.3,2.1,1.7,2.7
							c0.2,0.3,0.3,0.5,0.4,0.7s0.2,0.2,0.2,0.2s0-0.1-0.1-0.3c-0.1-0.2-0.2-0.4-0.4-0.7c-0.4-0.6-0.9-1.6-1.7-2.7
							c-1.4-2.4-3.5-5.8-6.2-10.1c-5.2-8.5-12.6-20.1-20.7-32.9c-8.1-12.8-15.5-24.4-20.8-32.9c-2.6-4.2-4.8-7.6-6.2-10
							c-0.7-1.2-1.3-2.1-1.7-2.7c-0.2-0.3-0.3-0.5-0.4-0.7C208.8,211.5,208.7,211.4,208.7,211.4z"/>
					</g>
				</g>
			</g>
		</g>
		<g>
			<g>
				<g>
					<g>
						<path class="st4" d="M232,228.3c0,0-0.1,0.2-0.2,0.6c-0.1,0.4-0.2,1-0.3,1.7c-0.3,1.5-0.6,3.5-0.9,5.8
							c-0.3,2.2-0.6,4.2-0.8,5.8c-0.1,0.7-0.2,1.3-0.2,1.8c-0.1,0.4-0.1,0.6-0.1,0.6s0.1-0.2,0.2-0.6c0.1-0.4,0.2-1,0.3-1.7
							c0.3-1.5,0.5-3.5,0.9-5.8c0.3-2.2,0.6-4.2,0.8-5.8c0.1-0.7,0.2-1.3,0.3-1.8C232,228.5,232,228.3,232,228.3z"/>
					</g>
				</g>
			</g>
		</g>
		<g>
			<g>
				<g>
					<g>
						<path class="st4" d="M228.7,244.9c0-0.1-4.2-0.9-9.3-1.9c-5.2-1-9.4-1.7-9.4-1.6c0,0.1,4.2,0.9,9.3,1.9
							C224.5,244.2,228.7,245,228.7,244.9z"/>
					</g>
				</g>
			</g>
		</g>
		<g>
			<g>
				<g>
					<g>
						<path class="st4" d="M242.1,264c0,0-0.2,0-0.7,0s-1.1,0.1-1.8,0.2c-1.5,0.1-3.6,0.3-5.9,0.5c-2.3,0.1-4.4,0.2-6,0.2
							c-0.7,0-1.3,0-1.8,0c-0.4,0-0.7,0-0.7,0s0.2,0,0.7,0.1s1,0,1.8,0.1c1.5,0,3.6,0,6-0.1c2.3-0.1,4.4-0.4,5.9-0.6
							c0.8-0.1,1.4-0.2,1.8-0.3C241.8,264.1,242.1,264,242.1,264z"/>
					</g>
				</g>
			</g>
		</g>
		<g>
			<g>
				<g>
					<g>
						<path class="st4" d="M248.4,249.7c0,0-0.1,0.2-0.3,0.5c-0.2,0.4-0.4,0.9-0.7,1.5c-0.6,1.3-1.4,3-2.3,5c-0.9,2-1.7,3.7-2.2,5
							c-0.3,0.6-0.5,1.2-0.6,1.5c-0.1,0.4-0.2,0.6-0.2,0.6s0.1-0.2,0.3-0.5c0.2-0.4,0.4-0.9,0.7-1.5c0.6-1.3,1.4-3,2.3-5
							c0.9-2,1.7-3.7,2.2-5c0.3-0.6,0.5-1.2,0.6-1.5C248.3,249.9,248.4,249.7,248.4,249.7z"/>
					</g>
				</g>
			</g>
		</g>
		<g>
			<g>
				<g>
					<g>
						<path class="st4" d="M262.3,265.1c0,0-0.2,0.2-0.4,0.7c-0.3,0.5-0.6,1.2-0.9,1.9c-0.8,1.6-1.9,3.9-3,6.4
							c-1.2,2.5-2.2,4.8-2.9,6.4c-0.3,0.8-0.6,1.4-0.9,2c-0.2,0.5-0.3,0.7-0.3,0.7s0.2-0.2,0.4-0.7c0.3-0.5,0.6-1.2,0.9-1.9
							c0.8-1.6,1.9-3.9,3-6.4c1.2-2.5,2.2-4.8,2.9-6.4c0.3-0.8,0.6-1.4,0.9-2C262.2,265.3,262.3,265.1,262.3,265.1z"/>
					</g>
				</g>
			</g>
		</g>
		<g>
			<g>
				<g>
					<g>
						<path class="st4" d="M254,282.7c0,0-0.3,0-0.8,0c-0.6,0-1.4,0.1-2.3,0.1c-1.9,0.1-4.6,0.3-7.6,0.4s-5.6,0.1-7.6,0.1
							c-0.9,0-1.7,0-2.3,0c-0.5,0-0.8,0-0.8,0s0.3,0,0.8,0.1s1.3,0.1,2.3,0.1c1.9,0.1,4.6,0.1,7.6,0s5.6-0.3,7.6-0.5
							c1-0.1,1.7-0.2,2.3-0.2C253.7,282.8,254,282.7,254,282.7z"/>
					</g>
				</g>
			</g>
		</g>
	</g>
	<g>
		<g>
			<path class="st6" d="M551.9,291.4c-3.4-1.5-7.4-1.3-10.8,0.1c-3.4,1.4-6.3,3.8-8.8,6.6c-4.8,5.3-7.4,13.1-8.7,20.2
				c7.9,1,15.6-4.1,19.4-6.9C548.8,306.9,556.8,295.3,551.9,291.4"/>
		</g>
		<g>
			<path class="st6" d="M509.3,321c3.8-1.7,6.2-5.7,6.5-9.8c0.3-4.1-1.4-8.2-4.2-11.3c-1.3-1.4-3-2.7-4.9-2.6
				c-1.8,0.1-3.3,1.4-4.1,3.1c-0.7,1.6-0.8,3.5-0.6,5.3C502.6,311.7,504.3,317.4,509.3,321"/>
		</g>
		<g>
			<g>
				<path class="st4" d="M498.9,340.9c0,0,0.4-0.4,1-1.1s1.4-1.9,2.4-3.3c2-2.8,4.7-6.8,6.5-11.9c1.8-5,2-10,1.2-13.4
					c-0.4-1.7-0.9-3-1.3-3.9s-0.7-1.3-0.8-1.3c-0.1,0.1,1,1.9,1.5,5.3c0.6,3.3,0.4,8.2-1.4,13.1s-4.4,8.9-6.2,11.8
					S498.8,340.8,498.9,340.9z"/>
			</g>
		</g>
		<g>
			<g>
				<path class="st4" d="M544.8,299.6c0,0-0.7,0.5-2,1.5s-3,2.4-5.2,4.3c-4.4,3.6-10.4,8.8-16.8,14.6c-6.5,5.8-12.2,11.3-16.2,15.3
					c-2,2-3.7,3.6-4.8,4.8c-1.1,1.1-1.7,1.8-1.7,1.8s0.7-0.5,1.9-1.6c1.3-1.2,2.9-2.7,4.9-4.6c4.2-3.9,9.9-9.2,16.4-15.1
					c6.5-5.8,12.4-11,16.6-14.8c2.1-1.8,3.8-3.3,5.1-4.5C544.2,300.2,544.8,299.6,544.8,299.6z"/>
			</g>
		</g>
		<g>
			<path class="st6" d="M513.8,331.8c7.2-4.9,16.9-6,25-2.8c2.1,0.8,4.3,2.3,4.3,4.5s-2.2,3.8-4.2,4.6c-8.6,3.4-19.2,1-25.4-5.8"/>
		</g>
		<g>
			<g>
				<path class="st4" d="M533.4,333c0-0.1-0.4-0.3-1.3-0.6c-0.4-0.2-1-0.4-1.6-0.6s-1.3-0.4-2.2-0.6c-1.6-0.4-3.6-0.7-5.8-0.7
					s-4.6,0.1-7.1,0.7c-2.5,0.5-4.8,1.4-6.8,2.3c-2,1-3.7,2-5,3c-0.7,0.5-1.2,1-1.7,1.4s-0.9,0.8-1.2,1.2c-0.6,0.7-1,1.1-0.9,1.1
					c0.1,0.1,1.5-1.4,4.2-3.2c1.3-0.9,3-1.9,5-2.8s4.2-1.6,6.6-2.2c2.4-0.5,4.8-0.7,7-0.7s4.1,0.2,5.7,0.5
					C531.5,332.4,533.4,333.2,533.4,333z"/>
			</g>
		</g>
	</g>
</g>
<g id="Newletter">
	<g>
		<g>
			<g>
				<g>
					<g>
						<rect x="254.4" y="114.1" class="st10" width="252.7" height="277.1"/>
					</g>
				</g>
				<g>
					<g>
						<g>
							<path class="st4" d="M507.2,391.2c0-2-0.1-111.5-0.2-277.1l0.2,0.2c-74.1,0-160.7,0-252.7,0l0,0l0.3-0.3
								c0,102,0,197.2,0,277.1l-0.2-0.2C406.4,391.1,505.3,391.2,507.2,391.2c-1.9,0-100.8,0.1-252.7,0.2h-0.2v-0.2
								c0-79.9,0-175.2,0-277.1v-0.3h0.3l0,0c92,0,178.6,0,252.7,0h0.2v0.2C507.3,279.7,507.2,389.2,507.2,391.2z"/>
						</g>
					</g>
				</g>
			</g>
			<g>
				<g>
					<g>
						<path class="st6" d="M438.8,365.8h-96.6c-8,0-14.5-6.5-14.5-14.5v-3c0-8,6.5-14.5,14.5-14.5h96.6c8,0,14.5,6.5,14.5,14.5v3
							C453.3,359.3,446.8,365.8,438.8,365.8z"/>
					</g>
				</g>
				<g class="st7">
					<g>
						<path d="M438.8,365.8h-96.6c-8,0-14.5-6.5-14.5-14.5v-3c0-8,6.5-14.5,14.5-14.5h96.6c8,0,14.5,6.5,14.5,14.5v3
							C453.3,359.3,446.8,365.8,438.8,365.8z"/>
					</g>
				</g>
				<g>
					<g>
						<path class="st6" d="M428.3,365.8h-96.6c-8,0-14.5-6.5-14.5-14.5v-3c0-8,6.5-14.5,14.5-14.5h96.6c8,0,14.5,6.5,14.5,14.5v3
							C442.8,359.3,436.3,365.8,428.3,365.8z"/>
					</g>
				</g>
				<g>
					<g>
						<path class="st10" d="M351.8,351.9l0.4-1c0.5,0.4,1.4,0.7,2.2,0.7c1,0,1.5-0.4,1.5-0.9c0-1.4-3.9-0.5-3.9-3c0-1.1,0.9-2,2.7-2
							c0.8,0,1.6,0.2,2.2,0.6l-0.4,1c-0.6-0.4-1.2-0.5-1.8-0.5c-1,0-1.4,0.4-1.4,0.9c0,1.4,3.9,0.5,3.9,2.9c0,1.1-0.9,2-2.7,2
							C353.4,352.7,352.4,352.4,351.8,351.9z"/>
						<path class="st11" d="M354.5,352.7c-1,0-2.1-0.3-2.6-0.8l0,0l0,0l0.4-1l0,0c0.5,0.4,1.4,0.7,2.2,0.7c0.9,0,1.4-0.3,1.4-0.8
							c0-0.6-0.7-0.8-1.6-1c-1.1-0.3-2.4-0.6-2.4-2c0-1,0.7-2,2.7-2c0.8,0,1.7,0.2,2.2,0.6l0,0l0,0l-0.4,1l0,0
							c-0.6-0.3-1.2-0.5-1.8-0.5c-0.9,0-1.4,0.3-1.4,0.9s0.7,0.8,1.5,1c1.1,0.3,2.4,0.6,2.4,2c0,0.6-0.2,1.1-0.7,1.4
							C356,352.5,355.3,352.7,354.5,352.7z M351.9,351.9c0.6,0.5,1.6,0.8,2.6,0.8c1.6,0,2.7-0.8,2.7-1.9c0-1.4-1.2-1.7-2.3-1.9
							c-0.9-0.2-1.6-0.4-1.6-1s0.5-0.9,1.5-0.9c0.6,0,1.2,0.2,1.8,0.5l0.4-0.9c-0.6-0.4-1.4-0.6-2.2-0.6c-1.9,0-2.6,1-2.6,2
							c0,1.4,1.2,1.7,2.3,1.9c0.9,0.2,1.6,0.4,1.6,1s-0.5,0.9-1.5,0.9c-0.8,0-1.6-0.3-2.2-0.7L351.9,351.9z"/>
					</g>
					<g>
						<path class="st10" d="M358.3,349.7V346h1.2v3.7c0,1.4,0.6,1.9,1.7,1.9s1.7-0.6,1.7-1.9V346h1.2v3.7c0,1.9-1.1,3-2.9,3
							C359.4,352.7,358.3,351.7,358.3,349.7z"/>
						<path class="st11" d="M361.2,352.7c-1.9,0-2.9-1.1-2.9-3V346h1.3v3.7c0,1.3,0.5,1.9,1.7,1.9c1.1,0,1.6-0.6,1.6-1.9V346h1.3
							v3.8C364.1,351.6,363.1,352.7,361.2,352.7z M358.3,346v3.7c0,1.9,1,3,2.9,3c1.8,0,2.9-1.1,2.9-3V346h-1.2v3.7
							c0,1.3-0.6,2-1.7,2s-1.7-0.7-1.7-2V346H358.3z"/>
					</g>
					<g>
						<path class="st10" d="M371.7,350.8c0,1.1-0.9,1.8-2.6,1.8h-3.3V346h3.1c1.6,0,2.4,0.7,2.4,1.7c0,0.7-0.3,1.2-0.9,1.5
							C371.2,349.4,371.7,350,371.7,350.8z M367.1,347v1.8h1.7c0.9,0,1.3-0.3,1.3-0.9s-0.5-0.9-1.3-0.9H367.1z M370.5,350.7
							c0-0.7-0.5-1-1.4-1h-2v1.9h2C370,351.6,370.5,351.4,370.5,350.7z"/>
						<path class="st11" d="M369.1,352.6h-3.3V346h3.1c1.5,0,2.5,0.7,2.5,1.7c0,0.6-0.3,1.1-0.8,1.5c0.7,0.3,1.2,0.9,1.2,1.7
							C371.7,352,370.8,352.6,369.1,352.6z M365.8,352.6h3.3c1.7,0,2.6-0.6,2.6-1.8c0-0.8-0.4-1.4-1.2-1.6h-0.1h0.1
							c0.5-0.3,0.8-0.8,0.8-1.4c0-1.1-0.9-1.7-2.4-1.7h-3.1L365.8,352.6L365.8,352.6z M369,351.7h-2v-2h2c1,0,1.5,0.3,1.5,1
							C370.5,351.4,370,351.7,369,351.7z M367.1,351.6h2c0.9,0,1.4-0.3,1.4-0.9s-0.5-0.9-1.4-0.9h-2V351.6z M368.8,348.8H367v-1.9
							h1.8c0.9,0,1.4,0.3,1.4,0.9C370.2,348.5,369.7,348.8,368.8,348.8z M367.1,348.8h1.7c0.6,0,1.3-0.2,1.3-0.9
							c0-0.7-0.7-0.9-1.3-0.9h-1.7V348.8z"/>
					</g>
					<g>
						<path class="st10" d="M372.5,351.9l0.4-1c0.5,0.4,1.4,0.7,2.2,0.7c1,0,1.5-0.4,1.5-0.9c0-1.4-3.9-0.5-3.9-3c0-1.1,0.9-2,2.7-2
							c0.8,0,1.6,0.2,2.2,0.6l-0.4,1c-0.6-0.4-1.2-0.5-1.8-0.5c-1,0-1.4,0.4-1.4,0.9c0,1.4,3.9,0.5,3.9,2.9c0,1.1-0.9,2-2.7,2
							C374,352.7,373,352.4,372.5,351.9z"/>
						<path class="st11" d="M375.1,352.7c-1,0-2.1-0.3-2.6-0.8l0,0l0,0l0.4-1l0,0c0.5,0.4,1.4,0.7,2.2,0.7c0.9,0,1.4-0.3,1.4-0.8
							c0-0.6-0.7-0.8-1.6-1c-1.1-0.3-2.4-0.6-2.4-2c0-1,0.7-2,2.7-2c0.8,0,1.7,0.2,2.2,0.6l0,0l0,0l-0.4,1l0,0
							c-0.6-0.3-1.2-0.5-1.8-0.5c-0.9,0-1.4,0.3-1.4,0.9s0.7,0.8,1.5,1c1.1,0.3,2.4,0.6,2.4,2C377.8,351.9,376.7,352.7,375.1,352.7z
							 M372.5,351.9c0.6,0.5,1.6,0.8,2.6,0.8c1.6,0,2.7-0.8,2.7-1.9c0-1.4-1.2-1.7-2.3-1.9c-0.9-0.2-1.6-0.4-1.6-1s0.5-0.9,1.5-0.9
							c0.6,0,1.2,0.2,1.8,0.5l0.4-0.9c-0.6-0.4-1.4-0.6-2.2-0.6c-1.9,0-2.6,1-2.6,2c0,1.4,1.2,1.7,2.3,1.9c0.9,0.2,1.6,0.4,1.6,1
							s-0.5,0.9-1.5,0.9c-0.8,0-1.6-0.3-2.2-0.7L372.5,351.9z"/>
					</g>
					<g>
						<path class="st10" d="M378.5,349.3c0-2,1.5-3.4,3.5-3.4c1.1,0,2,0.4,2.6,1.1l-0.8,0.7c-0.5-0.5-1.1-0.8-1.8-0.8
							c-1.4,0-2.4,1-2.4,2.3s1,2.3,2.4,2.3c0.7,0,1.3-0.3,1.8-0.8l0.8,0.8c-0.6,0.7-1.5,1.1-2.6,1.1
							C380,352.7,378.5,351.3,378.5,349.3z"/>
						<path class="st11" d="M382,352.7c-2.1,0-3.6-1.4-3.6-3.4s1.5-3.4,3.6-3.4c1.1,0,2,0.4,2.6,1.1l0,0l0,0l-0.8,0.8l0,0
							c-0.5-0.5-1.1-0.8-1.8-0.8c-1.4,0-2.3,1-2.3,2.3s1,2.3,2.3,2.3c0.7,0,1.3-0.3,1.8-0.8l0,0l0.8,0.8l0,0
							C384.1,352.3,383.1,352.7,382,352.7z M382.1,345.9c-2,0-3.5,1.4-3.5,3.4s1.5,3.4,3.5,3.4c1.1,0,2-0.4,2.6-1.1l-0.8-0.7
							c-0.5,0.5-1.1,0.8-1.8,0.8c-1.4,0-2.4-1-2.4-2.4s1-2.4,2.4-2.4c0.7,0,1.3,0.3,1.8,0.8l0.8-0.7
							C384,346.3,383.1,345.9,382.1,345.9z"/>
					</g>
					<g>
						<path class="st10" d="M390.2,352.6l-1.4-1.9c-0.1,0-0.2,0-0.3,0H387v1.9h-1.2V346h2.7c1.7,0,2.8,0.9,2.8,2.4
							c0,1-0.5,1.7-1.4,2.1l1.5,2.2L390.2,352.6L390.2,352.6z M388.5,347h-1.4v2.6h1.4c1.1,0,1.6-0.5,1.6-1.3
							C390.2,347.5,389.6,347,388.5,347z"/>
						<path class="st11" d="M391.6,352.6h-1.4l0,0l-1.3-1.9c-0.1,0-0.2,0-0.2,0h-1.5v1.9h-1.3V346h2.8c1.8,0,2.8,0.9,2.8,2.4
							c0,1-0.5,1.7-1.4,2.1L391.6,352.6z M390.2,352.6h1.3l-1.5-2.2l0,0c0.9-0.4,1.4-1.1,1.4-2.1c0-1.4-1.1-2.3-2.8-2.3h-2.7v6.6
							h1.2v-1.9h1.5c0.1,0,0.2,0,0.3,0l0,0l0,0L390.2,352.6z M388.5,349.7H387V347h1.5c1.1,0,1.7,0.5,1.7,1.3
							C390.2,349.2,389.6,349.7,388.5,349.7z M387.1,349.6h1.4c1,0,1.6-0.5,1.6-1.3s-0.6-1.3-1.6-1.3h-1.4V349.6z"/>
					</g>
					<g>
						<path class="st10" d="M392.8,346h1.2v6.6h-1.2V346z"/>
						<path class="st11" d="M394,352.6h-1.3V346h1.3V352.6z M392.8,352.6h1.2V346h-1.2V352.6z"/>
					</g>
					<g>
						<path class="st10" d="M401.7,350.8c0,1.1-0.9,1.8-2.6,1.8h-3.3V346h3.1c1.6,0,2.4,0.7,2.4,1.7c0,0.7-0.3,1.2-0.9,1.5
							C401.2,349.4,401.7,350,401.7,350.8z M397,347v1.8h1.7c0.9,0,1.3-0.3,1.3-0.9s-0.5-0.9-1.3-0.9H397z M400.4,350.7
							c0-0.7-0.5-1-1.4-1h-2v1.9h2C399.9,351.6,400.4,351.4,400.4,350.7z"/>
						<path class="st11" d="M399.1,352.6h-3.3V346h3.1c1.5,0,2.5,0.7,2.5,1.7c0,0.6-0.3,1.1-0.8,1.5c0.7,0.3,1.2,0.9,1.2,1.7
							C401.7,352,400.8,352.6,399.1,352.6z M395.8,352.6h3.3c1.7,0,2.6-0.6,2.6-1.8c0-0.8-0.4-1.4-1.2-1.6h-0.1h0.1
							c0.5-0.3,0.8-0.8,0.8-1.4c0-1.1-0.9-1.7-2.4-1.7h-3.1L395.8,352.6L395.8,352.6z M399,351.7h-2v-2h2c1,0,1.5,0.3,1.5,1
							C400.5,351.4,400,351.7,399,351.7z M397.1,351.6h2c0.9,0,1.4-0.3,1.4-0.9s-0.5-0.9-1.4-0.9h-2V351.6z M398.8,348.8H397v-1.9
							h1.8c0.9,0,1.4,0.3,1.4,0.9C400.1,348.5,399.7,348.8,398.8,348.8z M397.1,348.8h1.7c0.6,0,1.3-0.2,1.3-0.9
							c0-0.7-0.7-0.9-1.3-0.9h-1.7V348.8z"/>
					</g>
					<g>
						<path class="st10" d="M408,351.6v1h-5V346h4.8v1h-3.6v1.7h3.2v1h-3.2v1.8L408,351.6L408,351.6z"/>
						<path class="st11" d="M408,352.6h-5V346h4.9v1.1h-3.6v1.7h3.2v1.1h-3.2v1.8h3.7V352.6L408,352.6z M403,352.6h4.9v-1h-3.7v-1.9
							h3.2v-1h-3.2V347h3.6v-1H403V352.6z"/>
					</g>
				</g>
			</g>
			<g>
				<g>
					<path class="st6" d="M428.3,239.4"/>
				</g>
			</g>
			<g>
				<g>
					<g>
						<path class="st4" d="M454.3,312.5c0,0.1-32.1,0.3-71.8,0.3s-71.8-0.1-71.8-0.3s32.1-0.3,71.8-0.3
							C422.2,312.3,454.3,312.4,454.3,312.5z"/>
					</g>
				</g>
			</g>
			<g>
				<g>
					<g>
						<path class="st4" d="M476.8,321.2c0,0.1-42.2,0.3-94.2,0.3c-52.1,0-94.2-0.1-94.2-0.3c0-0.1,42.2-0.3,94.2-0.3
							C434.6,321,476.8,321.1,476.8,321.2z"/>
					</g>
				</g>
			</g>
		</g>
		<g>
			<path class="st1" d="M266.3,124.8c0,1.2-1,2.1-2.1,2.1s-2.1-1-2.1-2.1s1-2.1,2.1-2.1C265.4,122.7,266.3,123.7,266.3,124.8z"/>
		</g>
		<g>
			<circle class="st1" cx="271.3" cy="124.8" r="2.1"/>
		</g>
		<g>
			<path class="st1" d="M280.6,124.8c0,1.2-1,2.1-2.1,2.1s-2.1-1-2.1-2.1s1-2.1,2.1-2.1C279.6,122.7,280.6,123.7,280.6,124.8z"/>
		</g>
	</g>
</g>
<g id="Character">
	<g>
		<g>
			<path class="st12" d="M488.4,169.6l4.2-15c0,0,1.5-6.1,1.9-7.5c0.5-1.9-0.8-2.5-1.6-1.2c-0.3,0.5-3.6,6.7-3.6,6.7
				s2.6-10.1,2.7-10.5c0.8-3.3-1.2-3-1.8-1.8c-0.6,1.2-4.3,11.2-4.3,11.2c3.5-13.1,2.4-14.2,1.4-14.4s-4.1,11.7-4.1,11.7
				s-1.1-2-3.2-3.4c-3.2-2.2-8.4,0-8.7,1.5c-0.3,1.5,1.6,1.9,1.6,1.9c3.9-2.5,8,0.5,7.6,4.3s-5.2,3.2-5.8,0.6c-1.3-5.9-3.3-4-3.3-4
				l2,13l-2.1,6.5"/>
		</g>
		<g>
			<g>
				<g>
					<polygon class="st5" points="338.7,230.7 428.5,230.1 431,291.2 337.9,290.3 					"/>
				</g>
			</g>
			<g>
				<g>
					<polyline class="st4" points="338.7,230.7 384.3,193.9 428.5,230.1 					"/>
				</g>
			</g>
			<g>
				<g>
					<g>
						<path class="st4" d="M337.9,290.3c-0.1-0.1,7.1-8,16.1-17.5c9-9.6,16.4-17.3,16.5-17.2s-7.1,8-16.1,17.5
							C345.4,282.7,338.1,290.4,337.9,290.3z"/>
					</g>
				</g>
			</g>
			<g>
				<g>
					<g>
						<path class="st4" d="M431,291.2c-0.1,0.1-7.1-7.6-15.6-17.2s-15.3-17.5-15.2-17.6c0.1-0.1,7.1,7.6,15.6,17.2
							C424.3,283.3,431.1,291.1,431,291.2z"/>
					</g>
				</g>
			</g>
			<g>
				<g>
					<polyline class="st4" points="428.5,230.1 383.4,266.2 338.7,230.7 					"/>
				</g>
			</g>
		</g>
		<g>
			<g>
				<g>
					<g>
						<path class="st12" d="M278.6,161.9h0.3l-1.2-4l-3.8-15.4c-0.4-1.4,0.4-2.8,1.8-3.3l2.8-0.1l9.5-4.4c1.8-0.7,3.8,0.5,4,2.3
							c0.3,2.8,2.3,10.4,4.3,7.8c0-0.1,0.1-0.1,0.1-0.2c2.9-4,6.4-6.1,7.9-6c1.4,0.1,2,1.8,1,2.8c-0.1,0.2-0.3,0.3-0.5,0.5
							c-0.1,0.1-0.2,0.1-0.3,0.2c-1.1,0.9-2.4,2.5-3.4,3.7c-0.9,1.2-1.6,2.6-2.1,4c-0.5,1.6-0.9,3-1.2,4.2l0.7,7.8"/>
					</g>
				</g>
				<g>
					<g>
						<g>
							<g>
								<path class="st5" d="M303.9,92.3c0,0-11.1-2.1-27-16.6s-23.8-34.1-25.7-33.9c-1.9,0.2-10.3-3.5-25.1,31.3
									c-14.8,34.7-8.4,42.5-5.2,42.4c3.1-0.2,24.3-6.7,37.6-5.6c13.3,1.1,30.6,7.6,30.6,7.6L303.9,92.3z"/>
							</g>
						</g>
						<g>
							<g>
								<path class="st4" d="M327.9,110.3l-3.6,7.3l-1.6,3.3c-2.2,4.5-7.5,6.4-12,4.5l-23.9-7.6L299.7,86l24,11.9
									C328.2,100.2,330.1,105.7,327.9,110.3z"/>
							</g>
						</g>
						<g>
							<g>
								<path class="st4" d="M314.6,122.2l-7.1,15l-3.8-0.9l-24,20.7l-7.3-13.3c0,0,14.3-6.7,16.9-11.9c2.5-5.3-0.6-6.3-0.6-6.3
									l6.6-8L314.6,122.2z"/>
							</g>
						</g>
						<g>
							<g>
								<path class="st4" d="M227.5,73.7c-7.9,18.8-10.9,35.5-6.8,37.2c4.1,1.7,13.9-12.1,21.7-30.9s10.9-35.5,6.8-37.2
									C245,41,235.3,54.9,227.5,73.7z"/>
							</g>
						</g>
					</g>
					<g>
						<g>
							<polygon class="st5" points="330.2,120.6 323.7,118.8 327.5,111.1 332.4,114 							"/>
						</g>
					</g>
					<g>
						<g>
							<polygon class="st5" points="293.1,120.1 310.6,130.6 312.6,126.3 							"/>
						</g>
					</g>
					<g>
						<g>
							<polygon class="st5" points="327.5,111.1 323.7,118.8 325.1,119.2 328.1,111.5 							"/>
						</g>
					</g>
					<g>
						<g>
							<path class="st5" d="M323.1,113c-0.1,0.2-3.3-0.9-7.2-2.6c-3.9-1.6-7-3.1-6.9-3.3c0.1-0.2,3.3,0.9,7.2,2.6
								C320.1,111.3,323.2,112.8,323.1,113z"/>
						</g>
					</g>
					<g>
						<g>
							<path class="st5" d="M325,108.5c-0.1,0.2-3-0.9-6.5-2.5s-6.3-3.1-6.2-3.3c0.1-0.2,3,0.9,6.5,2.5
								C322.3,106.8,325.1,108.2,325,108.5z"/>
						</g>
					</g>
					<g>
						<g>
							<path class="st5" d="M320.8,117.8c0,0.1-0.8,0-2-0.4c-0.6-0.2-1.3-0.4-2.1-0.6c-0.8-0.3-1.6-0.7-2.5-1
								c-3.5-1.5-6.3-3-6.2-3.2c0.1-0.2,3,1,6.5,2.5c0.9,0.4,1.7,0.8,2.5,1.1c0.8,0.3,1.5,0.6,2,0.8
								C320.1,117.3,320.8,117.7,320.8,117.8z"/>
						</g>
					</g>
					<g>
						<g>
							<path class="st5" d="M244.4,69c0,0-9.7-5.7-14.6,7.4c-4.9,13.1,5.3,14.9,5.3,14.9C239,84.9,242.2,77.5,244.4,69z"/>
						</g>
					</g>
					<g>
						<g>
							<path class="st4" d="M254.2,53.3c0.1,0-0.1,0.9-0.3,2.5c-0.3,1.6-0.6,3.9-1.2,6.7c-0.4,1.4-0.8,2.9-1.2,4.6
								c-0.2,0.8-0.4,1.7-0.7,2.5c-0.1,0.4-0.2,0.9-0.4,1.3c-0.1,0.4-0.3,0.9-0.5,1.3c-0.6,1.8-1.3,3.7-2,5.6
								c-0.2,0.5-0.4,1-0.5,1.5c-0.2,0.5-0.4,1-0.6,1.5c-0.4,1-0.9,2-1.3,3c-0.5,1-0.9,2-1.3,3c-0.2,0.5-0.4,1-0.7,1.4
								c-0.3,0.5-0.5,0.9-0.8,1.4c-1,1.8-2,3.6-2.9,5.2c-0.2,0.4-0.5,0.8-0.7,1.2c-0.3,0.4-0.5,0.8-0.8,1.1c-0.5,0.8-1,1.5-1.5,2.2
								c-0.9,1.4-1.8,2.7-2.6,3.9c-1.8,2.3-3.3,4.1-4.3,5.3c-1,1.2-1.6,1.9-1.7,1.9c0,0,0.5-0.8,1.4-2.1c1-1.3,2.4-3.2,4.1-5.5
								c0.8-1.2,1.6-2.5,2.5-3.9c0.5-0.7,0.9-1.4,1.4-2.2c0.2-0.4,0.5-0.8,0.7-1.1c0.2-0.4,0.4-0.8,0.7-1.2c0.9-1.7,1.9-3.4,2.8-5.2
								c0.2-0.5,0.5-0.9,0.7-1.4c0.3-0.5,0.4-1,0.7-1.4c0.4-1,0.9-2,1.3-3c0.5-1,0.9-2,1.3-3c0.2-0.5,0.5-1,0.6-1.5
								c0.2-0.5,0.4-1,0.5-1.5c0.7-1.9,1.4-3.8,2-5.6c0.2-0.4,0.3-0.9,0.5-1.3c0.1-0.4,0.2-0.9,0.4-1.3c0.2-0.9,0.5-1.7,0.7-2.5
								c0.5-1.6,0.9-3.1,1.3-4.5c0.6-2.8,1.1-5,1.4-6.7C253.9,54.2,254.1,53.3,254.2,53.3z"/>
						</g>
					</g>
				</g>
			</g>
			<g>
				<path class="st6" d="M422.6,220.3"/>
			</g>
		</g>
		<g>
			<g>
				<g>
					<path class="st6" d="M347.6,207.8"/>
				</g>
			</g>
			<g>
				<g>
					<path class="st6" d="M311.8,196.3l-9.9-37.7l-24.8,0.7l7.7,52.6c1,11.4,7.7,18.9,19.1,20.7c6.8,1.1,14.2-5.4,19.6-9.6
						c3.6-2.7,4.2-2.2,7.9-5.5l0,0l16-11.5l0.4,1.9h-0.1l2.7,32.1l33.1,26l39.4-31.6l-0.9-13.7c0.1,0,0.2-0.2,0-0.2l-1-15.5
						l20.2,23.2c4.6,6.8,12.6,10.6,20.8,10c8.9-0.7,16.6-6.4,19.8-14.7l10.4-53l-22.8-4.9l-10.7,38.2l-25.5-29.3
						c-14.7-19.2-31.9-17.6-31.9-17.6l-31.7-0.6c0,0,0,0-0.1,0c-0.9,0.1-18.6,0.6-30.6,13.4L311.8,196.3z"/>
				</g>
			</g>
			<g>
				<g>
					<g>
						<path class="st10" d="M434.2,176.4c0,0-0.3-0.2-1-0.4s-1.7-0.4-3.1-0.3c-1.3,0.1-2.9,0.5-4.7,1.3c-1.8,0.8-3.6,2-5.7,3.2
							s-4.6,2.5-7.6,2.4c-1.5,0-2.9-0.5-4.4-1c-1.4-0.6-2.8-1.3-4.3-1.8c-2.9-1.2-6.4-1.6-9.7-0.9c-3.4,0.6-6.5,2.6-9.7,4.4
							c-1.6,0.9-3.2,1.8-4.9,2.5c-1.7,0.7-3.5,1.1-5.2,1.3c-3.5,0.4-7-0.1-10-1.4c-3-1.2-5.5-3-7.9-4.7c-2.3-1.7-4.4-3.3-6.5-4.5
							s-4.1-2-6-2.5c-1.9-0.4-3.5-0.5-4.9-0.4c-2.7,0.3-4,1.2-4,1.1c0,0,0.1-0.1,0.2-0.1c0.2-0.1,0.4-0.2,0.7-0.4
							c0.7-0.3,1.7-0.7,3-0.8c1.4-0.2,3.1-0.1,4.9,0.3c1.9,0.4,4,1.2,6.1,2.4s4.3,2.8,6.6,4.4c2.3,1.6,4.8,3.4,7.8,4.6
							c2.9,1.2,6.3,1.7,9.8,1.3c1.7-0.2,3.4-0.6,5.1-1.2c1.7-0.6,3.3-1.5,4.9-2.4c3.2-1.8,6.4-3.8,9.9-4.5s7-0.3,10,1
							c3,1.2,5.7,2.8,8.5,2.9c2.8,0.1,5.3-1.1,7.4-2.3s3.9-2.4,5.7-3.2c1.8-0.8,3.4-1.2,4.8-1.3s2.4,0.2,3.1,0.4
							C433.9,176.2,434.2,176.4,434.2,176.4z"/>
					</g>
				</g>
			</g>
			<g>
				<g>
					<g>
						<path class="st10" d="M452.6,195.2c0,0-0.1,0.5-0.5,1.4c-0.5,0.9-1.3,2.1-2.9,3.2c-1.5,1.1-3.7,2-6.4,2.3
							c-2.7,0.3-5.7,0-9-0.4c-3.3-0.3-7-0.7-10.7,0.5c-1.8,0.6-3.6,1.7-5.3,2.8c-1.7,1.1-3.5,2.4-5.6,3.2c-4.1,1.8-8.9,2.5-13.6,1.6
							c-2.4-0.4-4.7-1.2-6.9-2.4c-2.2-1.2-4.2-2.6-6.4-4c-2.1-1.4-4.3-2.6-6.6-3.3c-2.3-0.7-4.8-0.8-7.1-0.4
							c-4.7,0.7-9,2.6-13.2,3.7c-2.1,0.6-4.3,1-6.4,1.1c-2.1,0-4.2-0.3-6-1c-3.7-1.5-6.4-4.1-8.8-6.4c-2.4-2.3-4.6-4.3-6.9-5.7
							c-2.2-1.4-4.5-2-6.3-2.1s-3.3,0.2-4.2,0.5c-0.9,0.3-1.3,0.6-1.4,0.6c0,0,0.4-0.3,1.3-0.7s2.4-0.7,4.2-0.6
							c1.9,0.1,4.1,0.7,6.4,2.1c2.3,1.3,4.6,3.4,7,5.6c2.4,2.2,5.1,4.8,8.7,6.2c1.8,0.7,3.8,1,5.8,1c2.1-0.1,4.2-0.5,6.3-1.1
							c2.1-0.6,4.2-1.3,6.4-2c2.2-0.7,4.5-1.4,6.9-1.7s4.9-0.3,7.3,0.5c2.4,0.7,4.6,2,6.8,3.4c2.1,1.4,4.2,2.8,6.3,4
							c2.1,1.2,4.4,2,6.8,2.4c4.7,0.9,9.4,0.2,13.3-1.5c4-1.7,7.1-4.8,10.9-6c1.9-0.6,3.8-0.8,5.6-0.8c1.8,0,3.6,0.2,5.2,0.4
							c3.3,0.4,6.3,0.7,8.9,0.5s4.8-1.1,6.3-2.1s2.4-2.2,2.9-3.1C452.4,195.7,452.6,195.2,452.6,195.2z"/>
					</g>
				</g>
			</g>
			<g>
				<g>
					<g>
						<path class="st10" d="M481.5,220.7c0,0-0.4-0.5-1.4-1.1s-2.7-1.1-4.7-0.7c-2,0.4-4.2,1.7-6.3,3.4c-1.1,0.8-2.2,1.8-3.5,2.6
							s-2.7,1.6-4.3,1.9c-1.6,0.3-3.2,0.2-4.7-0.1s-2.9-0.8-4.2-1.2c-1.3-0.4-2.5-0.9-3.7-1.2s-2.3-0.5-3.3-0.6
							c-2.1-0.1-3.7,0.2-4.8,0.8c-1,0.5-1.5,1-1.5,0.9c0,0,0.1-0.1,0.3-0.3c0.1-0.1,0.3-0.2,0.4-0.4c0.2-0.1,0.4-0.3,0.7-0.4
							c1-0.6,2.8-1.1,4.9-0.9c1.1,0,2.2,0.2,3.4,0.5c1.2,0.3,2.5,0.7,3.8,1.2c2.6,0.8,5.6,1.9,8.7,1.3c1.5-0.3,2.9-1,4.2-1.8
							c1.3-0.8,2.4-1.7,3.5-2.6c2.2-1.7,4.4-3,6.6-3.4c2.1-0.3,3.9,0.2,4.9,0.9c0.5,0.3,0.8,0.7,1,0.9
							C481.4,220.5,481.5,220.7,481.5,220.7z"/>
					</g>
				</g>
			</g>
			<g>
				<g>
					<g>
						<path class="st10" d="M486.5,191.9c0,0-0.3,0.3-0.9,0.5c-0.6,0.3-1.5,0.6-2.7,0.7c-1.2,0.1-2.6,0-4.1-0.4s-3.1-1-4.7-1.6
							s-3.2-1.2-4.7-1.4c-1.5-0.3-2.8-0.2-4,0c-2.3,0.4-3.3,1.5-3.4,1.4c0,0,0.2-0.3,0.7-0.7s1.4-0.8,2.5-1.1s2.6-0.3,4.1-0.1
							s3.2,0.8,4.8,1.4c1.7,0.6,3.2,1.2,4.7,1.6c1.5,0.4,2.8,0.5,4,0.5C485.2,192.7,486.5,191.8,486.5,191.9z"/>
					</g>
				</g>
			</g>
			<g>
				<g>
					<g>
						<path class="st10" d="M420.2,229.7c0,0.1-0.9-0.6-2.6-1.2c-1.7-0.6-4.4-1.2-7.7-0.8c-3.3,0.3-7.1,1.6-11,3.5
							c-4,1.9-8.2,4.4-13.1,6c-2.4,0.8-4.9,1.3-7.4,1.3c-2.4,0-4.8-0.5-6.9-1.2s-4-1.5-5.8-2.3s-3.4-1.6-5-2.2
							c-3.1-1.3-5.7-1.8-7.6-2c-0.5,0-0.9-0.1-1.2-0.1c-0.3,0-0.6,0-0.9,0c-0.5,0-0.7,0-0.8,0c0,0,0.3-0.1,0.7-0.1
							c0.3,0,0.6,0,0.9-0.1c0.4,0,0.8,0,1.2,0c1.9,0.1,4.6,0.6,7.7,1.8c1.6,0.6,3.2,1.3,5,2.1s3.7,1.6,5.8,2.3
							c2.1,0.7,4.3,1.1,6.7,1.1c2.4,0,4.8-0.5,7.2-1.3c4.8-1.6,9-4,13-5.9s7.8-3.2,11.2-3.4c3.4-0.3,6.1,0.3,7.8,1
							C419.4,229,420.2,229.7,420.2,229.7z"/>
					</g>
				</g>
			</g>
			<g>
				<g>
					<g>
						<path class="st10" d="M283.6,204.2c0,0,0.1-0.1,0.5-0.2c0.3-0.1,0.9-0.1,1.5,0.1c0.6,0.2,1.4,0.6,2,1.4
							c0.6,0.7,1.1,1.7,1.6,2.7s1.2,2.1,2.2,2.9c1,0.9,2.3,1.6,3.7,2c2.9,1,6.3,1,9.7,0.5c3.5-0.5,6.8-1.2,9.9-1.2s5.9,0.9,7.8,2.2
							c2,1.3,3.1,2.9,3.6,4.2c0.5,1.2,0.4,2,0.4,2c-0.1,0-0.1-0.7-0.6-1.9s-1.6-2.7-3.6-3.9c-1.9-1.2-4.6-2.1-7.6-2
							c-3,0-6.3,0.7-9.8,1.2c-3.5,0.6-7,0.5-10-0.5c-1.5-0.5-2.8-1.2-3.8-2.2c-1-0.9-1.8-2-2.3-3.1s-0.9-2-1.5-2.7s-1.2-1.1-1.8-1.4
							C284.3,203.8,283.6,204.2,283.6,204.2z"/>
					</g>
				</g>
			</g>
			<g>
				<g>
					<g>
						<path class="st10" d="M305.3,173.6c-0.1,0.1-1.1-1.2-3.5-1.8c-1.2-0.3-2.6-0.5-4.2-0.3s-3.3,0.7-5,1.5
							c-1.7,0.7-3.3,1.6-4.8,2.3s-2.8,1.3-4,1.7s-2.2,0.6-2.9,0.7c-0.7,0.1-1.1,0.1-1.1,0.1c0-0.1,1.5-0.2,3.8-1.1
							c1.1-0.4,2.5-1.1,3.9-1.8c1.5-0.7,3-1.6,4.8-2.4c1.8-0.7,3.5-1.3,5.2-1.4c1.7-0.2,3.2,0,4.4,0.4c1.2,0.4,2.1,0.9,2.6,1.4
							C305.1,173.3,305.3,173.6,305.3,173.6z"/>
					</g>
				</g>
			</g>
			<g class="st13">
				<g>
					<g>
						<path d="M377.7,261.5c12.8-7.4,27.7-16.2,35.1-29c4.7-8.2,7.1-18.1,8-27.5l1.9,29.3l-39.4,31.6L377.7,261.5z"/>
					</g>
				</g>
			</g>
			<g class="st14">
				<g>
					<g>
						<path d="M344.5,164.4c-3,11.3-8.8,21-17.6,28.6c-2.1,1.8-4.4,3.6-7.1,4.5s-5.8,0.9-8.2-0.5l0.2-0.7l20-19.8L344.5,164.4z"/>
					</g>
				</g>
			</g>
			<g>
				<g>
					<g>
						<path class="st4" d="M314.3,212c-0.1,0,0.2-0.9,0.5-2.4s0.4-3.5,0-5.8c-0.4-2.2-1.2-4.2-1.9-5.4c-0.7-1.3-1.3-2-1.2-2.1
							c0,0,0.7,0.6,1.6,1.9c0.8,1.3,1.7,3.2,2.1,5.6c0.4,2.3,0.2,4.5-0.2,5.9C314.8,211.2,314.4,212,314.3,212z"/>
					</g>
				</g>
			</g>
			<g>
				<g>
					<g>
						<path class="st4" d="M308.6,207c-0.1-0.1,1.6-1.9,2.4-4.8c0.8-2.9,0.3-5.3,0.4-5.4c0.1,0,0.3,0.6,0.4,1.6s0.1,2.4-0.3,3.9
							s-1.1,2.7-1.7,3.5C309.1,206.6,308.6,207,308.6,207z"/>
					</g>
				</g>
			</g>
			<g>
				<g>
					<g>
						<path class="st4" d="M345.8,186.3c0.1,0,1,8,1.8,17.8c0.9,9.8,1.5,17.8,1.3,17.9s-1-8-1.8-17.8
							C346.2,194.3,345.7,186.3,345.8,186.3z"/>
					</g>
				</g>
			</g>
			<g>
				<g>
					<g>
						<path class="st4" d="M399.2,155.7c0,0,0.1,0.2,0.2,0.5c0.1,0.4,0.3,0.9,0.4,1.6c0.3,1.4,0.4,3.6-0.1,6.1
							c-0.6,2.5-1.9,5.5-4.4,7.9s-6.2,4-10.2,4.1s-7.8-1.3-10.4-3.7c-2.6-2.3-4-5.2-4.7-7.7c-0.6-2.5-0.6-4.7-0.4-6.1
							c0.1-0.7,0.2-1.3,0.4-1.6c0.1-0.4,0.2-0.6,0.2-0.5c0.1,0-0.2,0.8-0.4,2.2c-0.2,1.4-0.2,3.5,0.5,6c0.7,2.4,2.1,5.2,4.7,7.4
							c2.5,2.2,6.2,3.6,10,3.5c3.9-0.1,7.5-1.6,9.9-3.9c2.4-2.3,3.7-5.2,4.3-7.6c0.6-2.5,0.5-4.6,0.3-6
							C399.4,156.4,399.1,155.7,399.2,155.7z"/>
					</g>
				</g>
			</g>
			<g>
				<g>
					<g>
						<path class="st4" d="M457.3,215.9c-0.1,0-0.4-2.8-0.2-6.3c0.2-3.5,0.7-6.2,0.9-6.2c0.1,0-0.2,2.8-0.4,6.2
							C457.4,213.1,457.4,215.9,457.3,215.9z"/>
					</g>
				</g>
			</g>
			<g>
				<g>
					<g>
						<path class="st4" d="M461.3,217.7c-0.1,0-0.4-0.7-0.9-2c-0.4-1.3-1-3.1-1.4-5.1s-0.7-3.9-0.8-5.3c-0.1-1.4-0.1-2.2,0-2.2
							c0.2,0,0.5,3.3,1.3,7.4C460.4,214.5,461.4,217.7,461.3,217.7z"/>
					</g>
				</g>
			</g>
			<g>
				<g>
					<g>
						<path class="st4" d="M420.9,218.3c-0.1,0-0.5-5.6-0.7-12.6c-0.3-7-0.4-12.6-0.2-12.6c0.1,0,0.5,5.6,0.7,12.6
							C420.9,212.6,421,218.3,420.9,218.3z"/>
					</g>
				</g>
			</g>
		</g>
		<g>
			<g>
				<g>
					<g>
						<g>
							<g>
								<g>
									<g>
										<g>
											<g>
												<path class="st12" d="M385,174.4L385,174.4c-7.5-0.1-13.6-6.1-13.9-13.6c-0.2-5.5-0.4-10.5-0.4-10.5
													s-11.5-1.2-12.2-12.6s0-37.6,0-37.6l0,0c12.9-6.3,28.2-5.1,40,3.1l1.8,1.2l-0.8,56C399.3,168.2,392.9,174.5,385,174.4z"
													/>
											</g>
										</g>
									</g>
								</g>
							</g>
							<g>
								<g>
									<g>
										<g>
											<g>
												<path class="st15" d="M370.7,150.1c0,0,7.2,0.2,14.6-4.9c0,0-3.1,8.4-14.5,7.9L370.7,150.1z"/>
											</g>
										</g>
									</g>
								</g>
							</g>
						</g>
					</g>
				</g>
				<g>
					<g>
						<g>
							<g>
								<g>
									<g>
										<path class="st12" d="M399.5,116.2c0.2-0.1,7.7-2.7,7.8,5.1s-7.7,6.3-7.7,6.1C399.5,127.2,399.5,116.2,399.5,116.2z"/>
									</g>
								</g>
							</g>
						</g>
					</g>
					<g>
						<g>
							<g>
								<g>
									<g>
										<g>
											<path class="st15" d="M401.9,124.4c0,0,0.1,0.1,0.4,0.2c0.2,0.1,0.6,0.2,1,0c0.8-0.3,1.5-1.6,1.5-3
												c0-0.7-0.2-1.4-0.4-1.9c-0.2-0.6-0.6-1-1-1c-0.4-0.1-0.7,0.2-0.8,0.4c-0.1,0.2,0,0.4-0.1,0.4c0,0-0.2-0.1-0.1-0.5
												c0-0.2,0.1-0.3,0.3-0.5c0.2-0.2,0.5-0.2,0.7-0.2c0.6,0,1.2,0.6,1.4,1.2c0.3,0.6,0.5,1.4,0.5,2.2c0,1.6-0.8,3.1-1.9,3.4
												c-0.5,0.2-1,0-1.2-0.2C401.9,124.6,401.9,124.4,401.9,124.4z"/>
										</g>
									</g>
								</g>
							</g>
						</g>
					</g>
				</g>
				<g>
					<g>
						<g>
							<g>
								<g>
									<g>
										<g>
											<g>
												<g>
													<g>
														<g>
															<path class="st4" d="M364,117.3c0,0.9,0.7,1.6,1.6,1.6s1.6-0.6,1.7-1.5c0-0.9-0.7-1.6-1.6-1.6
																C364.8,115.8,364,116.4,364,117.3z"/>
														</g>
													</g>
												</g>
											</g>
										</g>
										<g>
											<g>
												<g>
													<g>
														<g>
															<g>
																<path class="st4" d="M362,115.6c0.2,0.2,1.4-0.7,3.2-0.7c1.7,0,3,0.9,3.2,0.7c0.1-0.1-0.1-0.5-0.7-0.9
																	s-1.5-0.8-2.6-0.8s-2,0.4-2.5,0.8C362.1,115.2,361.9,115.5,362,115.6z"/>
															</g>
														</g>
													</g>
												</g>
											</g>
										</g>
									</g>
									<g>
										<g>
											<g>
												<g>
													<g>
														<g>
															<path class="st4" d="M380.8,117.5c0,0.9,0.7,1.6,1.6,1.6s1.6-0.6,1.7-1.5c0-0.9-0.7-1.6-1.6-1.6
																S380.8,116.6,380.8,117.5z"/>
														</g>
													</g>
												</g>
											</g>
										</g>
										<g>
											<g>
												<g>
													<g>
														<g>
															<g>
																<path class="st4" d="M379.2,116c0.2,0.2,1.4-0.7,3.2-0.7c1.7,0,3,0.9,3.2,0.7c0.1-0.1-0.1-0.5-0.7-0.9
																	s-1.5-0.8-2.6-0.8s-2,0.4-2.5,0.8C379.3,115.5,379.1,115.9,379.2,116z"/>
															</g>
														</g>
													</g>
												</g>
											</g>
										</g>
									</g>
									<g>
										<g>
											<g>
												<g>
													<g>
														<g>
															<path class="st4" d="M372.9,129c0-0.1-1.1-0.3-2.8-0.5c-0.4,0-0.9-0.1-0.9-0.4c-0.1-0.3,0.1-0.8,0.3-1.3
																c0.4-1.1,0.9-2.2,1.3-3.4c1.8-4.8,3.2-8.8,3-8.9s-1.8,3.8-3.7,8.6c-0.4,1.2-0.9,2.3-1.3,3.4
																c-0.2,0.5-0.5,1.1-0.2,1.8c0.1,0.3,0.4,0.6,0.7,0.7c0.3,0.1,0.5,0.1,0.8,0.1C371.8,129,372.9,129.1,372.9,129z"/>
														</g>
													</g>
												</g>
											</g>
										</g>
									</g>
									<g>
										<g>
											<g>
												<g>
													<g>
														<g>
															<path class="st4" d="M378,130.2c-0.3,0-0.3,1.9-1.9,3.2c-1.6,1.4-3.6,1.1-3.7,1.4c0,0.1,0.5,0.4,1.3,0.4
																s2.1-0.2,3.1-1.1c1-0.8,1.4-1.9,1.5-2.7C378.4,130.6,378.1,130.2,378,130.2z"/>
														</g>
													</g>
												</g>
											</g>
										</g>
									</g>
								</g>
							</g>
						</g>
						<g>
							<g>
								<g>
									<g>
										<g>
											<path class="st4" d="M378.8,109.1c0.2,0.5,1.9,0.3,4,0.5s3.7,0.8,4,0.4c0.1-0.2-0.2-0.7-0.8-1.1c-0.7-0.5-1.7-0.9-3-1
												c-1.2-0.1-2.4,0.1-3.1,0.4C379.1,108.5,378.7,108.9,378.8,109.1z"/>
										</g>
									</g>
								</g>
							</g>
						</g>
						<g>
							<g>
								<g>
									<g>
										<g>
											<path class="st4" d="M362.7,110.6c0.3,0.4,1.5,0,3,0c1.5-0.1,2.7,0.3,3-0.1c0.1-0.2-0.1-0.6-0.6-1s-1.4-0.7-2.4-0.7
												s-1.9,0.4-2.4,0.8C362.7,110,362.5,110.4,362.7,110.6z"/>
										</g>
									</g>
								</g>
							</g>
						</g>
					</g>
				</g>
			</g>
			<g>
				<g>
					<g>
						<path class="st4" d="M352.7,92.5c-0.1-1.4,0.4-2.9,1.6-3.8c1.1-0.8,2.9-0.8,3.9,0.3c-0.5-1.9,1-4.1,3-4.2
							c1.9-0.1,3.4,1.3,5.2,1.8c1.8,0.5,3.6,0.1,5.3-0.6c1.7-0.7,3.3-1.6,5-2.2c3.6-1.3,7.6-1.1,11.1,0.4s6.2,4.6,7.6,8.1
							c2.5-0.8,5.3,0.5,6.9,2.6s1.9,4.9,1.6,7.5c-0.2,1.8-0.7,3.4-1.3,5.1c0,0.1,0,0.3,0,0.4c-0.1,6.3-0.8,13.6-3.5,13.7
							c-4.7,0.1-3.5-8.7-3.5-8.7c-5.7-2.2-3.6-10.8-5-12.1c-1.4-1.3-4.4-4.3-16.4,1.8c-4.6,2.4-10.8,2.3-14.2,1.5
							c-0.1,0-0.2,0-0.3-0.1c0,0,0,0-0.1,0h-0.1c-1.1-0.3-2.1-0.7-3.1-1.3c-1.1-0.7-2.1-1.6-2.5-2.8c-0.5-1.2-0.3-2.7,0.7-3.6
							C353.5,95.3,352.9,94,352.7,92.5z"/>
					</g>
				</g>
			</g>
		</g>
	</g>
</g>
</svg>
